<svg width="21" height="27" viewBox="0 0 21 27" fill="none" xmlns="http://www.w3.org/2000/svg">
<path d="M11.9821 16.9826H17.9762V13.3861H11.9821V16.9826ZM19.175 19.3802H11.9821L10.6035 20.7588C10.5036 20.8587 10.3937 20.9139 10.2738 20.9243C10.1539 20.9347 10.0441 20.9195 9.94416 20.8787C9.84426 20.838 9.75914 20.7728 9.68881 20.6833C9.61848 20.5938 9.58371 20.4791 9.58451 20.3393V12.1873C9.58451 11.8477 9.6996 11.5632 9.92977 11.3338C10.1599 11.1044 10.4445 10.9893 10.7833 10.9885H19.175C19.5147 10.9885 19.7996 11.1036 20.0298 11.3338C20.2599 11.564 20.3746 11.8485 20.3738 12.1873V18.1814C20.3738 18.5211 20.2587 18.806 20.0286 19.0361C19.7984 19.2663 19.5139 19.381 19.175 19.3802ZM2.39164 26.5731C1.7323 26.5731 1.16805 26.3385 0.69892 25.8694C0.229785 25.4002 -0.00518224 24.8356 -0.00598145 24.1755V2.59684C-0.00598145 1.9375 0.228985 1.37326 0.69892 0.90412C1.16885 0.434985 1.7331 0.200018 2.39164 0.199219H14.3798C15.0391 0.199219 15.6037 0.434186 16.0737 0.90412C16.5436 1.37405 16.7782 1.9383 16.7774 2.59684V7.39209C16.7774 7.73175 16.6623 8.01667 16.4321 8.24684C16.202 8.47701 15.9174 8.5917 15.5786 8.5909C15.2397 8.5901 14.9552 8.47502 14.725 8.24564C14.4948 8.01627 14.3798 7.73175 14.3798 7.39209V2.59684H2.39164V24.1755H14.3798V22.9766C14.3798 22.637 14.4948 22.3525 14.725 22.1231C14.9552 21.8937 15.2397 21.7786 15.5786 21.7778C15.9174 21.777 16.2024 21.8921 16.4333 22.1231C16.6643 22.3541 16.779 22.6386 16.7774 22.9766V24.1755C16.7774 24.8348 16.5428 25.3994 16.0737 25.8694C15.6045 26.3393 15.0399 26.5739 14.3798 26.5731H2.39164ZM8.3857 6.19328C8.72536 6.19328 9.01028 6.07819 9.24045 5.84802C9.47063 5.61785 9.58531 5.33333 9.58451 4.99447C9.58371 4.6556 9.46863 4.37108 9.23926 4.14091C9.00988 3.91074 8.72536 3.79565 8.3857 3.79565C8.04604 3.79565 7.76152 3.91074 7.53215 4.14091C7.30278 4.37108 7.18769 4.6556 7.18689 4.99447C7.18609 5.33333 7.30118 5.61825 7.53215 5.84922C7.76312 6.08019 8.04764 6.19488 8.3857 6.19328Z" fill="#363333"/>
</svg>
