<svg width="42" height="42" viewBox="0 0 42 42" fill="none" xmlns="http://www.w3.org/2000/svg">
<g clip-path="url(#clip0_222_1788)">
<rect width="42" height="42" rx="21" fill="#D1D3D9"/>
<path d="M21.6176 25.9218C29.6321 25.9218 37.8559 31.1326 38.3886 41.601C38.4091 42.0045 38.2685 42.3997 37.9979 42.6997C37.7272 42.9997 37.3486 43.18 36.9451 43.201C32.7163 43.4165 13.1315 43.5487 6.29221 43.201C5.88835 43.1805 5.50917 43.0004 5.23809 42.7004C4.96701 42.4003 4.82621 42.0049 4.84668 41.601C5.37935 31.1347 13.6032 25.9218 21.6176 25.9218ZM21.6176 7.62402C19.5956 7.62402 17.6564 8.42727 16.2266 9.85707C14.7968 11.2869 13.9935 13.2261 13.9935 15.2481C13.9935 17.2701 14.7968 19.2094 16.2266 20.6391C17.6564 22.0689 19.5956 22.8722 21.6176 22.8722C23.6397 22.8722 25.5789 22.0689 27.0087 20.6391C28.4385 19.2094 29.2417 17.2701 29.2417 15.2481C29.2417 13.2261 28.4385 11.2869 27.0087 9.85707C25.5789 8.42727 23.6397 7.62402 21.6176 7.62402Z" fill="#363333"/>
</g>
<defs>
<clipPath id="clip0_222_1788">
<rect width="42" height="42" rx="21" fill="white"/>
</clipPath>
</defs>
</svg>
