<svg width="96" height="96" viewBox="0 0 96 96" fill="none" xmlns="http://www.w3.org/2000/svg">
<g clip-path="url(#clip0_189_5673)">
<rect width="96" height="96" rx="48" fill="#D1D3D9"/>
<path d="M49.4123 59.2503C67.731 59.2503 86.5283 71.1607 87.7459 95.0884C87.7927 96.0108 87.4715 96.914 86.8529 97.5997C86.2342 98.2854 85.3687 98.6976 84.4465 98.7456C74.7806 99.2382 30.0155 99.5403 14.3828 98.7456C13.4596 98.6988 12.593 98.2871 11.9733 97.6013C11.3537 96.9154 11.0319 96.0115 11.0787 95.0884C12.2962 71.1653 31.0936 59.2503 49.4123 59.2503ZM49.4123 17.4268C44.7905 17.4268 40.358 19.2628 37.0899 22.5309C33.8218 25.799 31.9858 30.2314 31.9858 34.8532C31.9858 39.475 33.8218 43.9075 37.0899 47.1756C40.358 50.4437 44.7905 52.2797 49.4123 52.2797C54.0341 52.2797 58.4666 50.4437 61.7347 47.1756C65.0028 43.9075 66.8388 39.475 66.8388 34.8532C66.8388 30.2314 65.0028 25.799 61.7347 22.5309C58.4666 19.2628 54.0341 17.4268 49.4123 17.4268Z" fill="#F5F6FA"/>
</g>
<defs>
<clipPath id="clip0_189_5673">
<rect width="96" height="96" rx="48" fill="white"/>
</clipPath>
</defs>
</svg>
