<svg width="43" height="42" viewBox="0 0 43 42" fill="none" xmlns="http://www.w3.org/2000/svg">
<path d="M21.4873 39.375C11.3548 39.375 3.1123 31.1325 3.1123 21C3.1123 10.8675 11.3548 2.625 21.4873 2.625C31.6198 2.625 39.8623 10.8675 39.8623 21C39.8623 31.1325 31.6198 39.375 21.4873 39.375ZM21.4873 5.25C12.7986 5.25 5.7373 12.3112 5.7373 21C5.7373 29.6887 12.7986 36.75 21.4873 36.75C30.1761 36.75 37.2373 29.6887 37.2373 21C37.2373 12.3112 30.1761 5.25 21.4873 5.25Z" fill="#006EC2"/>
<path d="M21.4873 30.1875C20.7523 30.1875 20.1748 29.61 20.1748 28.875V13.125C20.1748 12.39 20.7523 11.8125 21.4873 11.8125C22.2223 11.8125 22.7998 12.39 22.7998 13.125V28.875C22.7998 29.61 22.2223 30.1875 21.4873 30.1875Z" fill="#006EC2"/>
<path d="M29.3623 22.3125H13.6123C12.8773 22.3125 12.2998 21.735 12.2998 21C12.2998 20.265 12.8773 19.6875 13.6123 19.6875H29.3623C30.0973 19.6875 30.6748 20.265 30.6748 21C30.6748 21.735 30.0973 22.3125 29.3623 22.3125Z" fill="#006EC2"/>
</svg>
