<svg width="42" height="42" viewBox="0 0 42 42" fill="none" xmlns="http://www.w3.org/2000/svg">
<path d="M21 12.25C21.9665 12.25 22.75 11.4665 22.75 10.5C22.75 9.5335 21.9665 8.75 21 8.75C20.0335 8.75 19.25 9.5335 19.25 10.5C19.25 11.4665 20.0335 12.25 21 12.25Z" fill="#006EC2"/>
<path d="M10.5 29.75H31.5V33.25H10.5V29.75ZM17.5 20.7025L22.386 25.592L29.267 18.7058L31.5 21V14H24.5L26.7925 16.2312L22.3843 20.6395L17.5 15.75L10.5 22.75L12.9745 25.2245L17.5 20.7025Z" fill="#006EC2"/>
<path d="M33.25 5.25012H27.4785C27.3052 4.99244 27.1182 4.74417 26.9185 4.50637L26.901 4.48537C25.6148 2.98837 23.806 2.03831 21.8435 1.82887C21.2861 1.72371 20.7139 1.72371 20.1565 1.82887C18.194 2.03831 16.3852 2.98837 15.099 4.48537L15.0815 4.50637C14.8818 4.74361 14.6949 4.99129 14.5215 5.24837V5.25012H8.75C7.35804 5.25151 6.02349 5.80508 5.03922 6.78934C4.05496 7.77361 3.50139 9.10816 3.5 10.5001V35.0001C3.50139 36.3921 4.05496 37.7266 5.03922 38.7109C6.02349 39.6952 7.35804 40.2487 8.75 40.2501H33.25C34.642 40.2487 35.9765 39.6952 36.9608 38.7109C37.945 37.7266 38.4986 36.3921 38.5 35.0001V10.5001C38.4986 9.10816 37.945 7.77361 36.9608 6.78934C35.9765 5.80508 34.642 5.25151 33.25 5.25012ZM35 35.0001C35 35.4643 34.8156 35.9094 34.4874 36.2376C34.1593 36.5658 33.7141 36.7501 33.25 36.7501H8.75C8.28587 36.7501 7.84075 36.5658 7.51256 36.2376C7.18438 35.9094 7 35.4643 7 35.0001V10.5001C7 10.036 7.18438 9.59087 7.51256 9.26268C7.84075 8.93449 8.28587 8.75012 8.75 8.75012H16.7125C16.9133 7.76112 17.4499 6.87195 18.2313 6.23329C19.0127 5.59462 19.9908 5.24573 21 5.24573C22.0092 5.24573 22.9873 5.59462 23.7687 6.23329C24.5501 6.87195 25.0867 7.76112 25.2875 8.75012H33.25C33.7141 8.75012 34.1593 8.93449 34.4874 9.26268C34.8156 9.59087 35 10.036 35 10.5001V35.0001Z" fill="#006EC2"/>
</svg>
