<svg width="12" height="12" viewBox="0 0 12 12" fill="none" xmlns="http://www.w3.org/2000/svg">
<path d="M5.99996 8.91699C6.16524 8.91699 6.30388 8.86099 6.41588 8.74899C6.52788 8.63699 6.58368 8.49855 6.58329 8.33366C6.5829 8.16877 6.5269 8.03033 6.41529 7.91833C6.30368 7.80633 6.16524 7.75033 5.99996 7.75033C5.83468 7.75033 5.69624 7.80633 5.58463 7.91833C5.47302 8.03033 5.41702 8.16877 5.41663 8.33366C5.41624 8.49855 5.47224 8.63719 5.58463 8.74958C5.69702 8.86196 5.83546 8.91777 5.99996 8.91699ZM5.99996 6.58366C6.16524 6.58366 6.30388 6.52766 6.41588 6.41566C6.52788 6.30366 6.58368 6.16522 6.58329 6.00033V3.66699C6.58329 3.50171 6.52729 3.36327 6.41529 3.25166C6.30329 3.14005 6.16485 3.08405 5.99996 3.08366C5.83507 3.08327 5.69663 3.13927 5.58463 3.25166C5.47263 3.36405 5.41663 3.50249 5.41663 3.66699V6.00033C5.41663 6.1656 5.47263 6.30424 5.58463 6.41624C5.69663 6.52824 5.83507 6.58405 5.99996 6.58366ZM5.99996 11.8337C5.19302 11.8337 4.43468 11.6804 3.72496 11.374C3.01524 11.0675 2.39788 10.652 1.87288 10.1274C1.34788 9.6028 0.932349 8.98544 0.626293 8.27533C0.320238 7.56521 0.167016 6.80688 0.166627 6.00033C0.166238 5.19377 0.31946 4.43544 0.626293 3.72533C0.933127 3.01521 1.34865 2.39785 1.87288 1.87324C2.3971 1.34863 3.01446 0.933103 3.72496 0.626659C4.43546 0.320214 5.19379 0.166992 5.99996 0.166992C6.80613 0.166992 7.56446 0.320214 8.27496 0.626659C8.98546 0.933103 9.60282 1.34863 10.127 1.87324C10.6513 2.39785 11.067 3.01521 11.3742 3.72533C11.6814 4.43544 11.8345 5.19377 11.8333 6.00033C11.8321 6.80688 11.6789 7.56521 11.3736 8.27533C11.0683 8.98544 10.6528 9.6028 10.127 10.1274C9.60127 10.652 8.9839 11.0677 8.27496 11.3746C7.56602 11.6814 6.80768 11.8344 5.99996 11.8337Z" fill="white"/>
</svg>
