<svg width="26" height="27" viewBox="0 0 26 27" fill="none" xmlns="http://www.w3.org/2000/svg">
<path d="M12.9511 21.4813H22.0311C22.3847 21.5011 22.7375 21.43 23.0558 21.2748C23.3741 21.1196 23.6474 20.8855 23.8495 20.5947C24.0517 20.3039 24.176 19.9662 24.2106 19.6137C24.2452 19.2613 24.1889 18.9058 24.0471 18.5813C23.5671 17.1306 21.6538 15.3906 21.6538 13.6786C21.6538 9.87863 21.6538 8.87863 19.7831 6.64396C19.177 5.92453 18.4254 5.34153 17.5778 4.9333L16.5338 4.42663C16.3586 4.3209 16.2075 4.17967 16.0902 4.01205C15.9728 3.84442 15.8919 3.65409 15.8525 3.4533C15.7481 2.77651 15.3903 2.16474 14.8515 1.74208C14.3127 1.31942 13.6333 1.11751 12.9511 1.1773C12.2814 1.13738 11.6207 1.34841 11.0981 1.76921C10.5755 2.19002 10.2284 2.79042 10.1245 3.4533C10.0776 3.6609 9.98574 3.85567 9.85534 4.02386C9.72493 4.19205 9.55918 4.32954 9.3698 4.42663L8.32447 4.9333C7.47785 5.34185 6.72721 5.92483 6.1218 6.64396C4.25113 8.87863 4.25113 9.87863 4.25113 13.6786C4.25113 15.3906 2.42447 16.956 1.94447 18.4933C1.65513 19.4226 1.49513 21.4813 3.9178 21.4813H12.9511Z" stroke="white" stroke-width="2" stroke-linecap="round" stroke-linejoin="round"/>
<path d="M17.3039 21.4814C17.3161 22.0562 17.2118 22.6276 16.9974 23.161C16.783 23.6944 16.4629 24.179 16.0563 24.5854C15.6497 24.9919 15.165 25.3119 14.6315 25.5261C14.098 25.7404 13.5267 25.8445 12.9519 25.8321C12.3773 25.8443 11.8061 25.7401 11.2728 25.5257C10.7396 25.3114 10.2552 24.9914 9.84883 24.5849C9.44248 24.1784 9.12259 23.6939 8.90841 23.1606C8.69423 22.6272 8.59019 22.0561 8.60255 21.4814" stroke="white" stroke-width="2" stroke-linecap="round" stroke-linejoin="round"/>
</svg>
