<svg width="23" height="25" viewBox="0 0 23 25" fill="none" xmlns="http://www.w3.org/2000/svg">
<path d="M11.3402 19.5616H19.5041C19.822 19.5795 20.1392 19.5156 20.4254 19.376C20.7116 19.2365 20.9573 19.0259 21.1391 18.7645C21.3208 18.503 21.4326 18.1994 21.4637 17.8825C21.4948 17.5656 21.4442 17.246 21.3167 16.9542C20.8852 15.6499 19.1649 14.0855 19.1649 12.5462C19.1649 9.12959 19.1649 8.23048 17.4817 6.22127C16.9371 5.57455 16.2617 5.05038 15.5001 4.68319L14.5614 4.22765C14.4039 4.13258 14.268 4.0056 14.1625 3.85489C14.057 3.70417 13.9842 3.53305 13.9488 3.35251C13.855 2.74401 13.5332 2.19396 13.0488 1.81394C12.5644 1.43393 11.9536 1.25239 11.3402 1.30614C10.7379 1.26998 10.1438 1.45961 9.67387 1.83801C9.20392 2.21641 8.89189 2.75639 8.79873 3.35251C8.75647 3.53928 8.67368 3.71447 8.55622 3.8657C8.43876 4.01693 8.2895 4.14049 8.119 4.22765L7.18033 4.68319C6.41913 5.05053 5.74422 5.57469 5.1999 6.22127C3.51796 8.23048 3.51796 9.12959 3.51796 12.5462C3.51796 14.0855 1.87559 15.4929 1.44402 16.8751C1.18388 17.7107 1.04002 19.5616 3.21826 19.5616H11.3402Z" stroke="#363333" stroke-width="1.79822" stroke-linecap="round" stroke-linejoin="round"/>
<path d="M15.2519 19.5625C15.2622 20.079 15.168 20.5923 14.9751 21.0715C14.7821 21.5508 14.4944 21.9861 14.1291 22.3514C13.7638 22.7167 13.3284 23.0044 12.8492 23.1974C12.37 23.3903 11.8567 23.4845 11.3402 23.4742C10.8235 23.4852 10.31 23.3915 9.83054 23.1988C9.35107 23.006 8.91555 22.7183 8.5502 22.3528C8.18485 21.9874 7.89723 21.5518 7.70466 21.0722C7.51209 20.5927 7.41854 20.0791 7.42966 19.5625" stroke="#363333" stroke-width="1.79822" stroke-linecap="round" stroke-linejoin="round"/>
</svg>
