<svg width="26" height="27" viewBox="0 0 26 27" fill="none" xmlns="http://www.w3.org/2000/svg">
<path d="M12.9493 21.4813H22.0293C22.3829 21.5011 22.7357 21.43 23.054 21.2748C23.3723 21.1196 23.6456 20.8855 23.8477 20.5947C24.0499 20.3039 24.1741 19.9662 24.2087 19.6137C24.2433 19.2613 24.1871 18.9058 24.0453 18.5813C23.5653 17.1306 21.652 15.3906 21.652 13.6786C21.652 9.87863 21.652 8.87863 19.7813 6.64396C19.1751 5.92453 18.4235 5.34153 17.576 4.9333L16.532 4.42663C16.3568 4.3209 16.2057 4.17967 16.0883 4.01205C15.971 3.84442 15.89 3.65409 15.8506 3.4533C15.7463 2.77651 15.3884 2.16474 14.8496 1.74208C14.3109 1.31942 13.6315 1.11751 12.9493 1.1773C12.2795 1.13738 11.6189 1.34841 11.0963 1.76921C10.5737 2.19002 10.2265 2.79042 10.1226 3.4533C10.0758 3.6609 9.98391 3.85567 9.85351 4.02386C9.7231 4.19205 9.55735 4.32954 9.36797 4.42663L8.32264 4.9333C7.47602 5.34185 6.72537 5.92483 6.11997 6.64396C4.2493 8.87863 4.2493 9.87863 4.2493 13.6786C4.2493 15.3906 2.42264 16.956 1.94264 18.4933C1.6533 19.4226 1.4933 21.4813 3.91597 21.4813H12.9493Z" stroke="#44546F" stroke-width="2" stroke-linecap="round" stroke-linejoin="round"/>
<path d="M17.3013 21.4812C17.3135 22.056 17.2093 22.6273 16.9948 23.1607C16.7804 23.6942 16.4603 24.1787 16.0537 24.5852C15.6471 24.9917 15.1625 25.3117 14.629 25.5259C14.0955 25.7402 13.5241 25.8442 12.9493 25.8319C12.3747 25.8441 11.8036 25.7398 11.2703 25.5255C10.737 25.3111 10.2526 24.9911 9.84626 24.5846C9.43992 24.1782 9.12003 23.6937 8.90585 23.1603C8.69166 22.627 8.58762 22.0558 8.59998 21.4812" stroke="#44546F" stroke-width="2" stroke-linecap="round" stroke-linejoin="round"/>
</svg>
