<svg width="18" height="18" viewBox="0 0 18 18" fill="none" xmlns="http://www.w3.org/2000/svg">
<path d="M6.86605 14.5054C5.00344 14.5054 3.40949 13.881 2.08421 12.6323C0.758215 11.3828 0.0952148 9.84088 0.0952148 8.00643V1.25618C0.0952148 0.965851 0.203187 0.712712 0.419131 0.496768C0.635076 0.280824 0.888215 0.172852 1.17855 0.172852H14.4494C15.2742 0.172852 15.9769 0.449462 16.5575 1.00268C17.1382 1.55446 17.4285 2.23624 17.4285 3.04802C17.4285 3.90024 17.1418 4.62716 16.5684 5.22877C15.9949 5.83038 15.2886 6.13118 14.4494 6.13118H13.4289V8.00535C13.4289 9.81307 12.7901 11.3485 11.5125 12.6117C10.2349 13.8749 8.68605 14.5061 6.86605 14.5054ZM1.17855 5.04785H12.3455V1.25618H1.17855V5.04785ZM13.4289 5.04785H14.4494C14.9838 5.04785 15.4334 4.85177 15.7981 4.4596C16.1629 4.06743 16.3452 3.59691 16.3452 3.04802C16.3452 2.54102 16.156 2.11563 15.7775 1.77185C15.3991 1.42807 14.9564 1.25618 14.4494 1.25618H13.4289V5.04785ZM0.0952148 17.5062V16.4228H15.2619V17.5062H0.0952148Z" fill="#44546F"/>
</svg>
