<svg width="37" height="37" viewBox="0 0 37 37" fill="none" xmlns="http://www.w3.org/2000/svg">
<path d="M14.4517 30.8291C10.4867 30.8291 7.12358 29.4485 4.36232 26.6872C1.60105 23.9259 0.219739 20.5621 0.218384 16.5958V0.329102H29.7017C31.6673 0.329102 33.3448 1.02382 34.7342 2.41327C36.1237 3.80271 36.8184 5.48021 36.8184 7.44577C36.8184 9.41132 36.1237 11.0888 34.7342 12.4783C33.3448 13.8677 31.6673 14.5624 29.7017 14.5624H28.6851V16.5958C28.6851 20.5608 27.3044 23.9246 24.5431 26.6872C21.7819 29.4498 18.4181 30.8305 14.4517 30.8291ZM4.28505 10.4958H24.6184V4.39577H4.28505V10.4958ZM14.4517 26.7624C17.2645 26.7624 19.6625 25.7708 21.6457 23.7877C23.6288 21.8045 24.6197 19.4072 24.6184 16.5958V14.5624H4.28505V16.5958C4.28505 19.4085 5.27664 21.8065 7.25982 23.7897C9.24299 25.7729 11.6403 26.7638 14.4517 26.7624ZM28.6851 10.4958H29.7017C30.5489 10.4958 31.2694 10.1996 31.8631 9.6072C32.4569 9.01482 32.7531 8.29435 32.7517 7.44577C32.7504 6.59719 32.4542 5.87739 31.8631 5.28637C31.2721 4.69535 30.5516 4.39848 29.7017 4.39577H28.6851V10.4958ZM0.218384 36.9291V32.8624H32.7517V36.9291H0.218384Z" fill="#44546F"/>
</svg>
