<svg width="33" height="32" viewBox="0 0 33 32" fill="none" xmlns="http://www.w3.org/2000/svg">
<path d="M2.91675 16.0007C2.91675 10.9727 2.91675 8.45798 4.47941 6.89665C6.04208 5.33532 8.55542 5.33398 13.5834 5.33398H18.9167C23.9447 5.33398 26.4594 5.33398 28.0207 6.89665C29.5821 8.45932 29.5834 10.9727 29.5834 16.0007V18.6673C29.5834 23.6953 29.5834 26.21 28.0207 27.7713C26.4581 29.3327 23.9447 29.334 18.9167 29.334H13.5834C8.55542 29.334 6.04075 29.334 4.47941 27.7713C2.91808 26.2087 2.91675 23.6953 2.91675 18.6673V16.0007Z" stroke="#44546F" stroke-width="2"/>
<path d="M9.5835 5.33398V3.33398M22.9168 5.33398V3.33398M3.5835 12.0007H28.9168" stroke="#44546F" stroke-width="2" stroke-linecap="round"/>
<path d="M23 14C23.5523 14 24 14.4477 24 15C24 15.5523 23.5523 16 23 16L17 16C16.4477 16 16 15.5523 16 15C16 14.4477 16.4477 14 17 14L23 14Z" fill="#44546F"/>
<path d="M14 25C14.5523 25 15 25.4477 15 26C15 26.5523 14.5523 27 14 27H9C8.44772 27 8 26.5523 8 26C8 25.4477 8.44772 25 9 25H14Z" fill="#44546F"/>
<path d="M23 17.5C23.5523 17.5 24 17.9477 24 18.5C24 19.0523 23.5523 19.5 23 19.5L9 19.5C8.44772 19.5 8 19.0523 8 18.5C8 17.9477 8.44772 17.5 9 17.5L23 17.5Z" fill="#44546F"/>
<path d="M23 21C23.5523 21 24 21.4477 24 22C24 22.5523 23.5523 23 23 23L9 23C8.44772 23 8 22.5523 8 22C8 21.4477 8.44772 21 9 21L23 21Z" fill="#44546F"/>
</svg>
