<svg width="33" height="32" viewBox="0 0 33 32" fill="none" xmlns="http://www.w3.org/2000/svg">
<path d="M3.41675 16.0007C3.41675 10.9727 3.41675 8.45798 4.97941 6.89665C6.54208 5.33532 9.05542 5.33398 14.0834 5.33398H19.4167C24.4447 5.33398 26.9594 5.33398 28.5207 6.89665C30.0821 8.45932 30.0834 10.9727 30.0834 16.0007V18.6673C30.0834 23.6953 30.0834 26.21 28.5207 27.7713C26.9581 29.3327 24.4447 29.334 19.4167 29.334H14.0834C9.05542 29.334 6.54075 29.334 4.97941 27.7713C3.41808 26.2087 3.41675 23.6953 3.41675 18.6673V16.0007Z" stroke="#44546F" stroke-width="2"/>
<path d="M10.0835 5.33398V3.33398M23.4168 5.33398V3.33398M4.0835 12.0007H29.4168" stroke="#44546F" stroke-width="2" stroke-linecap="round"/>
<path d="M23.5 17.5C24.0523 17.5 24.5 17.9477 24.5 18.5C24.5 19.0523 24.0523 19.5 23.5 19.5L9.5 19.5C8.94772 19.5 8.5 19.0523 8.5 18.5C8.5 17.9477 8.94772 17.5 9.5 17.5L23.5 17.5Z" fill="#44546F"/>
</svg>
