<svg width="29" height="28" viewBox="0 0 29 28" fill="none" xmlns="http://www.w3.org/2000/svg">
<path d="M0.25 5.83333C0.25 4.28624 0.864582 2.80251 1.95854 1.70854C3.05251 0.614582 4.53624 0 6.08333 0H22.4167C23.9638 0 25.4475 0.614582 26.5415 1.70854C27.6354 2.80251 28.25 4.28624 28.25 5.83333V22.1667C28.25 23.7138 27.6354 25.1975 26.5415 26.2915C25.4475 27.3854 23.9638 28 22.4167 28H6.08333C4.53624 28 3.05251 27.3854 1.95854 26.2915C0.864582 25.1975 0.25 23.7138 0.25 22.1667V5.83333ZM6.08333 2.33333C5.15508 2.33333 4.26484 2.70208 3.60846 3.35846C2.95208 4.01484 2.58333 4.90508 2.58333 5.83333V22.1667C2.58333 23.0949 2.95208 23.9852 3.60846 24.6415C4.26484 25.2979 5.15508 25.6667 6.08333 25.6667H22.4167C23.3449 25.6667 24.2352 25.2979 24.8915 24.6415C25.5479 23.9852 25.9167 23.0949 25.9167 22.1667V5.83333C25.9167 4.90508 25.5479 4.01484 24.8915 3.35846C24.2352 2.70208 23.3449 2.33333 22.4167 2.33333H6.08333ZM15.4167 19.8333C15.4167 19.5239 15.5396 19.2272 15.7584 19.0084C15.9772 18.7896 16.2739 18.6667 16.5833 18.6667H21.8333C22.1428 18.6667 22.4395 18.7896 22.6583 19.0084C22.8771 19.2272 23 19.5239 23 19.8333C23 20.1428 22.8771 20.4395 22.6583 20.6583C22.4395 20.8771 22.1428 21 21.8333 21H16.5833C16.2739 21 15.9772 20.8771 15.7584 20.6583C15.5396 20.4395 15.4167 20.1428 15.4167 19.8333ZM16.5833 9.33333C16.2739 9.33333 15.9772 9.45625 15.7584 9.67504C15.5396 9.89383 15.4167 10.1906 15.4167 10.5C15.4167 10.8094 15.5396 11.1062 15.7584 11.325C15.9772 11.5437 16.2739 11.6667 16.5833 11.6667H21.8333C22.1428 11.6667 22.4395 11.5437 22.6583 11.325C22.8771 11.1062 23 10.8094 23 10.5C23 10.1906 22.8771 9.89383 22.6583 9.67504C22.4395 9.45625 22.1428 9.33333 21.8333 9.33333H16.5833ZM12.7427 16.674C12.8513 16.7824 12.9375 16.9111 12.9963 17.0529C13.0551 17.1946 13.0854 17.3465 13.0854 17.5C13.0854 17.6535 13.0551 17.8054 12.9963 17.9471C12.9375 18.0889 12.8513 18.2176 12.7427 18.326L9.24267 21.826C9.13429 21.9346 9.00555 22.0208 8.86381 22.0797C8.72207 22.1385 8.57012 22.1688 8.41667 22.1688C8.26321 22.1688 8.11126 22.1385 7.96952 22.0797C7.82778 22.0208 7.69904 21.9346 7.59067 21.826L5.84533 20.0807C5.73686 19.9722 5.65082 19.8434 5.59211 19.7017C5.53341 19.56 5.50319 19.4081 5.50319 19.2547C5.50319 19.1013 5.53341 18.9494 5.59211 18.8076C5.65082 18.6659 5.73686 18.5371 5.84533 18.4287C6.0644 18.2096 6.36152 18.0865 6.67133 18.0865C6.82474 18.0865 6.97664 18.1167 7.11836 18.1754C7.26009 18.2341 7.38886 18.3202 7.49733 18.4287L8.41667 19.3503L11.0907 16.674C11.199 16.5654 11.3278 16.4792 11.4695 16.4203C11.6113 16.3615 11.7632 16.3312 11.9167 16.3312C12.0701 16.3312 12.2221 16.3615 12.3638 16.4203C12.5056 16.4792 12.6343 16.5654 12.7427 16.674ZM12.7427 8.99267C12.8511 8.88419 12.9372 8.75542 12.9959 8.6137C13.0546 8.47197 13.0848 8.32007 13.0848 8.16667C13.0848 8.01326 13.0546 7.86136 12.9959 7.71964C12.9372 7.57791 12.8511 7.44914 12.7427 7.34067C12.6342 7.23219 12.5054 7.14615 12.3637 7.08744C12.222 7.02874 12.0701 6.99853 11.9167 6.99853C11.7633 6.99853 11.6114 7.02874 11.4696 7.08744C11.3279 7.14615 11.1991 7.23219 11.0907 7.34067L8.41667 10.017L7.49733 9.09533C7.27826 8.87626 6.98114 8.75319 6.67133 8.75319C6.36152 8.75319 6.0644 8.87626 5.84533 9.09533C5.62627 9.3144 5.50319 9.61152 5.50319 9.92133C5.50319 10.2311 5.62626 10.5283 5.84533 10.7473L7.59067 12.4927C7.69904 12.6013 7.82778 12.6875 7.96952 12.7463C8.11126 12.8051 8.26321 12.8354 8.41667 12.8354C8.57012 12.8354 8.72207 12.8051 8.86381 12.7463C9.00555 12.6875 9.13429 12.6013 9.24267 12.4927L12.7427 8.99267Z" fill="#44546F"/>
</svg>
