<svg width="23" height="22" viewBox="0 0 23 22" fill="none" xmlns="http://www.w3.org/2000/svg">
<path d="M1 10.7428C1 6.87516 1 4.9408 2.20205 3.73977C3.4041 2.53875 5.33744 2.53772 9.20513 2.53772H13.3077C17.1754 2.53772 19.1097 2.53772 20.3108 3.73977C21.5118 4.94182 21.5128 6.87516 21.5128 10.7428V12.7941C21.5128 16.6618 21.5128 18.5962 20.3108 19.7972C19.1087 20.9982 17.1754 20.9993 13.3077 20.9993H9.20513C5.33744 20.9993 3.40308 20.9993 2.20205 19.7972C1.00103 18.5952 1 16.6618 1 12.7941V10.7428Z" stroke="#827F7F" stroke-width="1.68"/>
<path d="M6.12832 2.53773V0.999268M16.3847 2.53773V0.999268M1.51294 7.66593H21.0001" stroke="#827F7F" stroke-width="1.68" stroke-linecap="round"/>
<path d="M17.4102 15.8711C17.4102 16.1431 17.3022 16.404 17.1098 16.5964C16.9175 16.7887 16.6566 16.8968 16.3846 16.8968C16.1126 16.8968 15.8517 16.7887 15.6594 16.5964C15.467 16.404 15.3589 16.1431 15.3589 15.8711C15.3589 15.5991 15.467 15.3382 15.6594 15.1459C15.8517 14.9535 16.1126 14.8455 16.3846 14.8455C16.6566 14.8455 16.9175 14.9535 17.1098 15.1459C17.3022 15.3382 17.4102 15.5991 17.4102 15.8711ZM17.4102 11.7686C17.4102 12.0406 17.3022 12.3015 17.1098 12.4938C16.9175 12.6861 16.6566 12.7942 16.3846 12.7942C16.1126 12.7942 15.8517 12.6861 15.6594 12.4938C15.467 12.3015 15.3589 12.0406 15.3589 11.7686C15.3589 11.4965 15.467 11.2357 15.6594 11.0433C15.8517 10.851 16.1126 10.7429 16.3846 10.7429C16.6566 10.7429 16.9175 10.851 17.1098 11.0433C17.3022 11.2357 17.4102 11.4965 17.4102 11.7686ZM12.282 15.8711C12.282 16.1431 12.174 16.404 11.9816 16.5964C11.7893 16.7887 11.5284 16.8968 11.2564 16.8968C10.9844 16.8968 10.7235 16.7887 10.5311 16.5964C10.3388 16.404 10.2307 16.1431 10.2307 15.8711C10.2307 15.5991 10.3388 15.3382 10.5311 15.1459C10.7235 14.9535 10.9844 14.8455 11.2564 14.8455C11.5284 14.8455 11.7893 14.9535 11.9816 15.1459C12.174 15.3382 12.282 15.5991 12.282 15.8711ZM12.282 11.7686C12.282 12.0406 12.174 12.3015 11.9816 12.4938C11.7893 12.6861 11.5284 12.7942 11.2564 12.7942C10.9844 12.7942 10.7235 12.6861 10.5311 12.4938C10.3388 12.3015 10.2307 12.0406 10.2307 11.7686C10.2307 11.4965 10.3388 11.2357 10.5311 11.0433C10.7235 10.851 10.9844 10.7429 11.2564 10.7429C11.5284 10.7429 11.7893 10.851 11.9816 11.0433C12.174 11.2357 12.282 11.4965 12.282 11.7686ZM7.15382 15.8711C7.15382 16.1431 7.04576 16.404 6.85342 16.5964C6.66107 16.7887 6.4002 16.8968 6.12818 16.8968C5.85616 16.8968 5.59529 16.7887 5.40294 16.5964C5.2106 16.404 5.10254 16.1431 5.10254 15.8711C5.10254 15.5991 5.2106 15.3382 5.40294 15.1459C5.59529 14.9535 5.85616 14.8455 6.12818 14.8455C6.4002 14.8455 6.66107 14.9535 6.85342 15.1459C7.04576 15.3382 7.15382 15.5991 7.15382 15.8711ZM7.15382 11.7686C7.15382 12.0406 7.04576 12.3015 6.85342 12.4938C6.66107 12.6861 6.4002 12.7942 6.12818 12.7942C5.85616 12.7942 5.59529 12.6861 5.40294 12.4938C5.2106 12.3015 5.10254 12.0406 5.10254 11.7686C5.10254 11.4965 5.2106 11.2357 5.40294 11.0433C5.59529 10.851 5.85616 10.7429 6.12818 10.7429C6.4002 10.7429 6.66107 10.851 6.85342 11.0433C7.04576 11.2357 7.15382 11.4965 7.15382 11.7686Z" fill="#827F7F"/>
</svg>
