<svg width="12" height="13" viewBox="0 0 12 13" fill="none" xmlns="http://www.w3.org/2000/svg">
<path fill-rule="evenodd" clip-rule="evenodd" d="M9.50016 1.84595H2.50016C1.88132 1.84595 1.28783 2.09178 0.850247 2.52936C0.412663 2.96695 0.16683 3.56044 0.16683 4.17928V10.0126C0.16683 10.6315 0.412663 11.2249 0.850247 11.6625C1.28783 12.1001 1.88132 12.3459 2.50016 12.3459H9.50016C10.119 12.3459 10.7125 12.1001 11.1501 11.6625C11.5877 11.2249 11.8335 10.6315 11.8335 10.0126V4.17928C11.8335 3.56044 11.5877 2.96695 11.1501 2.52936C10.7125 2.09178 10.119 1.84595 9.50016 1.84595ZM9.50016 3.01261C9.80958 3.01261 10.1063 3.13553 10.3251 3.35432C10.5439 3.57311 10.6668 3.86986 10.6668 4.17928V10.0126C10.6668 10.322 10.5439 10.6188 10.3251 10.8376C10.1063 11.0564 9.80958 11.1793 9.50016 11.1793H2.50016C2.19074 11.1793 1.894 11.0564 1.67521 10.8376C1.45641 10.6188 1.3335 10.322 1.3335 10.0126V4.17928C1.3335 3.86986 1.45641 3.57311 1.67521 3.35432C1.894 3.13553 2.19074 3.01261 2.50016 3.01261H9.50016Z" fill="#006EC2"/>
<path fill-rule="evenodd" clip-rule="evenodd" d="M11.25 5.34587C11.25 5.19116 11.1885 5.04278 11.0791 4.93339C10.9697 4.82399 10.8214 4.76253 10.6667 4.76253H1.33333C1.17862 4.76253 1.03025 4.82399 0.920855 4.93339C0.811458 5.04278 0.75 5.19116 0.75 5.34587C0.75 5.50058 0.811458 5.64895 0.920855 5.75834C1.03025 5.86774 1.17862 5.9292 1.33333 5.9292H10.6667C10.8214 5.9292 10.9697 5.86774 11.0791 5.75834C11.1885 5.64895 11.25 5.50058 11.25 5.34587ZM8.33333 0.679199C8.17862 0.679199 8.03025 0.740657 7.92085 0.850054C7.81146 0.95945 7.75 1.10782 7.75 1.26253V3.59587C7.75 3.75058 7.81146 3.89895 7.92085 4.00834C8.03025 4.11774 8.17862 4.1792 8.33333 4.1792C8.48804 4.1792 8.63642 4.11774 8.74581 4.00834C8.85521 3.89895 8.91667 3.75058 8.91667 3.59587V1.26253C8.91667 1.10782 8.85521 0.95945 8.74581 0.850054C8.63642 0.740657 8.48804 0.679199 8.33333 0.679199ZM3.66667 0.679199C3.51196 0.679199 3.36358 0.740657 3.25419 0.850054C3.14479 0.95945 3.08333 1.10782 3.08333 1.26253V3.59587C3.08333 3.75058 3.14479 3.89895 3.25419 4.00834C3.36358 4.11774 3.51196 4.1792 3.66667 4.1792C3.82138 4.1792 3.96975 4.11774 4.07915 4.00834C4.18854 3.89895 4.25 3.75058 4.25 3.59587V1.26253C4.25 1.10782 4.18854 0.95945 4.07915 0.850054C3.96975 0.740657 3.82138 0.679199 3.66667 0.679199Z" fill="#006EC2"/>
<path d="M8.33333 7.09578C8.33333 7.25049 8.39479 7.39887 8.50419 7.50826C8.61358 7.61766 8.76196 7.67912 8.91667 7.67912C9.07138 7.67912 9.21975 7.61766 9.32915 7.50826C9.43854 7.39887 9.5 7.25049 9.5 7.09578C9.5 6.94107 9.43854 6.7927 9.32915 6.68331C9.21975 6.57391 9.07138 6.51245 8.91667 6.51245C8.76196 6.51245 8.61358 6.57391 8.50419 6.68331C8.39479 6.7927 8.33333 6.94107 8.33333 7.09578ZM8.33333 9.42912C8.33333 9.58383 8.39479 9.7322 8.50419 9.8416C8.61358 9.95099 8.76196 10.0125 8.91667 10.0125C9.07138 10.0125 9.21975 9.95099 9.32915 9.8416C9.43854 9.7322 9.5 9.58383 9.5 9.42912C9.5 9.27441 9.43854 9.12603 9.32915 9.01664C9.21975 8.90724 9.07138 8.84578 8.91667 8.84578C8.76196 8.84578 8.61358 8.90724 8.50419 9.01664C8.39479 9.12603 8.33333 9.27441 8.33333 9.42912ZM5.41667 7.09578C5.41667 7.25049 5.47813 7.39887 5.58752 7.50826C5.69692 7.61766 5.84529 7.67912 6 7.67912C6.15471 7.67912 6.30308 7.61766 6.41248 7.50826C6.52188 7.39887 6.58333 7.25049 6.58333 7.09578C6.58333 6.94107 6.52188 6.7927 6.41248 6.68331C6.30308 6.57391 6.15471 6.51245 6 6.51245C5.84529 6.51245 5.69692 6.57391 5.58752 6.68331C5.47813 6.7927 5.41667 6.94107 5.41667 7.09578ZM5.41667 9.42912C5.41667 9.58383 5.47813 9.7322 5.58752 9.8416C5.69692 9.95099 5.84529 10.0125 6 10.0125C6.15471 10.0125 6.30308 9.95099 6.41248 9.8416C6.52188 9.7322 6.58333 9.58383 6.58333 9.42912C6.58333 9.27441 6.52188 9.12603 6.41248 9.01664C6.30308 8.90724 6.15471 8.84578 6 8.84578C5.84529 8.84578 5.69692 8.90724 5.58752 9.01664C5.47813 9.12603 5.41667 9.27441 5.41667 9.42912ZM2.5 7.09578C2.5 7.25049 2.56146 7.39887 2.67085 7.50826C2.78025 7.61766 2.92862 7.67912 3.08333 7.67912C3.23804 7.67912 3.38642 7.61766 3.49581 7.50826C3.60521 7.39887 3.66667 7.25049 3.66667 7.09578C3.66667 6.94107 3.60521 6.7927 3.49581 6.68331C3.38642 6.57391 3.23804 6.51245 3.08333 6.51245C2.92862 6.51245 2.78025 6.57391 2.67085 6.68331C2.56146 6.7927 2.5 6.94107 2.5 7.09578ZM2.5 9.42912C2.5 9.58383 2.56146 9.7322 2.67085 9.8416C2.78025 9.95099 2.92862 10.0125 3.08333 10.0125C3.23804 10.0125 3.38642 9.95099 3.49581 9.8416C3.60521 9.7322 3.66667 9.58383 3.66667 9.42912C3.66667 9.27441 3.60521 9.12603 3.49581 9.01664C3.38642 8.90724 3.23804 8.84578 3.08333 8.84578C2.92862 8.84578 2.78025 8.90724 2.67085 9.01664C2.56146 9.12603 2.5 9.27441 2.5 9.42912Z" fill="#006EC2"/>
</svg>
