<svg width="38" height="36" viewBox="0 0 38 36" fill="none" xmlns="http://www.w3.org/2000/svg">
<path d="M19 25C21.8995 25 24.25 22.6495 24.25 19.75C24.25 16.8505 21.8995 14.5 19 14.5C16.1005 14.5 13.75 16.8505 13.75 19.75C13.75 22.6495 16.1005 25 19 25Z" stroke="#006EC2" stroke-width="2.625"/>
<path d="M15.1115 33.7501H22.8885C28.3503 33.7501 31.082 33.7501 33.0437 32.4638C33.8904 31.9093 34.6195 31.1933 35.1892 30.3568C36.5 28.4318 36.5 25.7491 36.5 20.3871C36.5 15.0251 36.5 12.3423 35.1892 10.4173C34.6195 9.58082 33.8904 8.86483 33.0437 8.31033C31.7837 7.48258 30.2052 7.18683 27.7885 7.08183C26.6352 7.08183 25.643 6.22433 25.4172 5.11308C25.2447 4.2991 24.7965 3.56964 24.1482 3.048C23.5 2.52635 22.6915 2.2445 21.8595 2.25008H16.1405C14.4115 2.25008 12.9223 3.44883 12.5828 5.11308C12.357 6.22433 11.3648 7.08183 10.2115 7.08183C7.7965 7.18683 6.218 7.48433 4.95625 8.31033C4.11019 8.86501 3.38173 9.58099 2.8125 10.4173C1.5 12.3423 1.5 15.0233 1.5 20.3871C1.5 25.7508 1.5 28.4301 2.81075 30.3568C3.37775 31.1898 4.10575 31.9056 4.95625 32.4638C6.918 33.7501 9.64975 33.7501 15.1115 33.7501Z" stroke="#006EC2" stroke-width="2.625"/>
<path d="M31.25 14.5H29.5" stroke="#006EC2" stroke-width="2.625" stroke-linecap="round"/>
</svg>
