<svg width="29" height="30" viewBox="0 0 29 30" fill="none" xmlns="http://www.w3.org/2000/svg">
<path d="M5.84421 6.16797C4.77114 6.16797 3.74203 6.59424 2.98326 7.35301C2.22449 8.11178 1.79822 9.1409 1.79822 10.214V20.1042C1.79822 21.1772 2.22449 22.2063 2.98326 22.9651C3.74203 23.7239 4.77114 24.1501 5.84421 24.1501H22.9273C24.0003 24.1501 25.0295 23.7239 25.7882 22.9651C26.547 22.2063 26.9733 21.1772 26.9733 20.1042V10.214C26.9733 9.1409 26.547 8.11178 25.7882 7.35301C25.0295 6.59424 24.0003 6.16797 22.9273 6.16797H5.84421ZM3.59644 10.214C3.59644 9.61781 3.83325 9.04608 4.25479 8.62454C4.67633 8.203 5.24806 7.96619 5.84421 7.96619H22.9273C23.5234 7.96619 24.0952 8.203 24.5167 8.62454C24.9382 9.04608 25.175 9.61781 25.175 10.214V20.1042C25.175 20.3993 25.1169 20.6916 25.0039 20.9643C24.891 21.2371 24.7254 21.4848 24.5167 21.6936C24.308 21.9023 24.0602 22.0679 23.7875 22.1808C23.5147 22.2938 23.2225 22.3519 22.9273 22.3519H5.84421C5.54903 22.3519 5.25674 22.2938 4.98402 22.1808C4.71131 22.0679 4.46352 21.9023 4.25479 21.6936C4.04607 21.4848 3.8805 21.2371 3.76754 20.9643C3.65458 20.6916 3.59644 20.3993 3.59644 20.1042V10.214ZM6.92943 12.7252C6.75986 12.5614 6.53274 12.4708 6.297 12.4728C6.06125 12.4749 5.83575 12.5694 5.66904 12.7361C5.50234 12.9028 5.40778 13.1283 5.40574 13.3641C5.40369 13.5998 5.49431 13.8269 5.65809 13.9965L6.82064 15.1591L5.65809 16.3216C5.57222 16.4045 5.50372 16.5038 5.4566 16.6135C5.40948 16.7231 5.38468 16.8411 5.38364 16.9605C5.3826 17.0799 5.40535 17.1983 5.45056 17.3088C5.49577 17.4193 5.56253 17.5197 5.64695 17.6041C5.73137 17.6885 5.83175 17.7553 5.94225 17.8005C6.05275 17.8457 6.17114 17.8684 6.29053 17.8674C6.40991 17.8664 6.52789 17.8416 6.63759 17.7944C6.74728 17.7473 6.84649 17.6788 6.92943 17.5929L8.09198 16.4304L9.25453 17.5929C9.4241 17.7567 9.65122 17.8474 9.88696 17.8453C10.1227 17.8433 10.3482 17.7487 10.5149 17.582C10.6816 17.4153 10.7762 17.1898 10.7782 16.954C10.7803 16.7183 10.6896 16.4912 10.5259 16.3216L9.36332 15.1591L10.5259 13.9965C10.6896 13.8269 10.7803 13.5998 10.7782 13.3641C10.7762 13.1283 10.6816 12.9028 10.5149 12.7361C10.3482 12.5694 10.1227 12.4749 9.88696 12.4728C9.65122 12.4708 9.4241 12.5614 9.25453 12.7252L8.09198 13.8877L6.92943 12.7252ZM12.4014 12.7252C12.57 12.5566 12.7987 12.4619 13.0371 12.4619C13.2755 12.4619 13.5041 12.5566 13.6727 12.7252L14.8353 13.8877L15.9978 12.7252C16.1674 12.5614 16.3945 12.4708 16.6303 12.4728C16.866 12.4749 17.0915 12.5694 17.2582 12.7361C17.4249 12.9028 17.5195 13.1283 17.5215 13.3641C17.5236 13.5998 17.433 13.8269 17.2692 13.9965L16.1066 15.1591L17.2692 16.3216C17.433 16.4912 17.5236 16.7183 17.5215 16.954C17.5195 17.1898 17.4249 17.4153 17.2582 17.582C17.0915 17.7487 16.866 17.8433 16.6303 17.8453C16.3945 17.8474 16.1674 17.7567 15.9978 17.5929L14.8353 16.4304L13.6727 17.5929C13.5032 17.7567 13.2761 17.8474 13.0403 17.8453C12.8046 17.8433 12.5791 17.7487 12.4124 17.582C12.2457 17.4153 12.1511 17.1898 12.1491 16.954C12.147 16.7183 12.2376 16.4912 12.4014 16.3216L13.564 15.1591L12.4014 13.9965C12.2329 13.8279 12.1382 13.5993 12.1382 13.3608C12.1382 13.1224 12.2329 12.8938 12.4014 12.7252ZM19.7804 16.0582C19.5419 16.0582 19.3132 16.1529 19.1446 16.3215C18.976 16.4901 18.8813 16.7188 18.8813 16.9573C18.8813 17.1957 18.976 17.4244 19.1446 17.593C19.3132 17.7617 19.5419 17.8564 19.7804 17.8564H22.4777C22.7162 17.8564 22.9449 17.7617 23.1135 17.593C23.2821 17.4244 23.3768 17.1957 23.3768 16.9573C23.3768 16.7188 23.2821 16.4901 23.1135 16.3215C22.9449 16.1529 22.7162 16.0582 22.4777 16.0582H19.7804Z" fill="#363333"/>
</svg>
