<svg width="12" height="13" viewBox="0 0 12 13" fill="none" xmlns="http://www.w3.org/2000/svg">
<path d="M5.99996 0.553711C2.79163 0.553711 0.166626 3.17871 0.166626 6.38704C0.166626 9.59538 2.79163 12.2204 5.99996 12.2204C9.20829 12.2204 11.8333 9.59538 11.8333 6.38704C11.8333 3.17871 9.20829 0.553711 5.99996 0.553711ZM5.99996 11.0537C3.42746 11.0537 1.33329 8.95954 1.33329 6.38704C1.33329 3.81454 3.42746 1.72038 5.99996 1.72038C8.57246 1.72038 10.6666 3.81454 10.6666 6.38704C10.6666 8.95954 8.57246 11.0537 5.99996 11.0537ZM8.67746 3.80871L4.83329 7.65288L3.32246 6.14788L2.49996 6.97038L4.83329 9.30371L9.49996 4.63704L8.67746 3.80871Z" fill="#4BCE97"/>
</svg>
