<svg width="14" height="14" viewBox="0 0 14 14" fill="none" xmlns="http://www.w3.org/2000/svg">
<path fill-rule="evenodd" clip-rule="evenodd" d="M7 1.8683C6.32847 1.8683 5.66351 2.00057 5.0431 2.25755C4.42268 2.51453 3.85896 2.8912 3.38411 3.36605C2.90927 3.84089 2.5326 4.40461 2.27562 5.02503C2.01863 5.64544 1.88636 6.3104 1.88636 6.98193C1.88636 7.65347 2.01863 8.31842 2.27562 8.93884C2.5326 9.55925 2.90927 10.123 3.38411 10.5978C3.85896 11.0727 4.42268 11.4493 5.0431 11.7063C5.66351 11.9633 6.32847 12.0956 7 12.0956C8.35622 12.0956 9.65689 11.5568 10.6159 10.5978C11.5749 9.63883 12.1136 8.33815 12.1136 6.98193C12.1136 5.62571 11.5749 4.32504 10.6159 3.36605C9.65689 2.40705 8.35622 1.8683 7 1.8683ZM0.75 6.98193C0.75 3.53023 3.5483 0.731934 7 0.731934C10.4517 0.731934 13.25 3.53023 13.25 6.98193C13.25 10.4336 10.4517 13.2319 7 13.2319C3.5483 13.2319 0.75 10.4336 0.75 6.98193Z" fill="white" stroke="white" stroke-width="0.3"/>
<path fill-rule="evenodd" clip-rule="evenodd" d="M10.1864 5.27729L5.79662 9.66706L3.59094 7.03467L4.44947 6.29035L5.85628 8.00058L9.38299 4.47388L10.1864 5.27729Z" fill="white" stroke="white" stroke-width="0.3"/>
</svg>
