<svg width="24" height="25" viewBox="0 0 24 25" fill="none" xmlns="http://www.w3.org/2000/svg">
<path d="M19 4.16016C19.2472 4.16016 19.4443 4.22856 19.6279 4.38379L19.7061 4.45508C19.8864 4.63546 19.9766 4.82406 19.9961 5.05664L20 5.15918V19.1602C20 19.4431 19.9107 19.6602 19.7051 19.8662C19.526 20.0456 19.3382 20.1367 19.1045 20.1562L19.001 20.1602H5C4.71707 20.1602 4.50004 20.0713 4.29492 19.8662C4.11545 19.6867 4.02411 19.4976 4.00391 19.2627L4 19.1592V5.16016C4 4.91304 4.06786 4.71606 4.22266 4.5332L4.29492 4.45605C4.47569 4.27564 4.66471 4.18413 4.89844 4.16406L5.00098 4.16016H19Z" stroke="#091E42" stroke-opacity="0.14" stroke-width="2"/>
</svg>
