<svg width="24" height="25" viewBox="0 0 24 25" fill="none" xmlns="http://www.w3.org/2000/svg">
<path d="M10.6 16.6805L17.65 9.63047L16.25 8.23047L10.6 13.8805L7.75 11.0305L6.35 12.4305L10.6 16.6805ZM5 21.4805C4.45 21.4805 3.97933 21.2848 3.588 20.8935C3.19667 20.5021 3.00067 20.0311 3 19.4805V5.48047C3 4.93047 3.196 4.4598 3.588 4.06847C3.98 3.67714 4.45067 3.48114 5 3.48047H19C19.55 3.48047 20.021 3.67647 20.413 4.06847C20.805 4.46047 21.0007 4.93114 21 5.48047V19.4805C21 20.0305 20.8043 20.5015 20.413 20.8935C20.0217 21.2855 19.5507 21.4811 19 21.4805H5Z" fill="#006EC2"/>
</svg>
