<svg width="50" height="51" viewBox="0 0 50 51" fill="none" xmlns="http://www.w3.org/2000/svg">
<path d="M1.77258 25.5208C1.77258 28.5459 2.36841 31.5414 3.52606 34.3361C4.6837 37.1309 6.38048 39.6704 8.51952 41.8094C10.6586 43.9484 13.198 45.6452 15.9928 46.8029C18.7876 47.9605 21.783 48.5563 24.8081 48.5563C27.8331 48.5563 30.8286 47.9605 33.6234 46.8029C36.4182 45.6452 38.9576 43.9484 41.0966 41.8094C43.2357 39.6704 44.9325 37.1309 46.0901 34.3361C47.2477 31.5414 47.8436 28.5459 47.8436 25.5208C47.8436 19.4115 45.4166 13.5523 41.0966 9.23229C36.7766 4.9123 30.9175 2.48535 24.8081 2.48535C18.6987 2.48535 12.8395 4.9123 8.51952 9.23229C4.19953 13.5523 1.77258 19.4115 1.77258 25.5208Z" stroke="#44546F" stroke-width="3.02219" stroke-linecap="round" stroke-linejoin="round"/>
<path d="M24.8081 12.7246V25.5221L32.4866 33.2006" stroke="#44546F" stroke-width="3.02219" stroke-linecap="round" stroke-linejoin="round"/>
</svg>
