<svg width="50" height="50" viewBox="0 0 50 50" fill="none" xmlns="http://www.w3.org/2000/svg">
<path d="M1.81335 25.3058C1.81335 28.3255 2.40814 31.3157 3.56376 34.1056C4.71938 36.8956 6.41319 39.4305 8.54849 41.5658C10.6838 43.7011 13.2188 45.3949 16.0087 46.5506C18.7986 47.7062 21.7888 48.301 24.8086 48.301C27.8283 48.301 30.8185 47.7062 33.6084 46.5506C36.3984 45.3949 38.9333 43.7011 41.0686 41.5658C43.2039 39.4305 44.8978 36.8956 46.0534 34.1056C47.209 31.3157 47.8038 28.3255 47.8038 25.3058C47.8038 19.207 45.3811 13.3581 41.0686 9.04569C36.7562 4.73325 30.9073 2.31055 24.8086 2.31055C18.7099 2.31055 12.8609 4.73325 8.54849 9.04569C4.23606 13.3581 1.81335 19.207 1.81335 25.3058Z" stroke="white" stroke-width="3.01691" stroke-linecap="round" stroke-linejoin="round"/>
<path d="M24.8087 12.5312V25.3064L32.4738 32.9714" stroke="white" stroke-width="3.01691" stroke-linecap="round" stroke-linejoin="round"/>
</svg>
