<svg width="22" height="21" viewBox="0 0 22 21" fill="none" xmlns="http://www.w3.org/2000/svg">
<path d="M11.0112 15.5698C11.2983 15.5698 11.5392 15.4725 11.7337 15.2779C11.9283 15.0834 12.0253 14.8428 12.0246 14.5564C12.0239 14.27 11.9266 14.0294 11.7327 13.8349C11.5388 13.6403 11.2983 13.543 11.0112 13.543C10.7241 13.543 10.4836 13.6403 10.2897 13.8349C10.0958 14.0294 9.9985 14.27 9.99782 14.5564C9.99715 14.8428 10.0944 15.0837 10.2897 15.2789C10.4849 15.4742 10.7254 15.5711 11.0112 15.5698ZM11.0112 11.5163C11.2983 11.5163 11.5392 11.419 11.7337 11.2244C11.9283 11.0299 12.0253 10.7893 12.0246 10.5029V6.44939C12.0246 6.16227 11.9273 5.92176 11.7327 5.72787C11.5382 5.53398 11.2976 5.43669 11.0112 5.43602C10.7248 5.43534 10.4842 5.53263 10.2897 5.72787C10.0951 5.92311 9.99782 6.16362 9.99782 6.44939V10.5029C9.99782 10.79 10.0951 11.0309 10.2897 11.2254C10.4842 11.42 10.7248 11.5169 11.0112 11.5163ZM11.0112 20.6367C9.60936 20.6367 8.29198 20.3705 7.05903 19.8381C5.82609 19.3058 4.7536 18.5839 3.84157 17.6725C2.92953 16.7612 2.20767 15.6887 1.67598 14.4551C1.1443 13.2214 0.878118 11.9041 0.877443 10.5029C0.876767 9.10174 1.14295 7.78435 1.67598 6.55073C2.20902 5.31712 2.93088 4.24463 3.84157 3.33326C4.75225 2.4219 5.82474 1.70004 7.05903 1.16768C8.29333 0.635321 9.61071 0.369141 11.0112 0.369141C12.4117 0.369141 13.7291 0.635321 14.9634 1.16768C16.1977 1.70004 17.2701 2.4219 18.1808 3.33326C19.0915 4.24463 19.8137 5.31712 20.3474 6.55073C20.8811 7.78435 21.147 9.10174 21.145 10.5029C21.1429 11.9041 20.8767 13.2214 20.3464 14.4551C19.8161 15.6887 19.0942 16.7612 18.1808 17.6725C17.2674 18.5839 16.195 19.3061 14.9634 19.8391C13.7318 20.3722 12.4144 20.638 11.0112 20.6367ZM11.0112 18.6099C13.2744 18.6099 15.1914 17.8245 16.7621 16.2538C18.3328 14.6831 19.1182 12.7661 19.1182 10.5029C19.1182 8.23969 18.3328 6.32272 16.7621 4.75199C15.1914 3.18126 13.2744 2.39589 11.0112 2.39589C8.74799 2.39589 6.83102 3.18126 5.26029 4.75199C3.68956 6.32272 2.90419 8.23969 2.90419 10.5029C2.90419 12.7661 3.68956 14.6831 5.26029 16.2538C6.83102 17.8245 8.74799 18.6099 11.0112 18.6099Z" fill="white"/>
</svg>
