<svg width="34" height="38" viewBox="0 0 34 38" fill="none" xmlns="http://www.w3.org/2000/svg">
<path d="M9.12492 4.125C6.40192 4.20725 4.77967 4.51 3.65617 5.6335C2.11792 7.1735 2.11792 9.64975 2.11792 14.604V25.9895C2.11792 30.9455 2.11792 33.4218 3.65617 34.9618C5.19267 36.5 7.66892 36.5 12.6179 36.5H21.3679C26.3187 36.5 28.7932 36.5 30.3297 34.96C31.8697 33.4218 31.8697 30.9455 31.8697 25.9895V14.604C31.8697 9.6515 31.8697 7.1735 30.3297 5.6335C29.2079 4.51 27.5839 4.20725 24.8609 4.125" stroke="#006EC2" stroke-width="2.625" stroke-linecap="round" stroke-linejoin="round"/>
<path d="M19.625 17.25H25.75M8.25 19C8.25 19 9.125 19 10 20.75C10 20.75 12.779 16.375 15.25 15.5M19.625 27.75H25.75M10 27.75H11.75M9.118 4.5625C9.118 2.872 10.49 1.5 12.1805 1.5H21.8055C22.6177 1.5 23.3967 1.82266 23.971 2.39699C24.5453 2.97132 24.868 3.75027 24.868 4.5625C24.868 5.37473 24.5453 6.15368 23.971 6.72801C23.3967 7.30234 22.6177 7.625 21.8055 7.625H12.1805C11.3683 7.625 10.5893 7.30234 10.015 6.72801C9.44066 6.15368 9.118 5.37473 9.118 4.5625Z" stroke="#006EC2" stroke-width="2.625" stroke-linecap="round" stroke-linejoin="round"/>
</svg>
