<svg width="350" height="302" viewBox="0 0 350 302" fill="none" xmlns="http://www.w3.org/2000/svg">
<mask id="mask0_189_6640" style="mask-type:luminance" maskUnits="userSpaceOnUse" x="27" y="64" width="57" height="57">
<path d="M55.1882 120.92C70.7125 120.92 83.2974 108.336 83.2974 92.8113C83.2974 77.287 70.7125 64.7021 55.1882 64.7021C39.664 64.7021 27.0791 77.287 27.0791 92.8113C27.0791 108.336 39.664 120.92 55.1882 120.92Z" fill="white"/>
</mask>
<g mask="url(#mask0_189_6640)">
<path d="M55.1882 120.92C70.7125 120.92 83.2974 108.336 83.2974 92.8113C83.2974 77.287 70.7125 64.7021 55.1882 64.7021C39.664 64.7021 27.0791 77.287 27.0791 92.8113C27.0791 108.336 39.664 120.92 55.1882 120.92Z" fill="#006EC2" stroke="#020000" stroke-width="0.116028" stroke-miterlimit="10"/>
<path d="M64.6396 108.701C105.509 106.729 97.2855 111.056 106.301 97.0333C113.192 86.4357 120.578 74.2136 123.106 72.2091C133.335 69.2045 147.953 63.5242 144.855 66.5391C145.399 68.7014 129.066 75.5604 128.662 76.5304C125.059 84.4394 111.746 116.02 109.936 118.896C105.411 126.05 78.1839 124.761 68.6003 127.28C68.4536 128.772 65.7527 110.53 65.5282 110.236" fill="#FFF2E5"/>
<mask id="mask1_189_6640" style="mask-type:luminance" maskUnits="userSpaceOnUse" x="64" y="65" width="82" height="63">
<path d="M64.6396 108.701C105.509 106.729 97.2855 111.056 106.301 97.0333C113.192 86.4357 120.578 74.2136 123.106 72.2091C133.335 69.2045 147.953 63.5242 144.855 66.5391C145.399 68.7014 129.066 75.5604 128.662 76.5304C125.059 84.4394 111.746 116.02 109.936 118.896C105.411 126.05 78.1839 124.761 68.6003 127.28C68.4536 128.772 65.7527 110.53 65.5282 110.236" fill="white"/>
</mask>
<g mask="url(#mask1_189_6640)">
<path d="M91.3497 132.918C97.2202 119.507 88.4552 106.473 88.4552 106.473L83.147 130.219L91.3497 132.918Z" fill="#F39536"/>
</g>
<path d="M64.6396 108.701C105.509 106.729 97.2855 111.056 106.301 97.0333C113.192 86.4357 120.578 74.2136 123.106 72.2091C133.335 69.2045 147.953 63.5242 144.855 66.5391C145.399 68.7014 129.066 75.5604 128.662 76.5304C125.059 84.4394 111.746 116.02 109.936 118.896C105.411 126.05 78.1839 124.761 68.6003 127.28C68.4536 128.772 65.7527 110.53 65.5282 110.236" stroke="#020000" stroke-width="0.116028" stroke-miterlimit="10"/>
<path d="M88.4548 106.473C95.0973 107.717 92.1189 138.196 85.969 142.863C79.8191 147.529 53.251 135.272 53.251 135.272L57.7204 104.838L88.4548 106.473Z" fill="white"/>
<mask id="mask2_189_6640" style="mask-type:luminance" maskUnits="userSpaceOnUse" x="53" y="104" width="40" height="40">
<path d="M88.4548 106.473C95.0973 107.717 92.1189 138.196 85.969 142.863C79.8191 147.529 53.251 135.272 53.251 135.272L57.7204 104.838L88.4548 106.473Z" fill="white"/>
</mask>
<g mask="url(#mask2_189_6640)">
<path d="M67.8434 123.906C86.0788 123.724 70.4923 126.593 73.694 131.06C76.8957 135.526 80.6311 154.423 85.9694 155.676C96.6459 158.182 57.2949 134.955 57.2949 134.955C55.6158 127.989 64.0356 110.199 67.84 109.481" fill="#DBF2FC"/>
<path d="M80.29 102.184C90.1501 114.384 83.3703 132.083 83.3703 132.083" stroke="#DBF2FC" stroke-width="0.780755" stroke-linecap="round" stroke-linejoin="round"/>
</g>
<path d="M88.4548 106.473C95.0973 107.717 92.1189 138.196 85.969 142.863C79.8191 147.529 53.251 135.272 53.251 135.272L57.7204 104.838L88.4548 106.473Z" stroke="#020000" stroke-width="0.116028" stroke-miterlimit="10"/>
<path d="M65.8939 105.222L36.7995 102.189L15.0293 156.193C32.1848 172.456 69.7547 167.71 69.7547 167.71C60.1184 147.749 75.4452 128.962 70.5907 118.087" fill="white"/>
<mask id="mask3_189_6640" style="mask-type:luminance" maskUnits="userSpaceOnUse" x="15" y="102" width="57" height="67">
<path d="M65.8939 105.222L36.7995 102.189L15.0293 156.193C32.1848 172.456 69.7547 167.71 69.7547 167.71C60.1184 147.749 75.4452 128.962 70.5907 118.087" fill="white"/>
</mask>
<g mask="url(#mask3_189_6640)">
<path d="M58.7356 109.605L57.7549 125.925C65.0882 128.124 60.9094 111.785 62.2083 109.201L58.7356 109.605Z" fill="#FFAD5B" stroke="#020000" stroke-width="0.116028" stroke-miterlimit="10"/>
</g>
<path d="M65.8939 105.222L36.7995 102.189L15.0293 156.193C32.1848 172.456 69.7547 167.71 69.7547 167.71C60.1184 147.749 75.4452 128.962 70.5907 118.087" stroke="#020000" stroke-width="0.116028" stroke-miterlimit="10"/>
<path d="M22.2751 116.957C-19.1914 210.869 -8.68293 191.665 -32.0707 196.877C-32.1599 198.794 -26.5377 201.711 -10.297 200.551C-3.73736 199.631 -5.56206 201.176 -1.90781 202.777C-0.125822 203.43 0.862568 203.344 0.116192 202.195C-9.34294 194.216 18.4313 166.58 20.981 159.611C19.5674 163.01 45.9495 122.852 42.1514 118.451L22.2751 116.957Z" fill="#FFF2E5"/>
<path d="M22.2751 116.957C-19.1914 210.869 -8.68293 191.665 -32.0707 196.877C-32.1599 198.794 -26.5377 201.711 -10.297 200.551C-3.73736 199.631 -5.56206 201.176 -1.90781 202.777C-0.125821 203.43 0.862566 203.344 0.116191 202.195C-9.34294 194.216 18.4313 166.58 20.981 159.611C19.5674 163.01 45.9495 122.852 42.1514 118.451L22.2751 116.957Z" stroke="#020000" stroke-width="0.116028" stroke-miterlimit="10"/>
<path d="M38.2183 102.284C26.5295 99.5076 11.1762 126.562 5.22705 132.603C14.3358 141.714 28.7535 147.534 35.1145 145.728C41.4754 143.922 45.8774 123.029 45.9495 122.852" fill="white"/>
<mask id="mask4_189_6640" style="mask-type:luminance" maskUnits="userSpaceOnUse" x="5" y="102" width="41" height="45">
<path d="M38.2183 102.284C26.5295 99.5076 11.1762 126.562 5.22705 132.603C14.3358 141.714 28.7535 147.534 35.1145 145.728C41.4754 143.922 45.8774 123.029 45.9495 122.852" fill="white"/>
</mask>
<g mask="url(#mask4_189_6640)">
<path d="M12.1873 114.677C-6.6156 126.035 39.2451 136.1 39.2451 136.1" stroke="#DBF2FC" stroke-width="0.780755" stroke-linecap="round" stroke-linejoin="round"/>
</g>
<path d="M38.2183 102.284C26.5295 99.5076 11.1762 126.562 5.22705 132.603C14.3358 141.714 28.7535 147.534 35.1145 145.728C41.4754 143.922 45.8774 123.029 45.9495 122.852" stroke="#020000" stroke-width="0.116028" stroke-miterlimit="10"/>
<path d="M100.092 107.123C101.257 108.077 102.186 109.287 102.807 110.659M15.3838 160.772C15.4128 161.034 15.5164 161.282 15.6823 161.487C15.8482 161.692 16.0694 161.845 16.3197 161.928" stroke="#F39536" stroke-width="0.780755" stroke-linecap="round" stroke-linejoin="round"/>
<path d="M129.339 70.0645L129.186 70.211M-6.10254 200.066L-5.52139 198.443" stroke="#F39536" stroke-width="0.780755" stroke-linecap="round" stroke-linejoin="round"/>
<path d="M75.5059 111.613C75.4717 112.2 75.5834 112.786 75.8308 113.32C76.0782 113.853 76.4538 114.317 76.924 114.67M20.9097 122.851C21.9362 124.581 23.4892 125.937 25.3415 126.72" stroke="#DBF2FC" stroke-width="0.780755" stroke-linecap="round" stroke-linejoin="round"/>
<path d="M50.803 106.015L49.1123 95.5259C49.1716 95.595 52.0045 92.7653 55.084 93.0079C58.9279 93.4705 58.4731 95.4394 59.1878 97.1508C63.0439 107.573 63.8797 110.591 60.2423 110.126C58.5345 109.908 55.4474 108.138 51.9442 107.44" fill="#FFF2E5"/>
<mask id="mask5_189_6640" style="mask-type:luminance" maskUnits="userSpaceOnUse" x="49" y="92" width="14" height="19">
<path d="M50.803 106.015L49.1123 95.5259C49.1716 95.595 52.0045 92.7653 55.084 93.0079C58.9279 93.4705 58.4731 95.4394 59.1878 97.1508C63.0439 107.573 63.8797 110.591 60.2423 110.126C58.5345 109.908 55.4474 108.138 51.9442 107.44" fill="white"/>
</mask>
<g mask="url(#mask5_189_6640)">
<path d="M67.4172 106.479C49.8431 104.536 51.8687 95.0471 64.2277 95.3172C64.2293 95.2439 66.2116 104.307 66.276 104.538" fill="#F39536"/>
</g>
<path d="M50.803 106.015L49.1123 95.5259C49.1716 95.595 52.0045 92.7653 55.084 93.0079C58.9279 93.4705 58.4731 95.4394 59.1878 97.1508C63.0439 107.573 63.8797 110.591 60.2423 110.126C58.5345 109.908 55.4474 108.138 51.9442 107.44" stroke="#020000" stroke-width="0.116028" stroke-miterlimit="10"/>
<path d="M46.5288 104.864C51.2293 99.4593 57.8305 108.662 61.4132 109.95C61.4132 109.95 56.974 113.991 57.0456 116.51L46.5288 104.864Z" fill="#FFAD5B" stroke="#020000" stroke-width="0.116028" stroke-miterlimit="10"/>
<path d="M63.3048 115.606C63.3048 115.606 63.3834 111.609 60.9355 109.871L61.7614 104.082C67.266 106.145 63.1547 112.638 63.3048 115.606Z" fill="#FFAD5B" stroke="#020000" stroke-width="0.116028" stroke-miterlimit="10"/>
<path d="M48.9039 106.907C52.4254 106.907 55.28 104.052 55.28 100.53C55.28 97.009 52.4254 94.1543 48.9039 94.1543C45.3825 94.1543 42.5278 97.009 42.5278 100.53C42.5278 104.052 45.3825 106.907 48.9039 106.907Z" fill="#4BCE97"/>
<path d="M48.9039 106.907C52.4254 106.907 55.28 104.052 55.28 100.53C55.28 97.009 52.4254 94.1543 48.9039 94.1543C45.3825 94.1543 42.5278 97.009 42.5278 100.53C42.5278 104.052 45.3825 106.907 48.9039 106.907Z" stroke="#020000" stroke-width="0.116028" stroke-miterlimit="10"/>
<path d="M61.4533 95.5833C64.9747 95.5833 67.8294 92.7286 67.8294 89.2072C67.8294 85.6857 64.9747 82.8311 61.4533 82.8311C57.9318 82.8311 55.0771 85.6857 55.0771 89.2072C55.0771 92.7286 57.9318 95.5833 61.4533 95.5833Z" fill="#4BCE97"/>
<mask id="mask6_189_6640" style="mask-type:luminance" maskUnits="userSpaceOnUse" x="55" y="82" width="13" height="14">
<path d="M61.4533 95.5833C64.9747 95.5833 67.8294 92.7286 67.8294 89.2072C67.8294 85.6857 64.9747 82.8311 61.4533 82.8311C57.9318 82.8311 55.0771 85.6857 55.0771 89.2072C55.0771 92.7286 57.9318 95.5833 61.4533 95.5833Z" fill="white"/>
</mask>
<g mask="url(#mask6_189_6640)">
<path d="M61.9856 93.2358C56.7354 94.8949 60.3258 93.5566 60.3258 93.5566C60.3258 93.5566 55.3902 90.0624 53.618 91.1823C51.8459 92.3022 57.7268 95.5895 57.7268 95.5895L59.6792 95.3319" fill="#57AD00"/>
</g>
<path d="M61.4533 95.5833C64.9747 95.5833 67.8294 92.7286 67.8294 89.2072C67.8294 85.6857 64.9747 82.8311 61.4533 82.8311C57.9318 82.8311 55.0771 85.6857 55.0771 89.2072C55.0771 92.7286 57.9318 95.5833 61.4533 95.5833Z" stroke="#020000" stroke-width="0.116028" stroke-miterlimit="10"/>
<path d="M61.4533 95.6909C64.5026 95.6909 66.9745 93.2189 66.9745 90.1696C66.9745 87.1204 64.5026 84.6484 61.4533 84.6484C58.4041 84.6484 55.9321 87.1204 55.9321 90.1696C55.9321 93.2189 58.4041 95.6909 61.4533 95.6909Z" fill="#4BCE97"/>
<mask id="mask7_189_6640" style="mask-type:luminance" maskUnits="userSpaceOnUse" x="55" y="84" width="12" height="12">
<path d="M61.4533 95.6909C64.5026 95.6909 66.9745 93.2189 66.9745 90.1696C66.9745 87.1204 64.5026 84.6484 61.4533 84.6484C58.4041 84.6484 55.9321 87.1204 55.9321 90.1696C55.9321 93.2189 58.4041 95.6909 61.4533 95.6909Z" fill="white"/>
</mask>
<g mask="url(#mask7_189_6640)">
<path d="M61.9143 93.6584C57.3679 95.095 60.477 93.9361 60.477 93.9361C60.477 93.9361 56.2031 90.9104 54.6686 91.8801C53.1341 92.8498 58.2265 95.6965 58.2265 95.6965L59.9172 95.4733" fill="#57AD00"/>
</g>
<path d="M61.4533 95.6909C64.5026 95.6909 66.9745 93.2189 66.9745 90.1696C66.9745 87.1204 64.5026 84.6484 61.4533 84.6484C58.4041 84.6484 55.9321 87.1204 55.9321 90.1696C55.9321 93.2189 58.4041 95.6909 61.4533 95.6909Z" stroke="#020000" stroke-width="0.116028" stroke-miterlimit="10"/>
<path d="M54.2743 96.2466C56.0523 95.5609 59.0293 102.563 64.3763 99.324C70.3937 95.6788 61.5805 80.9707 61.5805 80.9707L53.457 85.1242L50.8872 91.3114L54.2743 96.2466Z" fill="#FFF2E5"/>
<mask id="mask8_189_6640" style="mask-type:luminance" maskUnits="userSpaceOnUse" x="50" y="80" width="17" height="21">
<path d="M54.2743 96.2466C56.0523 95.5609 59.0293 102.563 64.3763 99.324C70.3937 95.6788 61.5805 80.9707 61.5805 80.9707L53.457 85.1242L50.8872 91.3114L54.2743 96.2466Z" fill="white"/>
</mask>
<g mask="url(#mask8_189_6640)">
<path d="M68.4904 92.282C68.4857 93.0654 67.7334 93.854 66.7815 94.0542C65.7967 94.2614 64.9663 93.7654 64.9582 92.9342C64.95 92.0968 65.7787 91.2808 66.7769 91.1225C67.7411 90.9695 68.4952 91.493 68.4904 92.282ZM52.5768 94.4517C57.0248 92.3332 54.8605 87.7918 54.8605 87.7918L64.8852 84.8396L61.7789 78.9219L53.7632 81.2718L50.6144 85.0519L49.6333 89.6317" fill="#F39536"/>
</g>
<path d="M54.2743 96.2466C56.0523 95.5609 59.0293 102.563 64.3763 99.324C70.3937 95.6788 61.5805 80.9707 61.5805 80.9707L53.457 85.1242L50.8872 91.3114L54.2743 96.2466Z" stroke="#020000" stroke-width="0.116028" stroke-miterlimit="10"/>
<path d="M50.3939 94.0782C51.9898 94.0575 52.9908 93.6429 53.5946 93.0327C55.406 91.2022 53.6427 87.6111 53.6427 87.6111L59.9893 85.7082C60.8 77.8105 61.4359 85.2744 61.4359 85.2744L65.5599 83.8848C64.6395 77.0544 49.7788 73.0281 47.8054 85.4451C35.8315 85.3733 39.7182 101.765 47.5886 99.3951C55.4591 97.0256 49.1286 98.9333 49.1286 98.9333L50.8861 95.1258L50.3939 94.0782Z" fill="#4BCE97"/>
<mask id="mask9_189_6640" style="mask-type:luminance" maskUnits="userSpaceOnUse" x="40" y="77" width="26" height="23">
<path d="M50.3939 94.0782C51.9898 94.0575 52.9908 93.6429 53.5946 93.0327C55.406 91.2022 53.6427 87.6111 53.6427 87.6111L59.9893 85.7082C60.8 77.8105 61.4359 85.2744 61.4359 85.2744L65.5599 83.8848C64.6395 77.0544 49.7788 73.0281 47.8054 85.4451C35.8315 85.3733 39.7182 101.765 47.5886 99.3951C55.4591 97.0256 49.1286 98.9333 49.1286 98.9333L50.8861 95.1258L50.3939 94.0782Z" fill="white"/>
</mask>
<g mask="url(#mask9_189_6640)">
<path d="M48.1707 82.2526C45.7829 85.6091 50.3199 83.5345 51.1099 85.8125C51.1099 85.8125 47.5008 85.1903 46.9594 85.3541C46.4179 85.5179 45.7101 83.686 45.7101 83.686M57.0045 75.68C58.7779 76.2898 58.7308 79.3331 59.9801 78.6404C61.2293 77.9477 60.1516 75.2573 60.1516 75.2573L53.7996 73.6445L40.1021 82.5307M47.2182 96.0579C44.9515 90.1382 52.3877 90.6758 53.5948 93.0326C54.8019 95.3893 53.5087 95.1314 53.5087 95.1314" fill="#57AD00"/>
</g>
<path d="M50.3939 94.0782C51.9898 94.0575 52.9908 93.6429 53.5946 93.0327C55.406 91.2022 53.6427 87.6111 53.6427 87.6111L59.9893 85.7082C60.8 77.8105 61.4359 85.2744 61.4359 85.2744L65.5599 83.8848C64.6395 77.0544 49.7788 73.0281 47.8054 85.4451C35.8315 85.3733 39.7182 101.765 47.5886 99.3951C55.4591 97.0256 49.1286 98.9333 49.1286 98.9333L50.8861 95.1258L50.3939 94.0782Z" stroke="#020000" stroke-width="0.116028" stroke-miterlimit="10"/>
<path d="M54.0893 93.2121C46.4218 87.4861 43.3742 104.131 55.3712 96.8979L54.0893 93.2121Z" fill="#FFF2E5"/>
<path d="M54.0893 93.2121C46.4218 87.4861 43.3742 104.131 55.3712 96.8979" stroke="#020000" stroke-width="0.116028" stroke-miterlimit="10"/>
<path d="M59.8403 90.9031C60.5108 93.3301 58.4368 94.4054 57.6343 92.1209C56.9289 89.5746 59.0769 88.7026 59.8403 90.9031Z" fill="white"/>
<mask id="mask10_189_6640" style="mask-type:luminance" maskUnits="userSpaceOnUse" x="57" y="89" width="3" height="5">
<path d="M59.8403 90.9031C60.5108 93.3301 58.4368 94.4054 57.6343 92.1209C56.9289 89.5746 59.0769 88.7026 59.8403 90.9031Z" fill="white"/>
</mask>
<g mask="url(#mask10_189_6640)">
<path d="M59.7494 90.9722C59.971 92.1934 58.9204 92.7455 58.5835 91.4098C58.3575 90.1604 59.4209 89.6651 59.7494 90.9722Z" fill="#280E0E"/>
</g>
<path d="M64.2017 88.8831C64.8069 91.0861 63.1072 91.9666 62.3986 89.8953C61.7649 87.5945 63.5238 86.8812 64.2017 88.8831Z" fill="white"/>
<mask id="mask11_189_6640" style="mask-type:luminance" maskUnits="userSpaceOnUse" x="62" y="87" width="3" height="5">
<path d="M64.2017 88.8831C64.8069 91.0861 63.1072 91.9666 62.3986 89.8953C61.7649 87.5945 63.5238 86.8812 64.2017 88.8831Z" fill="white"/>
</mask>
<g mask="url(#mask11_189_6640)">
<path d="M64.2189 89.2289C64.4225 90.3349 63.5628 90.7966 63.2625 89.5865C63.0553 88.4574 63.9254 88.0423 64.2189 89.2289Z" fill="#280E0E"/>
</g>
<path d="M63.2555 85.2885C61.0521 85.8582 60.815 87.229 62.263 86.9375C63.6263 86.663 64.5866 84.9444 63.2555 85.2885ZM58.4606 87.869C55.6697 88.1898 55.1451 89.7011 56.9781 89.578C58.6948 89.4626 60.1345 87.6765 58.4606 87.869Z" fill="#280E0E"/>
<path d="M62.6771 92.7422C62.1734 92.2311 61.9683 90.6699 61.5622 91.0259C61.073 91.1009 61.7628 92.444 61.6067 93.3161C61.4482 94.2014 62.0435 94.3376 62.4302 94.1194C62.4311 94.1188 62.4313 94.1172 62.4322 94.1167C62.433 94.1162 62.434 94.1172 62.4349 94.1167C62.8149 93.9022 63.1734 93.2458 62.6771 92.7422ZM60.8282 94.6479C60.824 95.4282 60.1676 96.2136 59.3371 96.413C58.4778 96.6193 57.7532 96.1253 57.7461 95.2975C57.739 94.4635 58.462 93.6508 59.333 93.4931C60.1744 93.3408 60.8323 93.8621 60.8282 94.6479Z" fill="#F39536"/>
<path d="M61.4989 95.2731C62.1112 96.1212 62.9444 95.2262 62.9444 95.2262M50.385 94.6221C49.4725 94.8599 49.1933 95.9796 51.1591 95.8368" stroke="#AD2F12" stroke-width="0.464113" stroke-linecap="round" stroke-linejoin="round"/>
</g>
<mask id="mask12_189_6640" style="mask-type:luminance" maskUnits="userSpaceOnUse" x="291" y="0" width="41" height="41">
<path d="M311.802 40.2284C322.91 40.2284 331.916 31.223 331.916 20.1142C331.916 9.00544 322.91 0 311.802 0C300.693 0 291.688 9.00544 291.688 20.1142C291.688 31.223 300.693 40.2284 311.802 40.2284Z" fill="white"/>
</mask>
<g mask="url(#mask12_189_6640)">
<path d="M311.802 40.2284C322.91 40.2284 331.916 31.223 331.916 20.1142C331.916 9.00544 322.91 0 311.802 0C300.693 0 291.688 9.00544 291.688 20.1142C291.688 31.223 300.693 40.2284 311.802 40.2284Z" fill="#F5CD47" stroke="#020000" stroke-width="0.116028" stroke-miterlimit="10"/>
<path d="M297.071 34.8324C302.566 28.0454 321.598 29.4065 324.095 34.0191C327.869 40.9914 312.476 43.616 309.587 44.7671C307.845 43.8117 295.063 37.3128 297.071 34.8324Z" fill="#FFF2E5"/>
<path d="M297.071 34.8324C302.566 28.0454 321.598 29.4065 324.095 34.0191C327.869 40.9914 312.476 43.616 309.587 44.7671C307.845 43.8117 295.063 37.3128 297.071 34.8324Z" stroke="#020000" stroke-width="0.116028" stroke-miterlimit="10"/>
<path d="M319.983 31.3685C319.983 31.3685 324.152 39.5449 303.065 31.667C303.065 31.667 267.644 38.8759 262.342 63.0958C259.902 74.2455 267.689 86.8781 271.743 88.0486C275.796 89.2191 294.003 80.997 294.003 80.997C294.003 80.997 285.983 70.4094 289.071 59.0565C290.66 53.2142 296.092 48.732 298.153 49.4574C300.214 50.1827 305.033 64.5482 300.094 71.5817H322.218C319.434 57.0034 335.609 59.8594 325.119 42.9289C325.119 42.9289 355.852 65.7447 368.403 34.3754L362.356 18.2656C362.356 18.2656 343.921 34.9955 319.983 31.3685Z" fill="#0A4B6B"/>
<mask id="mask13_189_6640" style="mask-type:luminance" maskUnits="userSpaceOnUse" x="261" y="18" width="108" height="71">
<path d="M319.983 31.3685C319.983 31.3685 324.152 39.5449 303.065 31.667C303.065 31.667 267.644 38.8759 262.342 63.0958C259.902 74.2455 267.689 86.8781 271.743 88.0486C275.796 89.2191 294.003 80.997 294.003 80.997C294.003 80.997 285.983 70.4094 289.071 59.0565C290.66 53.2142 296.092 48.732 298.153 49.4574C300.214 50.1827 305.033 64.5482 300.094 71.5817H322.218C319.434 57.0034 335.609 59.8594 325.119 42.9289C325.119 42.9289 355.852 65.7447 368.403 34.3754L362.356 18.2656C362.356 18.2656 343.921 34.9955 319.983 31.3685Z" fill="white"/>
</mask>
<g mask="url(#mask13_189_6640)">
<path d="M298.351 31.8689C318.069 41.6004 324.153 39.0892 321.884 30.8809C319.523 22.3406 298.959 29.0568 298.959 29.0568" fill="white"/>
<path d="M298.351 31.8689C318.069 41.6004 324.153 39.0892 321.884 30.8809C319.523 22.3406 298.959 29.0568 298.959 29.0568" stroke="#020000" stroke-width="0.116028" stroke-miterlimit="10"/>
</g>
<path d="M319.983 31.3685C319.983 31.3685 324.152 39.5449 303.065 31.667C303.065 31.667 267.644 38.8759 262.342 63.0958C259.902 74.2455 267.689 86.8781 271.743 88.0486C275.796 89.2191 294.003 80.997 294.003 80.997C294.003 80.997 285.983 70.4094 289.071 59.0565C290.66 53.2142 296.092 48.732 298.153 49.4574C300.214 50.1827 305.033 64.5482 300.094 71.5817H322.218C319.434 57.0034 335.609 59.8594 325.119 42.9289C325.119 42.9289 355.852 65.7447 368.403 34.3754L362.356 18.2656C362.356 18.2656 343.921 34.9955 319.983 31.3685Z" stroke="#020000" stroke-width="0.116028" stroke-miterlimit="10"/>
<path d="M271.493 -6.57109L270.434 -0.629279L270.092 1.29129L269.884 2.46094L266.847 19.512C284.551 29.5124 280.571 15.2326 288.943 20.8391C297.314 26.4456 293.749 11.6268 301.296 15.1694L304.609 12.662C292.923 3.51146 287.431 13.016 284 -0.984559C280.569 -14.9851 271.493 -6.57109 271.493 -6.57109Z" fill="#020000"/>
<mask id="mask14_189_6640" style="mask-type:luminance" maskUnits="userSpaceOnUse" x="266" y="-10" width="39" height="34">
<path d="M271.493 -6.57109L270.434 -0.629279L270.092 1.29129L269.884 2.46094L266.847 19.512C284.551 29.5124 280.571 15.2326 288.943 20.8391C297.314 26.4456 293.749 11.6268 301.296 15.1694L304.609 12.662C292.923 3.51146 287.431 13.016 284 -0.984559C280.569 -14.9851 271.493 -6.57109 271.493 -6.57109Z" fill="white"/>
</mask>
<g mask="url(#mask14_189_6640)">
<path d="M300.808 9.76995C294.533 22.1944 308.861 14.9882 305.343 8.05273L300.808 9.76995Z" fill="#006EC2"/>
<path d="M300.808 9.76995C294.533 22.1944 308.861 14.9882 305.343 8.05273" stroke="#020000" stroke-width="0.116028" stroke-miterlimit="10"/>
<path d="M284 -0.984375C284.869 11.3617 285.45 9.48718 294.111 8.05307C302.773 6.61896 291.153 0.572307 291.153 0.572307" fill="#280E0E"/>
</g>
<path d="M271.493 -6.57109L270.434 -0.629279L270.092 1.29129L269.884 2.46094L266.847 19.512C284.551 29.5124 280.571 15.2326 288.943 20.8391C297.314 26.4456 293.749 11.6268 301.296 15.1694L304.609 12.662C292.923 3.51146 287.431 13.016 284 -0.984559C280.569 -14.9851 271.493 -6.57109 271.493 -6.57109Z" stroke="#020000" stroke-width="0.116028" stroke-miterlimit="10"/>
<path d="M310.101 14.7034C310.975 19.3784 319.449 20.7408 319.922 14.8061C320.23 8.25149 308.951 7.68838 310.101 14.7034Z" fill="#020000"/>
<mask id="mask15_189_6640" style="mask-type:luminance" maskUnits="userSpaceOnUse" x="310" y="9" width="10" height="10">
<path d="M310.101 14.7034C310.975 19.3784 319.449 20.7408 319.922 14.8061C320.23 8.25149 308.951 7.68838 310.101 14.7034Z" fill="white"/>
</mask>
<g mask="url(#mask15_189_6640)">
<path d="M320.754 16.0646C318.265 18.8311 314.233 14.5169 314.233 16.1634C314.233 17.8099 318.471 20.9973 318.471 20.9973L319.927 20.3717" fill="#280E0E"/>
</g>
<path d="M310.101 14.7034C310.975 19.3784 319.449 20.7408 319.922 14.8061C320.23 8.25149 308.951 7.68838 310.101 14.7034Z" stroke="#020000" stroke-width="0.116028" stroke-miterlimit="10"/>
<path d="M314.412 16.1044C314.168 16.1256 316.924 17.371 316.032 17.3896C318.409 25.1057 308.45 25.2434 303.656 21.3939C295.975 15.2257 305.751 7.29289 312.804 11.6794" fill="#020000"/>
<path d="M314.412 16.1044C314.168 16.1256 316.924 17.371 316.032 17.3896C318.409 25.1057 308.45 25.2434 303.656 21.3939C295.975 15.2257 305.751 7.29289 312.804 11.6794" stroke="#020000" stroke-width="0.116028" stroke-miterlimit="10"/>
<path d="M307.336 13.8502C307.478 14.2971 307.494 14.7748 307.381 15.2301C307.189 15.9098 306.642 16.3922 306.023 16.6889C305.946 16.7309 305.857 16.742 305.773 16.7199C305.689 16.6978 305.616 16.6443 305.57 16.5703C305.527 16.4944 305.515 16.4045 305.537 16.3199C305.559 16.2352 305.614 16.1627 305.689 16.1179C305.983 15.9923 306.247 15.8054 306.462 15.5697C306.482 15.5475 306.501 15.5248 306.52 15.5019C306.474 15.5573 306.546 15.4651 306.553 15.4543C306.589 15.402 306.621 15.3477 306.651 15.2918C306.663 15.2686 306.674 15.2448 306.686 15.2216C306.716 15.1617 306.668 15.2757 306.697 15.195C306.716 15.1407 306.735 15.0867 306.75 15.0309C306.763 14.9809 306.773 14.9304 306.783 14.8796C306.786 14.8643 306.788 14.8489 306.79 14.8335C306.784 14.8831 306.783 14.8895 306.787 14.8526C306.788 14.8299 306.791 14.8071 306.793 14.7844C306.799 14.6822 306.798 14.5797 306.79 14.4776C306.788 14.4567 306.786 14.4359 306.784 14.415C306.775 14.3194 306.793 14.4597 306.782 14.4014C306.774 14.3564 306.767 14.3113 306.758 14.2664C306.741 14.1855 306.721 14.1054 306.698 14.026C306.687 13.9842 306.683 13.9404 306.689 13.8973C306.694 13.8542 306.708 13.8126 306.729 13.7748C306.751 13.7371 306.779 13.7039 306.814 13.6772C306.848 13.6505 306.887 13.6309 306.929 13.6193C306.971 13.6078 307.015 13.6046 307.058 13.6099C307.101 13.6153 307.142 13.6291 307.18 13.6505C307.218 13.672 307.251 13.7007 307.278 13.7349C307.305 13.7692 307.324 13.8084 307.336 13.8502ZM285.157 15.6074C285.065 15.5089 284.941 15.4455 284.807 15.4279C284.895 15.44 284.633 15.4436 284.719 15.4306C284.649 15.4429 284.579 15.4612 284.512 15.4853C284.455 15.5041 284.401 15.5286 284.349 15.5584C284.275 15.5961 284.204 15.6374 284.133 15.68C283.974 15.775 283.821 15.8779 283.665 15.9772C282.932 16.4437 282.122 16.7649 281.26 16.4495C280.863 16.3045 281.034 15.6652 281.435 15.8119C282.258 16.1128 282.911 15.6741 283.593 15.2377C283.884 15.0513 284.198 14.8542 284.543 14.793C284.738 14.7599 284.938 14.7741 285.126 14.8345C285.315 14.8948 285.485 14.9996 285.625 15.1398C285.938 15.4291 285.47 15.8957 285.157 15.6074Z" fill="#280E0E"/>
<path d="M306.948 30.5094L306.3 21.6514C311.69 23.5472 312.186 21.4622 315.974 31.4514" fill="#FFF2E5"/>
<mask id="mask16_189_6640" style="mask-type:luminance" maskUnits="userSpaceOnUse" x="306" y="21" width="10" height="11">
<path d="M306.948 30.5094L306.3 21.6514C311.69 23.5472 312.186 21.4622 315.974 31.4514" fill="white"/>
</mask>
<g mask="url(#mask16_189_6640)">
<path d="M318.979 31.5889C313.945 29.8447 309.278 25.2869 309.389 24.2547C315.271 23.5773 319.471 25.1924 318.616 30.0207" fill="#F39536"/>
</g>
<path d="M306.948 30.5094L306.3 21.6514C311.69 23.5472 312.186 21.4622 315.974 31.4514" stroke="#020000" stroke-width="0.116028" stroke-miterlimit="10"/>
<path d="M311.579 13.5869L311.581 13.5901H311.579V13.5869Z" stroke="#1D5AD5" stroke-width="0.558676" stroke-miterlimit="10"/>
<path d="M311.579 13.5889C326.267 22.9516 313.306 32.2244 305.342 20.7998C311.608 20.7425 311.579 13.6122 311.579 13.5889Z" fill="#FFF2E5"/>
<mask id="mask17_189_6640" style="mask-type:luminance" maskUnits="userSpaceOnUse" x="305" y="13" width="14" height="14">
<path d="M311.579 13.5889C326.267 22.9516 313.306 32.2244 305.342 20.7998C311.608 20.7425 311.579 13.6122 311.579 13.5889Z" fill="white"/>
</mask>
<g mask="url(#mask17_189_6640)">
<path d="M316.367 21.4084C316.423 23.3112 314.156 23.5907 313.451 21.8892C313.395 21.5707 314.896 20.9772 316.367 21.4084Z" fill="#F87168"/>
<mask id="mask18_189_6640" style="mask-type:luminance" maskUnits="userSpaceOnUse" x="313" y="21" width="4" height="3">
<path d="M316.367 21.4084C316.423 23.3112 314.156 23.5907 313.451 21.8892C313.395 21.5707 314.896 20.9772 316.367 21.4084Z" fill="white"/>
</mask>
<g mask="url(#mask18_189_6640)">
<path d="M313.55 22.9135C313.207 24.9083 318.336 23.8812 315.004 21.9775C314.586 21.9812 314.187 21.9746 313.55 22.9135Z" fill="#A52941"/>
<path d="M315.838 21.1154C316.296 21.6699 314.002 22.4861 313.936 21.3079L315.621 21.0654" fill="white"/>
</g>
<path d="M312.69 18.7196C313.522 20.2982 311.972 21.116 311.051 19.6387C310.176 17.9826 311.81 17.2962 312.69 18.7196Z" fill="white"/>
<mask id="mask19_189_6640" style="mask-type:luminance" maskUnits="userSpaceOnUse" x="310" y="17" width="3" height="4">
<path d="M312.69 18.7196C313.522 20.2982 311.972 21.116 311.051 19.6387C310.176 17.9826 311.81 17.2962 312.69 18.7196Z" fill="white"/>
</mask>
<g mask="url(#mask19_189_6640)">
<path d="M312.625 18.77C312.95 19.57 312.166 19.9892 311.734 19.1189C311.402 18.3003 312.203 17.9183 312.625 18.77Z" fill="#280E0E"/>
</g>
<path d="M315.977 17.1608C316.729 18.5938 315.459 19.2636 314.639 17.9232C313.852 16.4267 315.19 15.865 315.977 17.1608Z" fill="white"/>
<mask id="mask20_189_6640" style="mask-type:luminance" maskUnits="userSpaceOnUse" x="314" y="16" width="3" height="3">
<path d="M315.977 17.1608C316.729 18.5938 315.459 19.2636 314.639 17.9232C313.852 16.4267 315.19 15.865 315.977 17.1608Z" fill="white"/>
</mask>
<g mask="url(#mask20_189_6640)">
<path d="M316.032 17.3901C316.329 18.1146 315.688 18.4641 315.301 17.6754C314.999 16.9358 315.653 16.6167 316.032 17.3901Z" fill="#280E0E"/>
</g>
<path d="M314.783 14.8211C313.068 15.3096 313.04 16.2319 314.177 15.9659C315.247 15.7155 315.819 14.526 314.783 14.8211ZM311.212 16.7746C308.992 17.1271 308.748 18.1571 310.216 17.9837C311.591 17.8214 312.543 16.5631 311.212 16.7746Z" fill="#280E0E"/>
<path d="M315.205 19.7999C314.736 19.4855 314.384 18.4588 314.098 18.7156C313.711 18.7899 314.429 19.6475 314.407 20.2346C314.385 20.8305 314.882 20.8912 315.169 20.7269C315.17 20.7266 315.17 20.7255 315.17 20.7251C315.171 20.7247 315.172 20.7253 315.173 20.7249C315.455 20.5635 315.666 20.1096 315.205 19.7999Z" fill="#F39536"/>
<path opacity="0.3" d="M312.96 21.7149C313.041 22.2078 312.459 22.7665 311.635 22.9722C310.783 23.1851 309.99 22.943 309.892 22.4213C309.793 21.8956 310.44 21.3132 311.309 21.1299C312.15 20.9528 312.877 21.2186 312.96 21.7149ZM319.797 19.7406C319.879 20.2334 319.296 20.7922 318.473 20.9979C317.62 21.2107 316.828 20.9686 316.729 20.4469C316.63 19.9212 317.277 19.3388 318.147 19.1555C318.987 18.9785 319.714 19.2442 319.797 19.7406Z" fill="#F39536"/>
<path d="M313.384 13.8219C311.191 13.0216 312.433 16.8906 310.019 17.0162C307.604 17.1417 309.561 12.4288 309.561 12.4288L311.991 11.8359" fill="#F39536"/>
</g>
<path d="M311.579 13.5889C326.267 22.9516 313.306 32.2244 305.342 20.7998C311.608 20.7425 311.579 13.6122 311.579 13.5889Z" stroke="#020000" stroke-width="0.116028" stroke-miterlimit="10"/>
<path d="M306.687 20.6591C299.793 18.9106 304.235 25.8096 308.204 23.6785L306.687 20.6591Z" fill="#FFF2E5"/>
<path d="M306.687 20.6591C299.793 18.9106 304.235 25.8096 308.204 23.6785" stroke="#020000" stroke-width="0.116028" stroke-miterlimit="10"/>
<path d="M304.773 28.9552C303.897 28.9552 303.056 28.713 302.566 28.0453C302.025 27.3069 301.803 25.8228 303.816 22.9432C303.866 22.8722 303.942 22.8239 304.027 22.8088C304.112 22.7937 304.2 22.8132 304.271 22.8628C304.342 22.9125 304.39 22.9883 304.406 23.0736C304.421 23.159 304.401 23.2468 304.351 23.3178C302.954 25.3172 302.507 26.8587 303.093 27.6588C303.585 28.3308 304.907 28.4938 306.309 28.0546C307.472 27.6895 308.656 26.894 308.68 25.9394C308.704 24.952 307.446 23.9408 305.14 23.0918C305.099 23.077 305.062 23.0544 305.031 23.0253C304.999 22.9962 304.974 22.9611 304.956 22.9222C304.938 22.8832 304.928 22.8411 304.926 22.7982C304.924 22.7553 304.931 22.7125 304.946 22.6722C304.96 22.6319 304.983 22.5949 305.012 22.5633C305.041 22.5317 305.076 22.5062 305.115 22.4882C305.154 22.4702 305.196 22.46 305.239 22.4583C305.282 22.4565 305.325 22.4633 305.365 22.4781C308.685 23.6999 309.355 25.0435 309.333 25.9552C309.3 27.3205 307.789 28.2755 306.505 28.6781C305.945 28.856 305.361 28.9493 304.773 28.9552Z" fill="#FF8B2E"/>
<path d="M303.828 13.1748L303.149 14.8491" stroke="#020000" stroke-width="0.558676" stroke-linecap="round" stroke-linejoin="round"/>
</g>
<path d="M320.007 41.1621H161.936C153.324 41.1621 146.344 48.1428 146.344 56.754V281.882C146.344 290.493 153.324 297.473 161.936 297.473H320.007C328.618 297.473 335.599 290.493 335.599 281.882V56.754C335.599 48.1428 328.618 41.1621 320.007 41.1621Z" fill="#0A4B6B"/>
<mask id="mask21_189_6640" style="mask-type:luminance" maskUnits="userSpaceOnUse" x="146" y="41" width="190" height="257">
<path d="M320.007 41.1621H161.936C153.324 41.1621 146.344 48.1428 146.344 56.754V281.882C146.344 290.493 153.324 297.473 161.936 297.473H320.007C328.618 297.473 335.599 290.493 335.599 281.882V56.754C335.599 48.1428 328.618 41.1621 320.007 41.1621Z" fill="white"/>
</mask>
<g mask="url(#mask21_189_6640)">
<path d="M335.599 151.594C356.983 349.607 145.803 282.525 145.803 282.525L161.419 351.236L351.936 340.304L383.168 266.908L341.005 170.088M172.299 35.6002C197.002 36.5309 194.294 57.2272 194.294 57.2272H287.649C287.649 57.2272 288.905 34.7208 302.711 30.324C316.517 25.9271 183.291 18.0127 183.291 18.0127" fill="#003149"/>
</g>
<path d="M320.007 41.1621H161.936C153.324 41.1621 146.344 48.1428 146.344 56.754V281.882C146.344 290.493 153.324 297.473 161.936 297.473H320.007C328.618 297.473 335.599 290.493 335.599 281.882V56.754C335.599 48.1428 328.618 41.1621 320.007 41.1621Z" stroke="#020000" stroke-width="0.116028" stroke-miterlimit="10"/>
<path d="M314.632 78.5391H167.312C165.949 78.5391 164.844 79.6437 164.844 81.0064V272.125C164.844 273.487 165.949 274.592 167.312 274.592H314.632C315.994 274.592 317.099 273.487 317.099 272.125V81.0064C317.099 79.6437 315.994 78.5391 314.632 78.5391Z" fill="#134C68" stroke="#020000" stroke-width="0.116028" stroke-miterlimit="10"/>
<path d="M318.466 52.665H163.477C162.114 52.665 161.01 53.7697 161.01 55.1324V256.126C161.01 257.488 162.114 258.593 163.477 258.593H318.466C319.829 258.593 320.934 257.488 320.934 256.126V55.1324C320.934 53.7697 319.829 52.665 318.466 52.665Z" fill="white" stroke="#020000" stroke-width="0.116028" stroke-miterlimit="10"/>
<path opacity="0.44" d="M195.056 79.8145H180.661C179.714 79.8145 178.947 80.5816 178.947 81.528V95.9231C178.947 96.8695 179.714 97.6366 180.661 97.6366H195.056C196.002 97.6366 196.769 96.8695 196.769 95.9231V81.528C196.769 80.5816 196.002 79.8145 195.056 79.8145Z" fill="#006EC2" stroke="#020000" stroke-width="0.116028" stroke-miterlimit="10"/>
<path opacity="0.44" d="M291.264 82.2627H203.952C203.383 82.2627 202.922 82.7235 202.922 83.2919V94.1598C202.922 94.7282 203.383 95.1889 203.952 95.1889H291.264C291.832 95.1889 292.293 94.7282 292.293 94.1598V83.2919C292.293 82.7235 291.832 82.2627 291.264 82.2627Z" fill="#006EC2" stroke="#020000" stroke-width="0.116028" stroke-miterlimit="10"/>
<path opacity="0.44" d="M195.056 111.249H180.661C179.714 111.249 178.947 112.016 178.947 112.963V127.358C178.947 128.304 179.714 129.071 180.661 129.071H195.056C196.002 129.071 196.769 128.304 196.769 127.358V112.963C196.769 112.016 196.002 111.249 195.056 111.249Z" fill="#006EC2" stroke="#020000" stroke-width="0.116028" stroke-miterlimit="10"/>
<path opacity="0.44" d="M253.167 113.696H203.952C203.383 113.696 202.922 114.157 202.922 114.725V125.593C202.922 126.162 203.383 126.623 203.952 126.623H253.167C253.736 126.623 254.197 126.162 254.197 125.593V114.725C254.197 114.157 253.736 113.696 253.167 113.696Z" fill="#006EC2" stroke="#020000" stroke-width="0.116028" stroke-miterlimit="10"/>
<path opacity="0.44" d="M195.056 142.683H180.661C179.714 142.683 178.947 143.45 178.947 144.396V158.791C178.947 159.738 179.714 160.505 180.661 160.505H195.056C196.002 160.505 196.769 159.738 196.769 158.791V144.396C196.769 143.45 196.002 142.683 195.056 142.683Z" fill="#006EC2" stroke="#020000" stroke-width="0.116028" stroke-miterlimit="10"/>
<path opacity="0.44" d="M291.264 145.131H203.952C203.383 145.131 202.922 145.592 202.922 146.16V157.028C202.922 157.596 203.383 158.057 203.952 158.057H291.264C291.832 158.057 292.293 157.596 292.293 157.028V146.16C292.293 145.592 291.832 145.131 291.264 145.131Z" fill="#006EC2" stroke="#020000" stroke-width="0.116028" stroke-miterlimit="10"/>
<path opacity="0.44" d="M195.056 174.117H180.661C179.714 174.117 178.947 174.884 178.947 175.831V190.226C178.947 191.172 179.714 191.939 180.661 191.939H195.056C196.002 191.939 196.769 191.172 196.769 190.226V175.831C196.769 174.884 196.002 174.117 195.056 174.117Z" fill="#006EC2" stroke="#020000" stroke-width="0.116028" stroke-miterlimit="10"/>
<path opacity="0.44" d="M273.536 176.565H203.952C203.383 176.565 202.922 177.026 202.922 177.595V188.463C202.922 189.031 203.383 189.492 203.952 189.492H273.536C274.104 189.492 274.565 189.031 274.565 188.463V177.595C274.565 177.026 274.104 176.565 273.536 176.565Z" fill="#006EC2" stroke="#020000" stroke-width="0.116028" stroke-miterlimit="10"/>
<path opacity="0.44" d="M195.056 205.552H180.661C179.714 205.552 178.947 206.319 178.947 207.265V221.66C178.947 222.607 179.714 223.374 180.661 223.374H195.056C196.002 223.374 196.769 222.607 196.769 221.66V207.265C196.769 206.319 196.002 205.552 195.056 205.552Z" fill="#006EC2" stroke="#020000" stroke-width="0.116028" stroke-miterlimit="10"/>
<path opacity="0.44" d="M255.713 207.999H203.952C203.383 207.999 202.922 208.46 202.922 209.028V219.896C202.922 220.465 203.383 220.925 203.952 220.925H255.713C256.282 220.925 256.743 220.465 256.743 219.896V209.028C256.743 208.46 256.282 207.999 255.713 207.999Z" fill="#006EC2" stroke="#020000" stroke-width="0.116028" stroke-miterlimit="10"/>
<path d="M240.971 5.44629C236.803 5.44629 232.728 6.68233 229.263 8.99811C225.797 11.3139 223.095 14.6054 221.5 18.4564C219.905 22.3074 219.488 26.545 220.301 30.6332C221.114 34.7215 223.121 38.4768 226.069 41.4242C229.016 44.3717 232.771 46.379 236.86 47.1922C240.948 48.0055 245.185 47.5882 249.036 45.9931C252.887 44.398 256.179 41.6967 258.495 38.2309C260.811 34.7651 262.047 30.6904 262.047 26.5221C262.047 23.7544 261.502 21.0138 260.443 18.4568C259.384 15.8997 257.831 13.5764 255.874 11.6193C253.917 9.66221 251.594 8.10977 249.037 7.0506C246.48 5.99144 243.739 5.44629 240.971 5.44629ZM240.971 32.9295C239.704 32.9295 238.465 32.5537 237.411 31.8496C236.358 31.1455 235.536 30.1447 235.051 28.9738C234.566 27.8029 234.44 26.5145 234.687 25.2715C234.934 24.0285 235.544 22.8868 236.441 21.9907C237.337 21.0945 238.479 20.4843 239.722 20.2371C240.965 19.9899 242.253 20.1168 243.424 20.6019C244.595 21.0869 245.595 21.9083 246.299 22.9621C247.004 24.0159 247.379 25.2548 247.379 26.5221C247.379 28.2215 246.704 29.8512 245.502 31.0528C244.301 32.2544 242.671 32.9295 240.971 32.9295Z" fill="#134C68" stroke="#020000" stroke-width="0.116028" stroke-miterlimit="10"/>
<path d="M269.209 27.7109H247.259C246.985 29.1776 246.206 30.5021 245.057 31.4551C243.909 32.4082 242.464 32.9298 240.972 32.9298C239.479 32.9298 238.034 32.4082 236.886 31.4551C235.738 30.5021 234.959 29.1776 234.684 27.7109H212.734C207.844 27.7109 203.154 29.6537 199.695 33.1118C196.237 36.57 194.294 41.2602 194.294 46.1508V57.2267C194.294 58.9271 194.97 60.558 196.172 61.7604C197.375 62.9628 199.005 63.6384 200.706 63.6385H281.238C282.08 63.6384 282.913 63.4726 283.691 63.1503C284.469 62.8281 285.176 62.3558 285.771 61.7604C286.367 61.165 286.839 60.4582 287.161 59.6803C287.483 58.9024 287.649 58.0686 287.649 57.2267V46.1508C287.649 43.7293 287.172 41.3314 286.245 39.0942C285.319 36.8569 283.96 34.8241 282.248 33.1118C280.536 31.3995 278.503 30.0413 276.266 29.1146C274.028 28.1879 271.631 27.7109 269.209 27.7109Z" fill="#134C68" stroke="#020000" stroke-width="0.116028" stroke-miterlimit="10"/>
<path d="M210.624 45.5621C212.474 43.2905 214.688 41.3422 217.177 39.7969" stroke="#F58B21" stroke-width="1.56163" stroke-linecap="round" stroke-linejoin="round"/>
<path d="M302.711 234.924L293.341 240.803" stroke="#DBF2FC" stroke-width="1.56163" stroke-linecap="round" stroke-linejoin="round"/>
<path d="M95.9113 251.549L89.8789 285.411L104.781 281.596L112.982 250.854L95.9113 251.549Z" fill="#FFF2E5"/>
<mask id="mask22_189_6640" style="mask-type:luminance" maskUnits="userSpaceOnUse" x="89" y="250" width="24" height="36">
<path d="M95.9113 251.549L89.8789 285.411L104.781 281.596L112.982 250.854L95.9113 251.549Z" fill="white"/>
</mask>
<g mask="url(#mask22_189_6640)">
<path d="M91.0864 276.297C96.5656 268.032 115.33 266.828 107.035 264.37C94.666 264.388 86.5839 262.908 88.0086 273.19" fill="#F39536"/>
</g>
<path d="M95.9113 251.549L89.8789 285.411L104.781 281.596L112.982 250.854L95.9113 251.549Z" stroke="#020000" stroke-width="0.116028" stroke-miterlimit="10"/>
<path d="M89.4893 280.038L87.4302 294.795L132.875 294.751C120.227 264.904 95.8676 305.385 108.382 275.493L89.4893 280.038Z" fill="#F5CD47"/>
<mask id="mask23_189_6640" style="mask-type:luminance" maskUnits="userSpaceOnUse" x="87" y="275" width="46" height="20">
<path d="M89.4893 280.038L87.4302 294.795L132.875 294.751C120.227 264.904 95.8676 305.385 108.382 275.493L89.4893 280.038Z" fill="white"/>
</mask>
<g mask="url(#mask23_189_6640)">
<path d="M129.963 292.213H80.5361V300.127H129.963V292.213Z" fill="#F5CD47" stroke="#020000" stroke-width="0.116028" stroke-miterlimit="10"/>
</g>
<path d="M89.4893 280.038L87.4302 294.795L132.875 294.751C120.227 264.904 95.8676 305.385 108.382 275.493L89.4893 280.038Z" stroke="#020000" stroke-width="0.116028" stroke-miterlimit="10"/>
<path d="M82.0444 264.339C87.2727 273.572 113.498 264.13 113.498 264.13C113.498 264.13 139.616 208.697 130.604 202.226C121.591 195.756 51.238 179.005 51.238 179.005C51.238 179.005 11.6373 246.143 97.6978 228.878C97.6978 228.878 76.816 255.105 82.0444 264.339Z" fill="#006EC2"/>
<mask id="mask24_189_6640" style="mask-type:luminance" maskUnits="userSpaceOnUse" x="42" y="179" width="91" height="90">
<path d="M82.0444 264.339C87.2727 273.572 113.498 264.13 113.498 264.13C113.498 264.13 139.616 208.697 130.604 202.226C121.591 195.756 51.238 179.005 51.238 179.005C51.238 179.005 11.6373 246.143 97.6978 228.878C97.6978 228.878 76.816 255.105 82.0444 264.339Z" fill="white"/>
</mask>
<g mask="url(#mask24_189_6640)">
<path d="M81.9985 239.967C119.809 218.168 117.693 228.332 121.29 250.677C134.587 237.046 128.298 235.333 127.491 219.004C131.204 217.435 102.324 214.035 101.43 213.128" fill="#1D5AD5"/>
</g>
<path d="M82.0444 264.339C87.2727 273.572 113.498 264.13 113.498 264.13C113.498 264.13 139.616 208.697 130.604 202.226C121.591 195.756 51.238 179.005 51.238 179.005C51.238 179.005 11.6373 246.143 97.6978 228.878C97.6978 228.878 76.816 255.105 82.0444 264.339Z" stroke="#020000" stroke-width="0.116028" stroke-miterlimit="10"/>
<path d="M151.544 154.635C137.928 158.223 140.754 158.101 142.359 169.028C153.77 159.626 152.444 162.688 164.808 163.911C169.217 164.164 159.527 152.78 151.544 154.635Z" fill="#FFF2E5" stroke="#020000" stroke-width="0.116028" stroke-miterlimit="10"/>
<path d="M99.7128 174.415C98.9195 168.905 97.0943 144.204 93.3021 140.308L59.5908 159.602C59.5908 159.602 85.8069 200.394 94.024 199.804C100.019 199.373 123.939 191.32 138.834 180.578L140.648 158.37C125.164 164.141 99.7128 174.415 99.7128 174.415Z" fill="#FFAD5B"/>
<path d="M99.7128 174.415C98.9195 168.905 97.0943 144.204 93.3021 140.308L59.5908 159.602C59.5908 159.602 85.8069 200.394 94.024 199.804C100.019 199.373 123.939 191.32 138.834 180.578L140.648 158.37C125.164 164.141 99.7128 174.415 99.7128 174.415Z" stroke="#020000" stroke-width="0.116028" stroke-miterlimit="10"/>
<path d="M108.245 142.099L76.981 151.46L79.8761 132.077H106.731L108.245 142.099Z" fill="#FFF2E5"/>
<mask id="mask25_189_6640" style="mask-type:luminance" maskUnits="userSpaceOnUse" x="76" y="132" width="33" height="20">
<path d="M108.245 142.099L76.981 151.46L79.8761 132.077H106.731L108.245 142.099Z" fill="white"/>
</mask>
<g mask="url(#mask25_189_6640)">
<path d="M103.569 135.896C103.207 143.368 102.289 143.112 99.4814 146.783C103.67 150.597 112.561 149.226 109.349 142.773" fill="#F39536"/>
</g>
<path d="M108.245 142.099L76.981 151.46L79.8761 132.077H106.731L108.245 142.099Z" stroke="#020000" stroke-width="0.116028" stroke-miterlimit="10"/>
<path d="M125.922 253.01L122.223 285.822L138.205 282.043L142.814 250.677L125.922 253.01Z" fill="#FFF2E5"/>
<mask id="mask26_189_6640" style="mask-type:luminance" maskUnits="userSpaceOnUse" x="122" y="250" width="21" height="36">
<path d="M125.922 253.01L122.223 285.822L138.205 282.043L142.814 250.677L125.922 253.01Z" fill="white"/>
</mask>
<g mask="url(#mask26_189_6640)">
<path d="M122.379 276.159C124.973 268.157 143.116 265.683 140.535 262.619C132.336 262.07 123.771 263.297 120.783 267.716" fill="#F39536"/>
</g>
<path d="M125.922 253.01L122.223 285.822L138.205 282.043L142.814 250.677L125.922 253.01Z" stroke="#020000" stroke-width="0.116028" stroke-miterlimit="10"/>
<path d="M121.719 281.242L120.489 295.384L166.571 295.84C155.384 266.138 131.731 304.146 141.443 276.297L121.719 281.242Z" fill="#F5CD47"/>
<mask id="mask27_189_6640" style="mask-type:luminance" maskUnits="userSpaceOnUse" x="120" y="276" width="47" height="20">
<path d="M121.719 281.242L120.489 295.384L166.571 295.84C155.384 266.138 131.731 304.146 141.443 276.297L121.719 281.242Z" fill="white"/>
</mask>
<g mask="url(#mask27_189_6640)">
<path d="M181.349 292.213H110.152V300.127H181.349V292.213Z" fill="#F5CD47" stroke="#020000" stroke-width="0.116028" stroke-miterlimit="10"/>
</g>
<path d="M121.719 281.242L120.489 295.384L166.571 295.84C155.384 266.138 131.731 304.146 141.443 276.297L121.719 281.242Z" stroke="#020000" stroke-width="0.116028" stroke-miterlimit="10"/>
<path d="M113.497 264.13C122.181 269.308 144.857 263.832 144.857 263.832C144.857 263.832 155.771 209.336 146.782 196.948C134.312 179.761 35.6056 193.511 35.6056 193.511C35.6056 193.511 0.768322 247.961 122.223 223.045C122.223 223.045 104.814 258.952 113.497 264.13Z" fill="#006EC2"/>
<mask id="mask28_189_6640" style="mask-type:luminance" maskUnits="userSpaceOnUse" x="30" y="188" width="121" height="79">
<path d="M113.497 264.13C122.181 269.308 144.857 263.832 144.857 263.832C144.857 263.832 155.771 209.336 146.782 196.948C134.312 179.761 35.6056 193.511 35.6056 193.511C35.6056 193.511 0.768322 247.961 122.223 223.045C122.223 223.045 104.814 258.952 113.497 264.13Z" fill="white"/>
</mask>
<g mask="url(#mask28_189_6640)">
<path d="M116.698 188.982C78.3352 215.664 77.8955 201.392 77.8955 201.392C20.9861 216.828 55.0339 230.516 55.0339 230.516C55.0339 230.516 48.0142 260.073 35.914 241.606C23.8139 223.139 10.1836 197.096 10.1836 197.096L59.5906 181.929H115.093M165.925 196.687C164.962 211.579 139.084 210.281 138.682 196.687C139.645 181.796 165.523 183.094 165.925 196.687Z" fill="#1D5AD5"/>
<path d="M59.5907 197.241C41.2973 240.929 121.666 209.86 129.963 209.333C136.878 208.893 128.546 264.036 128.546 264.036" stroke="#1D5AD5" stroke-width="0.780755" stroke-linecap="round" stroke-linejoin="round"/>
</g>
<path d="M113.497 264.13C122.181 269.308 144.857 263.832 144.857 263.832C144.857 263.832 155.771 209.336 146.782 196.948C134.312 179.761 35.6056 193.511 35.6056 193.511C35.6056 193.511 0.768322 247.961 122.223 223.045C122.223 223.045 104.814 258.952 113.497 264.13Z" stroke="#020000" stroke-width="0.116028" stroke-miterlimit="10"/>
<path d="M27.2703 193.92C26.7208 222.94 80.4374 196.65 80.4374 196.65L95.0778 150.286C95.0778 150.286 87.5523 136.74 95.0778 131.096C95.0778 131.096 28.6792 119.516 27.2703 193.92Z" fill="#FFAD5B"/>
<mask id="mask29_189_6640" style="mask-type:luminance" maskUnits="userSpaceOnUse" x="27" y="130" width="69" height="78">
<path d="M27.2698 193.92C26.7203 222.94 80.4369 196.65 80.4369 196.65L95.0773 150.286C95.0773 150.286 87.5518 136.74 95.0773 131.096C95.0773 131.096 28.6787 119.516 27.2698 193.92Z" fill="white"/>
</mask>
<g mask="url(#mask29_189_6640)">
<path d="M59.5904 158.409C46.609 179.01 85.6545 190.547 69.2521 201.392C52.8497 212.237 37.1464 208.085 47.9256 213.949C58.7047 219.813 76.7479 210.535 76.7479 210.535L100.705 184.854C73.4509 154.467 91.6645 157.424 59.5904 158.409Z" fill="#F58B21"/>
<path d="M54.7405 129.09C58.5512 138.91 67.5839 142.327 67.5839 142.327C67.5839 142.327 36.5786 148.29 42.1421 182.585L23.083 182.878L30.976 142.327" fill="#F5CD47"/>
<path d="M54.7405 129.09C58.5512 138.91 67.5839 142.327 67.5839 142.327C67.5839 142.327 36.5786 148.29 42.1421 182.585L23.083 182.878L30.976 142.327" stroke="#020000" stroke-width="0.116028" stroke-miterlimit="10"/>
<path d="M97.9135 126.652C79.2026 125.352 90.9983 160.317 97.602 156.905" stroke="#F58B21" stroke-width="0.780755" stroke-linecap="round" stroke-linejoin="round"/>
<path d="M95.0775 133.761L88.1787 133.978" stroke="#F58B21" stroke-width="0.780755" stroke-linecap="round" stroke-linejoin="round"/>
<path d="M94.6364 137.951L87.8442 138.826" stroke="#F58B21" stroke-width="0.780755" stroke-linecap="round" stroke-linejoin="round"/>
<path d="M95.0772 142.623L88.5112 143.826" stroke="#F58B21" stroke-width="0.780755" stroke-linecap="round" stroke-linejoin="round"/>
<path d="M96.726 147.165L90.0845 149.07" stroke="#F58B21" stroke-width="0.780755" stroke-linecap="round" stroke-linejoin="round"/>
<path d="M20.5078 193.927C60.3377 219.211 77.2753 184.129 87.1559 192.755" stroke="#F58B21" stroke-width="0.780755" stroke-linecap="round" stroke-linejoin="round"/>
<path d="M35.5043 208.837C34.1303 207.353 32.0234 200.099 32.0234 200.099M40.7439 209.332C40.7439 209.332 37.6074 202.673 37.7467 201.972M47.1194 208.966C47.1194 208.966 44.1263 203.81 44.4137 202.943M52.6888 208.086C52.6888 208.086 49.9205 203.778 50.4252 202.928" stroke="#F58B21" stroke-width="0.780755" stroke-linecap="round" stroke-linejoin="round"/>
<path d="M62.3618 205.521L63.1126 200.318" stroke="#F58B21" stroke-width="0.780755" stroke-linecap="round" stroke-linejoin="round"/>
<path d="M69.1772 203.103L69.2628 197.833" stroke="#F58B21" stroke-width="0.780755" stroke-linecap="round" stroke-linejoin="round"/>
</g>
<path d="M27.2703 193.92C26.7208 222.94 80.4374 196.65 80.4374 196.65L95.0778 150.286C95.0778 150.286 87.5523 136.74 95.0778 131.096C95.0778 131.096 28.6792 119.516 27.2703 193.92Z" stroke="#020000" stroke-width="0.116028" stroke-miterlimit="10"/>
<path d="M203.444 164.589H134.312V179.761H203.444V164.589Z" fill="#006EC2"/>
<mask id="mask30_189_6640" style="mask-type:luminance" maskUnits="userSpaceOnUse" x="134" y="164" width="70" height="16">
<path d="M203.444 164.589H134.312V179.761H203.444V164.589Z" fill="white"/>
</mask>
<g mask="url(#mask30_189_6640)">
<path d="M127.396 158.559C124.043 176.123 212.499 153.996 203.388 185.886C207.683 154.336 209.556 161.633 192.438 156.203" fill="#1D5AD5"/>
</g>
<path d="M203.444 164.589H134.312V179.761H203.444V164.589Z" stroke="#020000" stroke-width="0.116028" stroke-miterlimit="10"/>
<path d="M192.439 179.761H154.059V297.779H192.439V179.761Z" fill="#F5CD47"/>
<path d="M192.439 179.761H154.059V297.779H192.439V179.761Z" stroke="#020000" stroke-width="0.116028" stroke-miterlimit="10"/>
<path d="M182.76 161.667H144.181V164.588H182.76V161.667Z" fill="#F5CD47" stroke="#020000" stroke-width="0.116028" stroke-miterlimit="10"/>
<path d="M184.315 161.666H145.736V164.587H184.315V161.666Z" fill="#F5CD47" stroke="#020000" stroke-width="0.116028" stroke-miterlimit="10"/>
<path d="M189.041 124.461L190.398 124.462L184.261 164.589L182.904 164.588L189.041 124.461Z" fill="#F5CD47" stroke="#020000" stroke-width="0.116028" stroke-miterlimit="10"/>
<path d="M137.126 154.989C133.474 155.946 131.152 156.696 129.725 157.521C129.164 157.845 122.916 160.593 122.605 160.958C121.01 162.83 128.199 163.046 128.925 168.748C138.772 160.255 137.378 162.307 148.679 163.864C153.42 164.41 144.194 153.223 137.126 154.989Z" fill="#FFF2E5"/>
<mask id="mask31_189_6640" style="mask-type:luminance" maskUnits="userSpaceOnUse" x="122" y="154" width="28" height="15">
<path d="M137.126 154.989C133.474 155.946 131.152 156.696 129.725 157.521C129.164 157.845 122.916 160.593 122.605 160.958C121.01 162.83 128.199 163.046 128.925 168.748C138.772 160.255 137.378 162.307 148.679 163.864C153.42 164.41 144.194 153.223 137.126 154.989Z" fill="white"/>
</mask>
<g mask="url(#mask31_189_6640)">
<path d="M127.397 157.24C127.559 157.81 127.726 158.341 127.897 158.831C130.454 166.201 133.756 165.016 133.756 165.016C130.594 173.846 127.646 170.034 123.128 170.059L125.822 158.285" fill="#F39536"/>
</g>
<path d="M137.126 154.989C133.474 155.946 131.152 156.696 129.725 157.521C129.164 157.845 122.916 160.593 122.605 160.958C121.01 162.83 128.199 163.046 128.925 168.748C138.772 160.255 137.378 162.307 148.679 163.864C153.42 164.41 144.194 153.223 137.126 154.989Z" stroke="#020000" stroke-width="0.116028" stroke-miterlimit="10"/>
<path d="M56.8887 156.31C65.4539 172.501 81.4784 201.39 86.7753 201.391C100.976 201.396 129.075 198.546 130.37 195.528C131.666 192.509 129.341 159.061 125.897 157.742C122.453 156.423 90.8448 173.897 90.8448 173.897L85.6924 151.118" fill="#FFAD5B"/>
<mask id="mask32_189_6640" style="mask-type:luminance" maskUnits="userSpaceOnUse" x="56" y="151" width="75" height="51">
<path d="M56.8887 156.31C65.4539 172.501 81.4784 201.39 86.7753 201.391C100.976 201.396 129.075 198.546 130.37 195.528C131.666 192.509 129.341 159.061 125.897 157.742C122.453 156.423 90.8448 173.897 90.8448 173.897L85.6924 151.118" fill="white"/>
</mask>
<g mask="url(#mask32_189_6640)">
<path d="M104.035 199.101C104.623 191.583 72.8955 190.658 70.4304 198.241C66.8468 207.186 104.267 207.562 104.035 199.101Z" stroke="#F58B21" stroke-width="0.780755" stroke-linecap="round" stroke-linejoin="round" stroke-dasharray="1.56 3.12"/>
<path d="M115.711 158.108C125.146 160.014 124.899 175.613 123.006 182.749" stroke="#F58B21" stroke-width="0.780755" stroke-linecap="round" stroke-linejoin="round"/>
<path d="M129.963 158.108L121.427 161.667" stroke="#F58B21" stroke-width="0.780755" stroke-linecap="round" stroke-linejoin="round"/>
<path d="M130.88 160.966L123.112 165.143" stroke="#F58B21" stroke-width="0.780755" stroke-linecap="round" stroke-linejoin="round"/>
<path d="M132.053 163.128L123.914 170.806" stroke="#F58B21" stroke-width="0.780755" stroke-linecap="round" stroke-linejoin="round"/>
</g>
<path d="M56.8887 156.31C65.4539 172.501 81.4784 201.39 86.7753 201.391C100.976 201.396 129.075 198.546 130.37 195.528C131.666 192.509 129.341 159.061 125.897 157.742C122.453 156.423 90.8448 173.897 90.8448 173.897L85.6924 151.118" stroke="#020000" stroke-width="0.116028" stroke-miterlimit="10"/>
<path d="M28.1947 301.441H26.0752C27.5959 300.603 41.7054 227.8 45.7529 231.641L28.1947 301.441ZM108.033 301.441H110.152C108.632 300.603 94.522 227.8 90.4745 231.641L108.033 301.441Z" fill="#F5CD47" stroke="#020000" stroke-width="0.116028" stroke-miterlimit="10"/>
<path d="M99.2105 233.149C99.159 233.142 44.2174 233.154 36.7643 233.149C36.9507 234.533 31.7187 230.957 35.957 227.88C36.01 227.889 90.9516 227.877 98.4047 227.882C98.2184 226.498 103.45 230.074 99.2105 233.149Z" fill="#0D378B"/>
<path d="M99.2105 233.149C99.159 233.142 44.2174 233.154 36.7643 233.149C36.9507 234.533 31.7187 230.957 35.957 227.88C36.01 227.889 90.9516 227.877 98.4047 227.882C98.2184 226.498 103.45 230.074 99.2105 233.149Z" stroke="#020000" stroke-width="0.116028" stroke-miterlimit="10"/>
<path d="M67.5845 216.806C80.0232 212.629 71.2295 205.154 71.2295 205.154" stroke="#1D5AD5" stroke-width="0.780755" stroke-linecap="round" stroke-linejoin="round"/>
<path d="M110.823 136.996C110.73 136.306 108.564 135.77 109.103 137.814" stroke="#020000" stroke-width="0.780755" stroke-linecap="round" stroke-linejoin="round"/>
<path d="M90.8203 174.394C89.9224 175.738 88.7028 176.837 87.2723 177.591M46.501 190.249C47.5075 190.984 48.6502 191.512 49.8627 191.801C51.0751 192.091 52.333 192.136 53.5631 191.934" stroke="#F58B21" stroke-width="0.780755" stroke-linecap="round" stroke-linejoin="round"/>
<path d="M122.766 222.759L124.531 220.713" stroke="#1D5AD5" stroke-width="0.780755" stroke-linecap="round" stroke-linejoin="round"/>
<path d="M172.644 251.584C174.586 255.359 177.518 258.533 181.128 260.767" stroke="#FF8B2E" stroke-width="0.780755" stroke-linecap="round" stroke-linejoin="round"/>
<path d="M138.096 161.611C138.1 161.149 138.234 160.696 138.481 160.305" stroke="#F39536" stroke-width="0.780755" stroke-linecap="round" stroke-linejoin="round"/>
<path d="M99.5913 133.83L110.275 125.724C114.287 130.815 120.406 148.566 104.394 142.037" fill="#FFF2E5"/>
<mask id="mask33_189_6640" style="mask-type:luminance" maskUnits="userSpaceOnUse" x="99" y="125" width="16" height="19">
<path d="M99.5913 133.83L110.275 125.724C114.287 130.815 120.406 148.566 104.394 142.037" fill="white"/>
</mask>
<g mask="url(#mask33_189_6640)">
<path d="M102.77 135.278C108.169 130.139 105.55 130.319 113.291 129.079C111.888 125.418 103.212 126.411 101.29 128.692" fill="#F39536"/>
</g>
<path d="M99.5913 133.83L110.275 125.724C114.287 130.815 120.406 148.566 104.394 142.037" stroke="#020000" stroke-width="0.116028" stroke-miterlimit="10"/>
<path d="M112.393 123.094C112.155 123.095 111.917 123.123 111.684 123.177C111.87 121.972 110.794 120.249 108.863 120.233C108.968 116.403 101.923 115.558 102.445 120.994C101.645 121.002 100.65 121.404 99.908 122.928C95.2673 122.628 90.9419 126.336 95.34 132.158C88.8341 135.362 102.49 144.247 102.77 135.278C103.517 135.099 105.097 133.78 104.638 131.92C106.29 131.791 107.595 130.383 107.635 128.647C111.506 131.931 120.601 126.548 112.393 123.094Z" fill="#020000" stroke="#020000" stroke-width="0.116028" stroke-miterlimit="10"/>
<path d="M101.933 139.389C95.1763 137.904 102.692 129.116 104.751 136.466L101.933 139.389Z" fill="#FFF2E5"/>
<path d="M101.933 139.389C95.1763 137.904 102.692 129.116 104.751 136.466" stroke="#020000" stroke-width="0.116028" stroke-miterlimit="10"/>
<path d="M111.334 134.417C111.137 134.534 108.953 133.227 110.419 131.649C110.819 131.507 110.419 131.649 111.391 132.142C111.221 132.888 112.524 132.648 111.334 134.417Z" fill="#280E0E"/>
<path d="M112.158 132.385C113.2 135.379 110.255 136.41 109.086 133.7C108.045 130.707 110.99 129.676 112.158 132.385Z" fill="white"/>
<mask id="mask34_189_6640" style="mask-type:luminance" maskUnits="userSpaceOnUse" x="108" y="130" width="5" height="6">
<path d="M112.158 132.385C113.2 135.379 110.255 136.41 109.086 133.7C108.045 130.707 110.99 129.676 112.158 132.385Z" fill="white"/>
</mask>
<g mask="url(#mask34_189_6640)">
<path d="M112.527 132.436C112.959 133.901 111.499 134.554 110.903 132.989C110.471 131.525 111.931 130.872 112.527 132.436Z" fill="#280E0E"/>
</g>
<path d="M112.72 131.999C115.28 133.357 117.681 133.772 113.867 136.047L112.72 131.999Z" fill="#FFF2E5"/>
<path d="M112.72 131.999C115.28 133.357 117.681 133.772 113.867 136.047" stroke="#020000" stroke-width="0.116028" stroke-miterlimit="10"/>
<path d="M110.235 128.909C108.016 129.584 107.84 130.697 109.254 130.368C110.667 130.04 111.685 128.467 110.235 128.909Z" fill="#280E0E"/>
<path opacity="0.3" d="M109.362 135.827C109.144 138.278 102.91 136.115 107.884 134.427C108.4 134.509 108.912 134.557 109.362 135.827Z" fill="#F39536"/>
<path d="M110.147 137.342C110.569 137.708 111.09 137.939 111.644 138.007M102.576 135.756C102.287 135.299 100.634 135.656 101.671 136.919" stroke="#AD2F12" stroke-width="0.464113" stroke-linecap="round" stroke-linejoin="round"/>
<path d="M139.016 124.844C152.818 124.844 164.006 113.656 164.006 99.8542C164.006 86.0526 152.818 74.8643 139.016 74.8643C125.215 74.8643 114.026 86.0526 114.026 99.8542C114.026 113.656 125.215 124.844 139.016 124.844Z" fill="#0D378B"/>
<mask id="mask35_189_6640" style="mask-type:luminance" maskUnits="userSpaceOnUse" x="114" y="74" width="51" height="51">
<path d="M139.016 124.844C152.818 124.844 164.006 113.656 164.006 99.8542C164.006 86.0526 152.818 74.8643 139.016 74.8643C125.215 74.8643 114.026 86.0526 114.026 99.8542C114.026 113.656 125.215 124.844 139.016 124.844Z" fill="white"/>
</mask>
<g mask="url(#mask35_189_6640)">
<path d="M157.545 68.0693C171.029 126.694 136.572 130.212 125.661 126.988C114.749 123.763 165.753 138.914 165.753 138.914L186.836 104.803" fill="#041C3A"/>
</g>
<path d="M139.016 124.844C152.818 124.844 164.006 113.656 164.006 99.8542C164.006 86.0526 152.818 74.8643 139.016 74.8643C125.215 74.8643 114.026 86.0526 114.026 99.8542C114.026 113.656 125.215 124.844 139.016 124.844Z" stroke="#020000" stroke-width="0.116028" stroke-miterlimit="10"/>
<path d="M222.273 201.029C227.783 201.029 232.249 196.562 232.249 191.052C232.249 185.543 227.783 181.076 222.273 181.076C216.763 181.076 212.297 185.543 212.297 191.052C212.297 196.562 216.763 201.029 222.273 201.029Z" fill="#006EC2" stroke="#020000" stroke-width="0.116028" stroke-miterlimit="10"/>
<path d="M10.9338 182.243C16.4435 182.243 20.91 177.776 20.91 172.266C20.91 166.757 16.4435 162.29 10.9338 162.29C5.42403 162.29 0.95752 166.757 0.95752 172.266C0.95752 177.776 5.42403 182.243 10.9338 182.243Z" fill="#FFF2E5" stroke="#020000" stroke-width="0.116028" stroke-miterlimit="10"/>
<path d="M141.332 103.843C140.718 104.457 139.885 104.802 139.016 104.802C138.148 104.802 137.315 104.457 136.7 103.843L125.669 92.8115C125.668 92.839 125.661 92.8646 125.661 92.8923V106.815C125.661 107.202 125.737 107.585 125.885 107.942C126.033 108.299 126.249 108.623 126.523 108.897C126.796 109.17 127.12 109.387 127.478 109.535C127.835 109.682 128.217 109.759 128.604 109.759H149.428C149.815 109.759 150.198 109.682 150.555 109.535C150.912 109.387 151.236 109.17 151.51 108.897C151.783 108.623 152 108.299 152.148 107.942C152.295 107.585 152.372 107.202 152.372 106.815V92.8923C152.372 92.8646 152.364 92.839 152.363 92.8115L141.332 103.843Z" fill="#F5CD47"/>
<mask id="mask36_189_6640" style="mask-type:luminance" maskUnits="userSpaceOnUse" x="125" y="92" width="28" height="18">
<path d="M141.332 103.843C140.718 104.457 139.885 104.802 139.016 104.802C138.148 104.802 137.315 104.457 136.7 103.843L125.669 92.8115C125.668 92.839 125.661 92.8646 125.661 92.8923V106.815C125.661 107.202 125.737 107.585 125.885 107.942C126.033 108.299 126.249 108.623 126.523 108.897C126.796 109.17 127.12 109.387 127.478 109.535C127.835 109.682 128.217 109.759 128.604 109.759H149.428C149.815 109.759 150.198 109.682 150.555 109.535C150.912 109.387 151.236 109.17 151.51 108.897C151.783 108.623 152 108.299 152.148 107.942C152.295 107.585 152.372 107.202 152.372 106.815V92.8923C152.372 92.8646 152.364 92.839 152.363 92.8115L141.332 103.843Z" fill="white"/>
</mask>
<g mask="url(#mask36_189_6640)">
<path d="M122.114 97.3758C125.669 92.8116 134.074 109.759 139.016 104.802C142.779 103.684 139.016 92.8116 139.016 92.8116L122.883 89.9492" fill="#FF8B2E"/>
</g>
<path d="M141.332 103.843C140.718 104.457 139.885 104.802 139.016 104.802C138.148 104.802 137.315 104.457 136.7 103.843L125.669 92.8115C125.668 92.839 125.661 92.8646 125.661 92.8923V106.815C125.661 107.202 125.737 107.585 125.885 107.942C126.033 108.299 126.249 108.623 126.523 108.897C126.796 109.17 127.12 109.387 127.478 109.535C127.835 109.682 128.217 109.759 128.604 109.759H149.428C149.815 109.759 150.198 109.682 150.555 109.535C150.912 109.387 151.236 109.17 151.51 108.897C151.783 108.623 152 108.299 152.148 107.942C152.295 107.585 152.372 107.202 152.372 106.815V92.8923C152.372 92.8646 152.364 92.839 152.363 92.8115L141.332 103.843Z" stroke="#020000" stroke-width="0.116028" stroke-miterlimit="10"/>
<path d="M141.332 103.843L152.364 92.8116C152.344 92.0462 152.026 91.3187 151.478 90.7841C150.929 90.2494 150.194 89.9499 149.429 89.9492H128.604C127.838 89.9499 127.103 90.2494 126.555 90.7841C126.007 91.3187 125.689 92.0462 125.669 92.8116L136.701 103.843C137.315 104.457 138.148 104.802 139.016 104.802C139.885 104.802 140.718 104.457 141.332 103.843Z" fill="#F5CD47" stroke="#020000" stroke-width="0.116028" stroke-miterlimit="10"/>
<mask id="mask37_189_6640" style="mask-type:luminance" maskUnits="userSpaceOnUse" x="292" y="177" width="58" height="58">
<path d="M320.934 234.079C336.458 234.079 349.043 221.494 349.043 205.969C349.043 190.445 336.458 177.86 320.934 177.86C305.41 177.86 292.825 190.445 292.825 205.969C292.825 221.494 305.41 234.079 320.934 234.079Z" fill="white"/>
</mask>
<g mask="url(#mask37_189_6640)">
<path d="M320.934 234.079C336.458 234.079 349.043 221.494 349.043 205.969C349.043 190.445 336.458 177.86 320.934 177.86C305.41 177.86 292.825 190.445 292.825 205.969C292.825 221.494 305.41 234.079 320.934 234.079Z" fill="#F5CD47" stroke="#020000" stroke-width="0.116028" stroke-miterlimit="10"/>
<path d="M326.354 204.028C339.326 223.636 336.506 215.943 326.579 230.828L315.593 205.768L326.354 204.028Z" fill="#FFF2E5"/>
<mask id="mask38_189_6640" style="mask-type:luminance" maskUnits="userSpaceOnUse" x="315" y="204" width="21" height="27">
<path d="M326.354 204.028C339.326 223.636 336.506 215.943 326.579 230.828L315.593 205.768L326.354 204.028Z" fill="white"/>
</mask>
<g mask="url(#mask38_189_6640)">
<path d="M319.795 218.403C321.698 218.623 324.42 210.764 321.065 212.915C317.71 215.066 318.124 214.975 317.544 218.55" fill="#F39536"/>
</g>
<path d="M326.354 204.028C339.326 223.636 336.506 215.943 326.579 230.828L315.593 205.768L326.354 204.028Z" stroke="#020000" stroke-width="0.116028" stroke-miterlimit="10"/>
<path d="M270.53 231.301C255.878 251.764 260.891 254.843 284.375 269.246C334.624 300.066 327.418 249.579 343.084 229.368L320.276 227.605L306.085 245.51L274.031 230.36C273.43 230.081 272.75 230.022 272.109 230.194C271.469 230.365 270.91 230.757 270.53 231.301Z" fill="#4BCE97"/>
<mask id="mask39_189_6640" style="mask-type:luminance" maskUnits="userSpaceOnUse" x="262" y="227" width="82" height="52">
<path d="M270.53 231.301C255.878 251.764 260.891 254.843 284.375 269.246C334.624 300.066 327.418 249.579 343.084 229.368L320.276 227.605L306.085 245.51L274.031 230.36C273.43 230.081 272.75 230.022 272.109 230.194C271.469 230.365 270.91 230.757 270.53 231.301Z" fill="white"/>
</mask>
<g mask="url(#mask39_189_6640)">
</g>
<path d="M270.53 231.301C255.878 251.764 260.891 254.843 284.375 269.246C334.624 300.066 327.418 249.579 343.084 229.368L320.276 227.605L306.085 245.51L274.031 230.36C273.43 230.081 272.75 230.022 272.109 230.194C271.469 230.365 270.91 230.757 270.53 231.301Z" stroke="#020000" stroke-width="0.116028" stroke-miterlimit="10"/>
<path d="M323.082 241.922C326.06 252.961 338.566 269.692 335.766 278.587C335.508 287.928 379.109 279.206 383.526 280.837C359.267 242.328 382.519 232.167 332.047 210.417C329.102 220.083 316.665 221.83 320.365 228.086" fill="#4BCE97"/>
<mask id="mask40_189_6640" style="mask-type:luminance" maskUnits="userSpaceOnUse" x="319" y="210" width="65" height="73">
<path d="M323.082 241.922C326.06 252.961 338.566 269.692 335.766 278.587C335.508 287.928 379.109 279.206 383.526 280.837C359.267 242.328 382.519 232.167 332.047 210.417C329.102 220.083 316.665 221.83 320.365 228.086" fill="white"/>
</mask>
<g mask="url(#mask40_189_6640)">
<path d="M346.868 239.059C341.762 241.923 370.314 257.033 368.506 265.669C366.699 274.306 356.044 281.193 337.06 281.786C299.093 282.971 332.803 304.098 332.803 304.098L397.867 296.314L413.588 278.884L392.722 240.718L349.605 227.679" fill="#57AD00"/>
<mask id="mask41_189_6640" style="mask-type:luminance" maskUnits="userSpaceOnUse" x="311" y="208" width="27" height="20">
<path d="M311.255 224.312C318.508 235.797 341.994 214.092 336.824 208.044L311.255 224.312Z" fill="white"/>
</mask>
<g mask="url(#mask41_189_6640)">
<path d="M321.42 220.209C320.675 222.95 324.115 227.024 324.115 227.024M324.548 218.084C322.906 219.633 326.773 224.117 326.773 224.117M326.816 214.786C325.017 216.105 329.571 221.786 329.571 221.786M329.571 212.295C327.832 213.98 332.837 217.937 332.837 217.937M330.413 211.122C332.358 211.523 335.964 215.959 335.964 215.959" stroke="#57AD00" stroke-width="0.780755" stroke-linecap="round" stroke-linejoin="round"/>
</g>
<path d="M311.255 224.312C318.508 235.797 341.994 214.092 336.824 208.044" stroke="#57AD00" stroke-width="0.780755" stroke-linecap="round" stroke-linejoin="round"/>
<path d="M334.485 246.499C324.521 241.515 334.054 232.635 336.677 238.515C339.532 244.913 345.005 236.434 335.954 234.374C328.459 232.668 325.313 241.885 330.456 246.5C335.599 251.115 334.485 246.499 334.485 246.499Z" fill="#F5CD47"/>
<mask id="mask42_189_6640" style="mask-type:luminance" maskUnits="userSpaceOnUse" x="327" y="234" width="14" height="15">
<path d="M334.485 246.499C324.521 241.515 334.054 232.635 336.677 238.515C339.532 244.913 345.005 236.434 335.954 234.374C328.459 232.668 325.313 241.885 330.456 246.5C335.599 251.115 334.485 246.499 334.485 246.499Z" fill="white"/>
</mask>
<g mask="url(#mask42_189_6640)">
</g>
<path d="M334.485 246.499C324.521 241.515 334.054 232.635 336.677 238.515C339.532 244.913 345.005 236.434 335.954 234.374C328.459 232.668 325.313 241.885 330.456 246.5C335.599 251.115 334.485 246.499 334.485 246.499Z" stroke="#020000" stroke-width="0.116028" stroke-miterlimit="10"/>
<path d="M326.985 261.768C323.413 249.131 331.833 232.458 341.779 247.908C352.809 265.042 353.851 260.317 353.692 255.795C353.692 255.795 355.185 256.193 356.248 258.717C356.248 258.717 357.406 258.001 358.582 259.316C358.582 259.316 359.311 257.179 359.434 256.623C360.683 259.502 368.478 267.875 357.27 268.959C352.594 272.636 344.494 267.899 342.656 268.505C333.442 266.71 327.854 269.027 326.985 261.768Z" fill="#F5CD47"/>
</g>
<path d="M323.082 241.922C326.06 252.961 338.566 269.692 335.766 278.587C335.508 287.928 379.109 279.206 383.526 280.837C359.267 242.328 382.519 232.167 332.047 210.417C329.102 220.083 316.665 221.83 320.365 228.086" stroke="#020000" stroke-width="0.116028" stroke-miterlimit="10"/>
<path d="M344.58 238.236C356.769 244.641 366.543 249.686 368.829 254.923C373.456 265.524 380.187 286.409 380.245 286.57C380.479 287.393 404.465 284.007 400.863 279.8C393.293 253.976 394.918 229.77 377.167 224.547C362.038 217.148 353.234 217.762 345.168 216.779" fill="#4BCE97"/>
<path d="M344.58 238.236C356.769 244.641 366.543 249.686 368.829 254.923C373.456 265.524 380.187 286.409 380.245 286.57C380.479 287.393 404.465 284.007 400.863 279.8C393.293 253.976 394.918 229.77 377.167 224.547C362.038 217.148 353.234 217.762 345.168 216.779" stroke="#020000" stroke-width="0.116028" stroke-miterlimit="10"/>
<path d="M328.271 208.268C328.447 206.532 327.571 205.022 326.314 204.894C325.057 204.767 323.895 206.071 323.719 207.806C323.543 209.542 324.419 211.053 325.676 211.18C326.933 211.307 328.095 210.004 328.271 208.268Z" fill="#020000" stroke="#020000" stroke-width="0.116028" stroke-miterlimit="10"/>
<path d="M313.054 194.936C313.844 197.936 306.002 214.805 318.273 214.006C330.544 213.206 325.933 193.177 325.933 193.177L313.054 194.936Z" fill="#FFF2E5"/>
<mask id="mask43_189_6640" style="mask-type:luminance" maskUnits="userSpaceOnUse" x="311" y="193" width="16" height="22">
<path d="M313.054 194.936C313.844 197.936 306.002 214.805 318.273 214.006C330.544 213.206 325.933 193.177 325.933 193.177L313.054 194.936Z" fill="white"/>
</mask>
<g mask="url(#mask43_189_6640)">
<path d="M312.262 196.894C311.166 204.256 318.609 199.428 322.514 195.715C326.42 192.003 325.033 203.402 326.498 203.079C327.963 202.756 327.71 197.454 327.71 197.454L325.238 192.831L317.459 193.622" fill="#F39536"/>
<path opacity="0.3" d="M309.76 205.78C309.911 206.494 310.759 206.982 311.683 206.873C312.638 206.76 313.319 206.052 313.17 205.291C313.021 204.524 312.097 204.034 311.138 204.196C310.211 204.352 309.608 205.062 309.76 205.78Z" fill="#F39536"/>
</g>
<path d="M313.054 194.936C313.844 197.936 306.002 214.805 318.273 214.006C330.544 213.206 325.933 193.177 325.933 193.177L313.054 194.936Z" stroke="#020000" stroke-width="0.116028" stroke-miterlimit="10"/>
<path d="M327.194 204.881C324.722 205.506 328.752 192.732 322.534 195.021C314.601 200.507 308.381 198.549 310.894 194.643C304.744 194.823 307.531 186.054 315.844 189.014C324.157 191.974 324.952 183.952 328.173 193.403C328.173 193.403 335.395 191.289 330.068 204.224L327.194 204.881Z" fill="#020000"/>
<mask id="mask44_189_6640" style="mask-type:luminance" maskUnits="userSpaceOnUse" x="307" y="188" width="26" height="17">
<path d="M327.194 204.881C324.722 205.506 328.752 192.732 322.534 195.021C314.601 200.507 308.381 198.549 310.894 194.643C304.744 194.823 307.531 186.054 315.844 189.014C324.157 191.974 324.952 183.952 328.173 193.403C328.173 193.403 335.395 191.289 330.068 204.224L327.194 204.881Z" fill="white"/>
</mask>
<g mask="url(#mask44_189_6640)">
<path d="M305.221 192.511C307.922 195.472 310.893 194.643 310.893 194.643C310.893 194.643 314.305 194.855 315.773 193.621C319.13 195.186 308.159 196.249 308.159 196.249L307.39 195.655M316.611 188.478C324.696 194.914 321.494 187.077 321.494 187.077L315.866 188.034M324.682 205.576C329.163 198.706 329.81 199.292 330.974 201.994C332.137 204.696 329.438 205.341 329.438 205.341" fill="#280E0E"/>
</g>
<path d="M327.194 204.881C324.722 205.506 328.752 192.732 322.534 195.021C314.601 200.507 308.381 198.549 310.894 194.643C304.744 194.823 307.531 186.054 315.844 189.014C324.157 191.974 324.952 183.952 328.173 193.403C328.173 193.403 335.395 191.289 330.068 204.224L327.194 204.881Z" stroke="#020000" stroke-width="0.116028" stroke-miterlimit="10"/>
<path d="M325.6 202.999C331.963 197.832 332.207 209.098 325.025 208.662L325.6 202.999Z" fill="#FFF2E5"/>
<path d="M325.6 202.999C331.963 197.832 332.207 209.098 325.025 208.662" stroke="#020000" stroke-width="0.116028" stroke-miterlimit="10"/>
<path d="M317.852 201.277C317.593 203.737 320.009 203.992 320.435 201.617C320.709 199.035 318.253 198.992 317.852 201.277Z" fill="white"/>
<mask id="mask45_189_6640" style="mask-type:luminance" maskUnits="userSpaceOnUse" x="317" y="199" width="4" height="5">
<path d="M317.852 201.277C317.593 203.737 320.009 203.992 320.435 201.617C320.709 199.035 318.253 198.992 317.852 201.277Z" fill="white"/>
</mask>
<g mask="url(#mask45_189_6640)">
<path d="M317.963 201.309C317.956 202.506 319.181 202.642 319.289 201.3C319.295 200.075 318.068 199.996 317.963 201.309Z" fill="#280E0E"/>
</g>
<path d="M312.819 200.96C312.587 203.192 314.566 203.401 314.933 201.254C315.176 198.922 313.165 198.887 312.819 200.96Z" fill="white"/>
<mask id="mask46_189_6640" style="mask-type:luminance" maskUnits="userSpaceOnUse" x="312" y="199" width="3" height="4">
<path d="M312.819 200.96C312.587 203.192 314.566 203.401 314.933 201.254C315.176 198.922 313.165 198.887 312.819 200.96Z" fill="white"/>
</mask>
<g mask="url(#mask46_189_6640)">
<path d="M312.866 201.283C312.857 202.368 313.861 202.489 313.954 201.275C313.963 200.167 312.956 200.093 312.866 201.283Z" fill="#280E0E"/>
</g>
<path d="M313.153 197.334C315.611 197.081 316.122 198.254 314.522 198.496C313.016 198.724 311.668 197.487 313.153 197.334ZM318.754 198.012C321.793 197.324 322.637 198.524 320.658 199.056C318.804 199.555 316.932 198.425 318.754 198.012Z" fill="#280E0E"/>
<path d="M315.171 203.96C315.612 203.314 315.538 201.811 316.038 201.995C316.574 201.892 316.09 203.365 316.421 204.109C316.757 204.865 316.147 205.199 315.694 205.135C315.692 205.135 315.692 205.133 315.691 205.133C315.69 205.133 315.689 205.134 315.688 205.134C315.242 205.071 314.736 204.596 315.171 203.96Z" fill="#F39536"/>
<path opacity="0.3" d="M317.503 205.055C317.654 205.769 318.502 206.258 319.426 206.148C320.382 206.035 321.062 205.327 320.914 204.566C320.764 203.8 319.84 203.309 318.881 203.471C317.955 203.628 317.351 204.337 317.503 205.055Z" fill="#F39536"/>
<path d="M314.631 206.625C314.575 206.658 314.532 206.71 314.509 206.771C314.485 206.833 314.483 206.9 314.502 206.962C315.019 208.57 316.519 208.614 317.271 207.608C318.641 205.991 316.355 205.594 314.631 206.625Z" fill="#F87168"/>
<mask id="mask47_189_6640" style="mask-type:luminance" maskUnits="userSpaceOnUse" x="314" y="206" width="4" height="3">
<path d="M314.631 206.625C314.575 206.658 314.532 206.71 314.509 206.771C314.485 206.833 314.483 206.9 314.502 206.962C315.019 208.57 316.519 208.614 317.271 207.608C318.641 205.991 316.355 205.594 314.631 206.625Z" fill="white"/>
</mask>
<g mask="url(#mask47_189_6640)">
<path d="M317.864 207.611C318.546 209.033 315.371 210.526 315.134 208.215C315.197 206.976 317.051 206.294 317.864 207.611Z" fill="#A52941"/>
<path d="M314.905 206.263C314.659 206.986 317.441 207.24 316.958 205.925L315.116 206.144" fill="white"/>
</g>
<path d="M327.17 204.58C328.146 204.643 328.65 205.73 326.619 205.97" stroke="#AD2F12" stroke-width="0.464113" stroke-linecap="round" stroke-linejoin="round"/>
</g>
</svg>
