<svg width="20" height="20" viewBox="0 0 20 20" fill="none" xmlns="http://www.w3.org/2000/svg">
<path d="M14.6244 19.9997C14.9414 19.9997 15.2074 19.8923 15.4222 19.6775C15.637 19.4626 15.7441 19.1971 15.7433 18.8808C15.7426 18.5645 15.6352 18.299 15.4211 18.0841C15.207 17.8693 14.9414 17.7619 14.6244 17.7619C14.3074 17.7619 14.0418 17.8693 13.8277 18.0841C13.6137 18.299 13.5062 18.5645 13.5055 18.8808C13.5048 19.1971 13.6122 19.463 13.8277 19.6786C14.0433 19.8942 14.3089 20.0012 14.6244 19.9997ZM14.6244 15.524C14.9414 15.524 15.2074 15.4166 15.4222 15.2018C15.637 14.987 15.7441 14.7214 15.7433 14.4051V9.92947C15.7433 9.61244 15.6359 9.34688 15.4211 9.1328C15.2062 8.91871 14.9407 8.8113 14.6244 8.81055C14.3081 8.8098 14.0426 8.91722 13.8277 9.1328C13.6129 9.34838 13.5055 9.61393 13.5055 9.92947V14.4051C13.5055 14.7222 13.6129 14.9881 13.8277 15.2029C14.0426 15.4177 14.3081 15.5248 14.6244 15.524Z" fill="white"/>
<path fill-rule="evenodd" clip-rule="evenodd" d="M7.71499 0.236545C9.02832 -0.0616526 10.3899 -0.0781019 11.7101 0.188281C13.0302 0.454664 14.2789 0.997832 15.374 1.782C16.469 2.56616 17.3855 3.57352 18.063 4.73769C18.7405 5.90186 19.1637 7.19643 19.3047 8.53608C19.3295 8.77188 19.2597 9.00787 19.1105 9.19215C18.9613 9.37642 18.7451 9.49389 18.5094 9.5187C18.2736 9.54351 18.0377 9.47364 17.8535 9.32445C17.6692 9.17527 17.5518 8.95899 17.527 8.72319C17.3738 7.26758 16.8115 5.88516 15.9052 4.73605C14.9988 3.58695 13.7856 2.71818 12.4059 2.23038C11.0263 1.74258 9.53668 1.65572 8.10971 1.97984C6.68273 2.30397 5.37676 3.02582 4.34306 4.06179C3.30936 5.09776 2.59023 6.40546 2.26898 7.8334C1.94773 9.26134 2.0375 10.7511 2.52789 12.1301C3.01828 13.5091 3.88922 14.721 5.03983 15.6252C6.19045 16.5295 7.57365 17.0893 9.02921 17.2396C9.1468 17.2506 9.26105 17.2848 9.36535 17.3402C9.46965 17.3956 9.56194 17.4711 9.63689 17.5624C9.71183 17.6537 9.76794 17.7589 9.80197 17.872C9.836 17.9851 9.84728 18.1039 9.83516 18.2214C9.82303 18.3389 9.78774 18.4528 9.73133 18.5566C9.67492 18.6604 9.5985 18.7519 9.50649 18.826C9.41449 18.9 9.30872 18.9551 9.1953 18.988C9.08188 19.0209 8.96307 19.0311 8.84572 19.0178C6.59726 18.7864 4.50418 17.7633 2.94006 16.1312C1.37595 14.499 0.442591 12.364 0.306587 10.1073C0.170583 7.85053 0.840783 5.61886 2.19756 3.81062C3.55435 2.00237 5.50941 0.735226 7.7138 0.235353L7.71499 0.236545ZM9.82513 3.57471C10.0621 3.57471 10.2894 3.66888 10.457 3.83651C10.6246 4.00414 10.7188 4.23149 10.7188 4.46855V10.7254H5.95276C5.71576 10.7254 5.48846 10.6312 5.32087 10.4636C5.15329 10.296 5.05914 10.0686 5.05914 9.83154C5.05914 9.59448 5.15329 9.36713 5.32087 9.19951C5.48846 9.03188 5.71576 8.93771 5.95276 8.93771H8.93151V4.46855C8.93151 4.23149 9.02566 4.00414 9.19325 3.83651C9.36083 3.66888 9.58813 3.57471 9.82513 3.57471Z" fill="white"/>
</svg>
