<svg width="43" height="42" viewBox="0 0 43 42" fill="none" xmlns="http://www.w3.org/2000/svg">
<circle cx="21.2754" cy="21" r="19.5" fill="#D1E9FB" stroke="white" stroke-width="3"/>
<path d="M20 16.5H23C23 16.1022 22.842 15.7206 22.5607 15.4393C22.2794 15.158 21.8978 15 21.5 15C21.1022 15 20.7206 15.158 20.4393 15.4393C20.158 15.7206 20 16.1022 20 16.5ZM18.5 16.5C18.5 15.7044 18.8161 14.9413 19.3787 14.3787C19.9413 13.8161 20.7044 13.5 21.5 13.5C22.2956 13.5 23.0587 13.8161 23.6213 14.3787C24.1839 14.9413 24.5 15.7044 24.5 16.5H28.25C28.4489 16.5 28.6397 16.579 28.7803 16.7197C28.921 16.8603 29 17.0511 29 17.25C29 17.4489 28.921 17.6397 28.7803 17.7803C28.6397 17.921 28.4489 18 28.25 18H27.5885L26.924 25.755C26.8601 26.5038 26.5175 27.2014 25.9639 27.7098C25.4103 28.2181 24.6861 28.5001 23.9345 28.5H19.0655C18.3139 28.5001 17.5897 28.2181 17.0361 27.7098C16.4825 27.2014 16.1399 26.5038 16.076 25.755L15.4115 18H14.75C14.5511 18 14.3603 17.921 14.2197 17.7803C14.079 17.6397 14 17.4489 14 17.25C14 17.0511 14.079 16.8603 14.2197 16.7197C14.3603 16.579 14.5511 16.5 14.75 16.5H18.5ZM23.75 21C23.75 20.8011 23.671 20.6103 23.5303 20.4697C23.3897 20.329 23.1989 20.25 23 20.25C22.8011 20.25 22.6103 20.329 22.4697 20.4697C22.329 20.6103 22.25 20.8011 22.25 21V24C22.25 24.1989 22.329 24.3897 22.4697 24.5303C22.6103 24.671 22.8011 24.75 23 24.75C23.1989 24.75 23.3897 24.671 23.5303 24.5303C23.671 24.3897 23.75 24.1989 23.75 24V21ZM20 20.25C19.8011 20.25 19.6103 20.329 19.4697 20.4697C19.329 20.6103 19.25 20.8011 19.25 21V24C19.25 24.1989 19.329 24.3897 19.4697 24.5303C19.6103 24.671 19.8011 24.75 20 24.75C20.1989 24.75 20.3897 24.671 20.5303 24.5303C20.671 24.3897 20.75 24.1989 20.75 24V21C20.75 20.8011 20.671 20.6103 20.5303 20.4697C20.3897 20.329 20.1989 20.25 20 20.25Z" fill="#006EC2"/>
</svg>
