<svg width="28" height="28" viewBox="0 0 28 28" fill="none" xmlns="http://www.w3.org/2000/svg">
<path d="M16.6667 5.99935H11.3334C11.3334 5.29211 11.6143 4.61383 12.1144 4.11373C12.6145 3.61363 13.2928 3.33268 14 3.33268C14.7073 3.33268 15.3856 3.61363 15.8857 4.11373C16.3858 4.61383 16.6667 5.29211 16.6667 5.99935ZM19.3334 5.99935C19.3334 4.58486 18.7715 3.22831 17.7713 2.22811C16.7711 1.22792 15.4145 0.666016 14 0.666016C12.5856 0.666016 11.229 1.22792 10.2288 2.22811C9.22861 3.22831 8.66671 4.58486 8.66671 5.99935H2.00004C1.64642 5.99935 1.30728 6.13983 1.05723 6.38987C0.80718 6.63992 0.666706 6.97906 0.666706 7.33268C0.666706 7.6863 0.80718 8.02544 1.05723 8.27549C1.30728 8.52554 1.64642 8.66602 2.00004 8.66602H3.17604L4.35737 22.4527C4.47094 23.784 5.08007 25.0241 6.06424 25.9278C7.04841 26.8315 8.33592 27.3328 9.67204 27.3327H18.328C19.6642 27.3328 20.9517 26.8315 21.9358 25.9278C22.92 25.0241 23.5291 23.784 23.6427 22.4527L24.824 8.66602H26C26.3537 8.66602 26.6928 8.52554 26.9428 8.27549C27.1929 8.02544 27.3334 7.6863 27.3334 7.33268C27.3334 6.97906 27.1929 6.63992 26.9428 6.38987C26.6928 6.13983 26.3537 5.99935 26 5.99935H19.3334ZM10 13.9993C10 13.6457 10.1405 13.3066 10.3906 13.0565C10.6406 12.8065 10.9798 12.666 11.3334 12.666C11.687 12.666 12.0261 12.8065 12.2762 13.0565C12.5262 13.3066 12.6667 13.6457 12.6667 13.9993V19.3327C12.6667 19.6863 12.5262 20.0254 12.2762 20.2755C12.0261 20.5255 11.687 20.666 11.3334 20.666C10.9798 20.666 10.6406 20.5255 10.3906 20.2755C10.1405 20.0254 10 19.6863 10 19.3327V13.9993ZM16.6667 12.666C17.0203 12.666 17.3595 12.8065 17.6095 13.0565C17.8596 13.3066 18 13.6457 18 13.9993V19.3327C18 19.6863 17.8596 20.0254 17.6095 20.2755C17.3595 20.5255 17.0203 20.666 16.6667 20.666C16.3131 20.666 15.9739 20.5255 15.7239 20.2755C15.4738 20.0254 15.3334 19.6863 15.3334 19.3327V13.9993C15.3334 13.6457 15.4738 13.3066 15.7239 13.0565C15.9739 12.8065 16.3131 12.666 16.6667 12.666Z" fill="#F87168"/>
</svg>
