<svg width="101" height="100" viewBox="0 0 101 100" fill="none" xmlns="http://www.w3.org/2000/svg">
<circle cx="50.5" cy="50" r="50" fill="#D82D1A"/>
<path d="M46.6 34.3984H54.4C54.4 33.3641 53.9891 32.3721 53.2577 31.6407C52.5263 30.9093 51.5343 30.4984 50.5 30.4984C49.4656 30.4984 48.4736 30.9093 47.7422 31.6407C47.0108 32.3721 46.6 33.3641 46.6 34.3984ZM44 34.3984C44 32.6745 44.6848 31.0212 45.9038 29.8022C47.1227 28.5833 48.776 27.8984 50.5 27.8984C52.2239 27.8984 53.8772 28.5833 55.0961 29.8022C56.3151 31.0212 57 32.6745 57 34.3984H70C70.3447 34.3984 70.6754 34.5354 70.9192 34.7792C71.163 35.023 71.2999 35.3537 71.2999 35.6984C71.2999 36.0432 71.163 36.3739 70.9192 36.6177C70.6754 36.8615 70.3447 36.9984 70 36.9984H67.2595L64.1552 63.8928C63.9357 65.7939 63.025 67.548 61.5964 68.8213C60.1678 70.0946 58.3209 70.7983 56.4072 70.7984H44.5928C42.679 70.7983 40.8321 70.0946 39.4035 68.8213C37.9749 67.548 37.0642 65.7939 36.8448 63.8928L33.7404 36.9984H31C30.6552 36.9984 30.3245 36.8615 30.0807 36.6177C29.8369 36.3739 29.7 36.0432 29.7 35.6984C29.7 35.3537 29.8369 35.023 30.0807 34.7792C30.3245 34.5354 30.6552 34.3984 31 34.3984H44ZM39.4266 63.5964C39.5733 64.8637 40.1807 66.0328 41.1332 66.8813C42.0858 67.7298 43.3171 68.1986 44.5928 68.1984H56.4072C57.6828 68.1986 58.9141 67.7298 59.8667 66.8813C60.8192 66.0328 61.4266 64.8637 61.5733 63.5964L64.6413 36.9984H36.3586L39.4266 63.5964ZM46.6 43.4984C46.9447 43.4984 47.2754 43.6354 47.5192 43.8792C47.763 44.123 47.9 44.4537 47.9 44.7984V60.3984C47.9 60.7432 47.763 61.0739 47.5192 61.3177C47.2754 61.5615 46.9447 61.6984 46.6 61.6984C46.2552 61.6984 45.9245 61.5615 45.6807 61.3177C45.4369 61.0739 45.3 60.7432 45.3 60.3984V44.7984C45.3 44.4537 45.4369 44.123 45.6807 43.8792C45.9245 43.6354 46.2552 43.4984 46.6 43.4984ZM55.7 44.7984C55.7 44.4537 55.563 44.123 55.3192 43.8792C55.0754 43.6354 54.7447 43.4984 54.4 43.4984C54.0552 43.4984 53.7245 43.6354 53.4807 43.8792C53.2369 44.123 53.1 44.4537 53.1 44.7984V60.3984C53.1 60.7432 53.2369 61.0739 53.4807 61.3177C53.7245 61.5615 54.0552 61.6984 54.4 61.6984C54.7447 61.6984 55.0754 61.5615 55.3192 61.3177C55.563 61.0739 55.7 60.7432 55.7 60.3984V44.7984Z" fill="white"/>
</svg>
