<svg width="23" height="25" viewBox="0 0 23 25" fill="none" xmlns="http://www.w3.org/2000/svg">
<path d="M8.9881 4.38051V4.68022H13.7833V4.38051C13.7833 3.74462 13.5307 3.13478 13.0811 2.68514C12.6315 2.2355 12.0216 1.98289 11.3857 1.98289C10.7498 1.98289 10.14 2.2355 9.69035 2.68514C9.2407 3.13478 8.9881 3.74462 8.9881 4.38051ZM7.48958 4.68022V4.38051C7.48958 3.34719 7.90007 2.3562 8.63074 1.62553C9.3614 0.89486 10.3524 0.484375 11.3857 0.484375C12.419 0.484375 13.41 0.89486 14.1407 1.62553C14.8714 2.3562 15.2819 3.34719 15.2819 4.38051V4.68022H22.0252C22.2239 4.68022 22.4145 4.75916 22.555 4.89967C22.6955 5.04018 22.7744 5.23076 22.7744 5.42947C22.7744 5.62819 22.6955 5.81877 22.555 5.95928C22.4145 6.09979 22.2239 6.17873 22.0252 6.17873H20.2767L19.0779 20.4782C18.9868 21.5641 18.4911 22.5761 17.689 23.3137C16.8869 24.0513 15.8369 24.4607 14.7472 24.4606H8.02425C6.93465 24.4605 5.88484 24.0511 5.08285 23.3135C4.28086 22.5759 3.78522 21.5639 3.69415 20.4782L2.49533 6.17873H0.746267C0.547551 6.17873 0.356975 6.09979 0.216462 5.95928C0.0759487 5.81877 -0.00299072 5.62819 -0.00299072 5.42947C-0.00299072 5.23076 0.0759487 5.04018 0.216462 4.89967C0.356975 4.75916 0.547551 4.68022 0.746267 4.68022H7.48958ZM5.18727 20.3529C5.24693 21.0643 5.57166 21.7273 6.09711 22.2105C6.62255 22.6938 7.31037 22.962 8.02425 22.9621H14.7472C15.4612 22.9622 16.1491 22.694 16.6747 22.2107C17.2003 21.7275 17.5251 21.0644 17.5848 20.3529L18.7728 6.17873H3.99864L5.18727 20.3529ZM9.88721 10.2247C9.88721 10.1263 9.86783 10.0289 9.83017 9.93799C9.79252 9.84709 9.73733 9.76449 9.66776 9.69492C9.59818 9.62534 9.51558 9.57015 9.42468 9.5325C9.33377 9.49484 9.23634 9.47546 9.13795 9.47546C9.03956 9.47546 8.94213 9.49484 8.85122 9.5325C8.76032 9.57015 8.67772 9.62534 8.60814 9.69492C8.53857 9.76449 8.48338 9.84709 8.44573 9.93799C8.40807 10.0289 8.38869 10.1263 8.38869 10.2247V18.9161C8.38869 19.0145 8.40807 19.1119 8.44573 19.2028C8.48338 19.2937 8.53857 19.3763 8.60814 19.4459C8.67772 19.5155 8.76032 19.5707 8.85122 19.6083C8.94213 19.646 9.03956 19.6654 9.13795 19.6654C9.23634 19.6654 9.33377 19.646 9.42468 19.6083C9.51558 19.5707 9.59818 19.5155 9.66776 19.4459C9.73733 19.3763 9.79252 19.2937 9.83017 19.2028C9.86783 19.1119 9.88721 19.0145 9.88721 18.9161V10.2247ZM13.6335 9.47546C14.0471 9.47546 14.3828 9.81113 14.3828 10.2247V18.9161C14.3828 19.1148 14.3038 19.3054 14.1633 19.4459C14.0228 19.5864 13.8322 19.6654 13.6335 19.6654C13.4348 19.6654 13.2442 19.5864 13.1037 19.4459C12.9632 19.3054 12.8842 19.1148 12.8842 18.9161V10.2247C12.8842 9.81113 13.2199 9.47546 13.6335 9.47546Z" fill="#D82D1A"/>
</svg>
