<svg width="20" height="23" viewBox="0 0 20 23" fill="none" xmlns="http://www.w3.org/2000/svg">
<path d="M7.9845 12.5146H5.95775M14.0648 12.5146H12.038M7.9845 8.46106H5.95775M7.9845 16.5681H5.95775M14.0648 8.46106H12.038M14.0648 16.5681H12.038M19.1316 13.4094V8.59077C19.1316 7.44059 19.1306 6.86499 18.8509 6.38263C18.5712 5.90026 18.0716 5.61854 17.0735 5.05511L11.9813 2.18219C11.0185 1.63902 10.5372 1.36743 10.0112 1.36743C9.48531 1.36743 9.00395 1.63902 8.04125 2.18219L2.94904 5.05612C1.95086 5.61854 1.45127 5.90026 1.17157 6.38364C0.891882 6.86499 0.891883 7.44059 0.890869 8.59077V13.4094C0.890869 17.2865 0.890869 19.2262 2.07855 20.43C3.26521 21.6349 5.17643 21.6349 8.99787 21.6349H11.0246C14.8461 21.6349 16.7573 21.6349 17.944 20.43C19.1316 19.2262 19.1316 17.2876 19.1316 13.4094Z" stroke="white" stroke-width="1.52006" stroke-linecap="round" stroke-linejoin="round"/>
</svg>
