<svg width="36" height="38" viewBox="0 0 36 38" fill="none" xmlns="http://www.w3.org/2000/svg">
<path d="M14.5 20.7498H11M25 20.7498H21.5M14.5 13.7498H11M14.5 27.7498H11M25 13.7498H21.5M25 27.7498H21.5M33.75 22.295V13.9738C33.75 11.9875 33.7482 10.9935 33.2652 10.1605C32.7822 9.32751 31.9195 8.84101 30.1957 7.86801L21.402 2.90676C19.7395 1.96876 18.9082 1.49976 18 1.49976C17.0918 1.49976 16.2605 1.96876 14.598 2.90676L5.80425 7.86976C4.0805 8.84101 3.21775 9.32751 2.73475 10.1623C2.25175 10.9935 2.25175 11.9875 2.25 13.9738V22.295C2.25 28.9905 2.25 32.34 4.301 34.419C6.35025 36.4998 9.65075 36.4998 16.25 36.4998H19.75C26.3492 36.4998 29.6497 36.4998 31.699 34.419C33.75 32.34 33.75 28.9923 33.75 22.295Z" stroke="#006EC2" stroke-width="2.625" stroke-linecap="round" stroke-linejoin="round"/>
</svg>
