<svg width="42" height="42" viewBox="0 0 42 42" fill="none" xmlns="http://www.w3.org/2000/svg">
<path d="M34.125 18.1494V34.125C34.125 35.1693 33.7102 36.1708 32.9717 36.9092C32.2333 37.6477 31.2318 38.0625 30.1875 38.0625H11.8125C10.7682 38.0625 9.76669 37.6477 9.02827 36.9092C8.28984 36.1708 7.875 35.1693 7.875 34.125V7.875C7.875 6.83071 8.28984 5.82919 9.02827 5.09077C9.76669 4.35234 10.7682 3.9375 11.8125 3.9375H19.9131C20.609 3.93761 21.2765 4.21408 21.7686 4.70613L33.3564 16.2939C33.8484 16.786 34.1249 17.4535 34.125 18.1494Z" stroke="#006EC2" stroke-width="2.625" stroke-linejoin="round"/>
<path d="M21 4.59375V14.4375C21 15.1337 21.2766 15.8014 21.7688 16.2937C22.2611 16.7859 22.9288 17.0625 23.625 17.0625H33.4688M14.4375 23.625H27.5625M14.4375 30.1875H27.5625" stroke="#006EC2" stroke-width="2.625" stroke-linecap="round" stroke-linejoin="round"/>
</svg>
