<svg width="25" height="26" viewBox="0 0 25 26" fill="none" xmlns="http://www.w3.org/2000/svg">
<path d="M19.9116 11.2825V20.5335C19.9116 21.1382 19.6713 21.7181 19.2437 22.1457C18.8161 22.5733 18.2362 22.8136 17.6315 22.8136H6.99103C6.38631 22.8136 5.80636 22.5733 5.37876 22.1457C4.95116 21.7181 4.71094 21.1382 4.71094 20.5335V5.33283C4.71094 4.72811 4.95116 4.14816 5.37876 3.72056C5.80636 3.29296 6.38631 3.05273 6.99103 3.05273H11.6819C12.0849 3.0528 12.4713 3.21289 12.7563 3.49783L19.4665 10.208C19.7514 10.493 19.9115 10.8794 19.9116 11.2825Z" stroke="white" stroke-width="1.52006" stroke-linejoin="round"/>
<path d="M12.3113 3.43359V9.13383C12.3113 9.53698 12.4714 9.92361 12.7565 10.2087C13.0416 10.4937 13.4282 10.6539 13.8313 10.6539H19.5316M8.51111 14.4541H16.1114M8.51111 18.2542H16.1114" stroke="white" stroke-width="1.52006" stroke-linecap="round" stroke-linejoin="round"/>
</svg>
