<svg width="28" height="19" viewBox="0 0 28 19" fill="none" xmlns="http://www.w3.org/2000/svg">
<path d="M0.666626 1.49341C0.666626 0.760081 1.26129 0.166748 1.99329 0.166748H12.6733C13.0251 0.166748 13.3626 0.306521 13.6114 0.555319C13.8602 0.804118 14 1.14156 14 1.49341C14 1.84527 13.8602 2.18271 13.6114 2.43151C13.3626 2.68031 13.0251 2.82008 12.6733 2.82008H1.99329C1.64144 2.82008 1.304 2.68031 1.0552 2.43151C0.806399 2.18271 0.666626 1.84527 0.666626 1.49341ZM0.666626 9.50008C0.666626 8.76675 1.26129 8.17342 1.99329 8.17342H26.0066C26.3585 8.17342 26.6959 8.31319 26.9447 8.56199C27.1935 8.81078 27.3333 9.14823 27.3333 9.50008C27.3333 9.85194 27.1935 10.1894 26.9447 10.4382C26.6959 10.687 26.3585 10.8267 26.0066 10.8267H1.99329C1.64144 10.8267 1.304 10.687 1.0552 10.4382C0.806399 10.1894 0.666626 9.85194 0.666626 9.50008ZM1.99329 16.1801C1.64144 16.1801 1.304 16.3199 1.0552 16.5687C0.806399 16.8175 0.666626 17.1549 0.666626 17.5067C0.666626 17.8586 0.806399 18.196 1.0552 18.4448C1.304 18.6936 1.64144 18.8334 1.99329 18.8334H18.0066C18.3585 18.8334 18.6959 18.6936 18.9447 18.4448C19.1935 18.196 19.3333 17.8586 19.3333 17.5067C19.3333 17.1549 19.1935 16.8175 18.9447 16.5687C18.6959 16.3199 18.3585 16.1801 18.0066 16.1801H1.99329Z" fill="#44546F"/>
</svg>
