<svg width="18" height="17" viewBox="0 0 18 17" fill="none" xmlns="http://www.w3.org/2000/svg">
<path fill-rule="evenodd" clip-rule="evenodd" d="M7.22369 0.949232C8.32443 0.699304 9.46562 0.685517 10.5721 0.908781C11.6785 1.13204 12.7251 1.58729 13.6429 2.24452C14.5607 2.90175 15.3288 3.74605 15.8967 4.72178C16.4645 5.69751 16.8192 6.78252 16.9374 7.90532C16.9582 8.10295 16.8996 8.30075 16.7746 8.45519C16.6496 8.60964 16.4684 8.70809 16.2708 8.72889C16.0732 8.74968 15.8755 8.69112 15.7211 8.56608C15.5666 8.44105 15.4682 8.25977 15.4474 8.06215C15.319 6.84216 14.8477 5.68351 14.0881 4.72041C13.3285 3.75731 12.3116 3.02916 11.1553 2.62033C9.99897 2.21149 8.75051 2.13868 7.55452 2.41034C6.35852 2.682 5.26395 3.28701 4.39757 4.15529C3.5312 5.02357 2.92848 6.11958 2.65923 7.31639C2.38998 8.51319 2.46521 9.7618 2.87622 10.9176C3.28723 12.0734 4.0172 13.0891 4.98156 13.847C5.94592 14.6049 7.10523 15.074 8.32518 15.2C8.42373 15.2092 8.51949 15.2379 8.60691 15.2843C8.69433 15.3307 8.77168 15.394 8.83449 15.4705C8.8973 15.5471 8.94433 15.6353 8.97285 15.7301C9.00138 15.8249 9.01083 15.9244 9.00067 16.0229C8.99051 16.1213 8.96093 16.2168 8.91365 16.3038C8.86637 16.3908 8.80232 16.4675 8.7252 16.5296C8.64809 16.5917 8.55944 16.6378 8.46438 16.6654C8.36933 16.693 8.26974 16.7015 8.17139 16.6903C6.28689 16.4964 4.53261 15.6389 3.22168 14.271C1.91075 12.9031 1.12847 11.1137 1.01448 9.2222C0.900494 7.33074 1.46221 5.46031 2.59937 3.94477C3.73653 2.42922 5.37513 1.36719 7.22269 0.948233L7.22369 0.949232ZM8.99227 3.74705C9.19091 3.74705 9.38141 3.82598 9.52187 3.96647C9.66233 4.10696 9.74124 4.29751 9.74124 4.4962V9.74024H5.74671C5.54807 9.74024 5.35757 9.66131 5.21711 9.52082C5.07665 9.38033 4.99774 9.18978 4.99774 8.99109C4.99774 8.7924 5.07665 8.60185 5.21711 8.46136C5.35757 8.32087 5.54807 8.24194 5.74671 8.24194H8.24329V4.4962C8.24329 4.29751 8.3222 4.10696 8.46266 3.96647C8.60312 3.82598 8.79363 3.74705 8.99227 3.74705ZM11.2092 10.9589C11.3497 10.8186 11.54 10.7398 11.7385 10.7398C11.937 10.7398 12.1273 10.8186 12.2678 10.9589L13.9854 12.6769L15.7031 10.9589C15.7716 10.8853 15.8543 10.8262 15.9462 10.7853C16.0381 10.7443 16.1372 10.7223 16.2378 10.7205C16.3384 10.7188 16.4383 10.7373 16.5315 10.7749C16.6248 10.8126 16.7095 10.8687 16.7806 10.9398C16.8518 11.011 16.9078 11.0957 16.9455 11.189C16.9832 11.2823 17.0017 11.3822 16.9999 11.4828C16.9981 11.5834 16.9761 11.6826 16.9352 11.7745C16.8942 11.8664 16.8352 11.9491 16.7616 12.0176L15.044 13.7357L16.7616 15.4537C16.8352 15.5223 16.8942 15.605 16.9352 15.6969C16.9761 15.7888 16.9981 15.888 16.9999 15.9886C17.0017 16.0892 16.9832 16.1891 16.9455 16.2824C16.9078 16.3757 16.8518 16.4604 16.7806 16.5316C16.7095 16.6027 16.6248 16.6588 16.5315 16.6965C16.4383 16.7341 16.3384 16.7526 16.2378 16.7509C16.1372 16.7491 16.0381 16.7271 15.9462 16.6861C15.8543 16.6452 15.7716 16.5861 15.7031 16.5125L13.9854 14.7945L12.2678 16.5125C12.1992 16.5861 12.1165 16.6452 12.0246 16.6861C11.9328 16.7271 11.8336 16.7491 11.733 16.7509C11.6325 16.7526 11.5326 16.7341 11.4393 16.6965C11.3461 16.6588 11.2613 16.6027 11.1902 16.5316C11.1191 16.4604 11.063 16.3757 11.0254 16.2824C10.9877 16.1891 10.9692 16.0892 10.971 15.9886C10.9727 15.888 10.9947 15.7888 11.0357 15.6969C11.0766 15.605 11.1356 15.5223 11.2092 15.4537L12.9269 13.7357L11.2092 12.0176C11.069 11.8772 10.9902 11.6868 10.9902 11.4883C10.9902 11.2897 11.069 11.0993 11.2092 10.9589Z" fill="white" stroke="white" stroke-width="0.3"/>
</svg>
