<svg width="32" height="32" viewBox="0 0 32 32" fill="none" xmlns="http://www.w3.org/2000/svg">
<rect x="0.5" y="0.5" width="31" height="31" rx="15.5" fill="#006EC2"/>
<rect x="0.5" y="0.5" width="31" height="31" rx="15.5" stroke="#006EC2"/>
<path d="M11.3335 20H14.1602C14.2479 20.0005 14.3349 19.9837 14.4161 19.9505C14.4973 19.9173 14.5712 19.8685 14.6335 19.8067L19.2468 15.1867L21.1402 13.3333C21.2026 13.2714 21.2522 13.1976 21.2861 13.1164C21.3199 13.0351 21.3374 12.948 21.3374 12.86C21.3374 12.772 21.3199 12.6849 21.2861 12.6036C21.2522 12.5224 21.2026 12.4486 21.1402 12.3867L18.3135 9.52667C18.2515 9.46418 18.1778 9.41458 18.0965 9.38074C18.0153 9.34689 17.9282 9.32947 17.8402 9.32947C17.7522 9.32947 17.665 9.34689 17.5838 9.38074C17.5025 9.41458 17.4288 9.46418 17.3668 9.52667L15.4868 11.4133L10.8602 16.0333C10.7984 16.0956 10.7495 16.1695 10.7163 16.2507C10.6831 16.332 10.6663 16.4189 10.6668 16.5067V19.3333C10.6668 19.5101 10.7371 19.6797 10.8621 19.8047C10.9871 19.9298 11.1567 20 11.3335 20ZM17.8402 10.94L19.7268 12.8267L18.7802 13.7733L16.8935 11.8867L17.8402 10.94ZM12.0002 16.78L15.9535 12.8267L17.8402 14.7133L13.8868 18.6667H12.0002V16.78ZM22.0002 21.3333H10.0002C9.82335 21.3333 9.65378 21.4036 9.52876 21.5286C9.40373 21.6536 9.3335 21.8232 9.3335 22C9.3335 22.1768 9.40373 22.3464 9.52876 22.4714C9.65378 22.5964 9.82335 22.6667 10.0002 22.6667H22.0002C22.177 22.6667 22.3465 22.5964 22.4716 22.4714C22.5966 22.3464 22.6668 22.1768 22.6668 22C22.6668 21.8232 22.5966 21.6536 22.4716 21.5286C22.3465 21.4036 22.177 21.3333 22.0002 21.3333Z" fill="white"/>
</svg>
