<svg width="126" height="129" viewBox="0 0 126 129" fill="none" xmlns="http://www.w3.org/2000/svg">
<path d="M26.6866 40.5625L20.3682 44.7799C15.8344 47.7991 13.5674 49.3086 12.338 51.6119C11.1085 53.9203 11.1189 56.6282 11.1397 62.0388C11.1604 68.5646 11.2227 75.2046 11.3887 81.9276C11.7881 97.8792 11.9852 105.852 17.8523 111.714C23.7142 117.576 31.7963 117.784 47.9605 118.188C57.9864 118.439 68.017 118.439 78.0428 118.188C94.2071 117.784 102.289 117.581 108.151 111.714C114.013 105.852 114.215 97.8792 114.615 81.9276C114.781 75.2046 114.843 68.5646 114.864 62.0439C114.879 56.6282 114.89 53.9203 113.66 51.6171C112.436 49.3086 110.169 47.7991 105.635 44.7799L99.3116 40.5625" stroke="#44546F" stroke-width="7.78125" stroke-linecap="round" stroke-linejoin="round"/>
<path d="M11.125 56.125L46.9862 77.6427C54.7882 82.3219 58.6892 84.6562 63 84.6562C67.3108 84.6562 71.2118 82.3219 79.0138 77.6376L114.875 56.125" stroke="#44546F" stroke-width="7.78125" stroke-linecap="round" stroke-linejoin="round"/>
<path d="M26.6875 66.5V35.375C26.6875 25.5914 26.6875 20.7047 29.7274 17.6649C32.7672 14.625 37.6539 14.625 47.4375 14.625H78.5625C88.3461 14.625 93.2327 14.625 96.2726 17.6649C99.3125 20.7047 99.3125 25.5914 99.3125 35.375V66.5M52.625 56.125H73.375M52.625 35.375H73.375" stroke="#44546F" stroke-width="7.78125" stroke-linecap="round" stroke-linejoin="round"/>
<circle cx="98.5" cy="27.5" r="25.4583" fill="#06D188" stroke="white" stroke-width="3.91667"/>
<path fill-rule="evenodd" clip-rule="evenodd" d="M108.842 20.5875C109.404 21.0847 109.457 21.9447 108.96 22.5107L98.5275 34.3039C98.407 34.4402 98.2605 34.5509 98.0965 34.6295C97.9325 34.7081 97.7544 34.7531 97.5728 34.7617C97.3911 34.7703 97.2096 34.7424 97.0389 34.6797C96.8682 34.617 96.7118 34.5207 96.5789 34.3965L89.7752 28.0463C89.5134 27.7996 89.36 27.4594 89.3484 27.0999C89.3368 26.7404 89.4679 26.391 89.7132 26.1279C89.9585 25.8649 90.298 25.7097 90.6574 25.6962C91.0168 25.6827 91.3669 25.812 91.6312 26.056L97.419 31.4445L106.926 20.7037C107.045 20.5696 107.188 20.4602 107.349 20.3817C107.51 20.3033 107.685 20.2574 107.864 20.2466C108.042 20.2358 108.221 20.2604 108.39 20.3189C108.56 20.3774 108.715 20.4687 108.849 20.5875H108.842Z" fill="white"/>
</svg>
