<svg width="38" height="38" viewBox="0 0 38 38" fill="none" xmlns="http://www.w3.org/2000/svg">
<path fill-rule="evenodd" clip-rule="evenodd" d="M19 2.8125C14.7068 2.8125 10.5895 4.51796 7.55371 7.55371C4.51796 10.5895 2.8125 14.7068 2.8125 19C2.8125 23.2932 4.51796 27.4105 7.55371 30.4463C10.5895 33.482 14.7068 35.1875 19 35.1875C23.2932 35.1875 27.4105 33.482 30.4463 30.4463C33.482 27.4105 35.1875 23.2932 35.1875 19C35.1875 14.7068 33.482 10.5895 30.4463 7.55371C27.4105 4.51796 23.2932 2.8125 19 2.8125ZM0.1875 19C0.1875 8.61025 8.61025 0.1875 19 0.1875C29.3897 0.1875 37.8125 8.61025 37.8125 19C37.8125 29.3897 29.3897 37.8125 19 37.8125C8.61025 37.8125 0.1875 29.3897 0.1875 19ZM9.90525 17.6875C9.7808 18.5581 9.7808 19.4419 9.90525 20.3125H15.5C15.8481 20.3125 16.1819 20.4508 16.4281 20.6969C16.6742 20.9431 16.8125 21.2769 16.8125 21.625C16.8125 21.9731 16.6742 22.3069 16.4281 22.5531C16.1819 22.7992 15.8481 22.9375 15.5 22.9375H10.6962C11.2398 24.0846 12.0152 25.1066 12.9734 25.939C13.9317 26.7715 15.0521 27.3963 16.2639 27.7742C17.4757 28.152 18.7526 28.2746 20.0142 28.1343C21.2758 27.994 22.4946 27.5938 23.5938 26.959C23.7431 26.8715 23.9082 26.8143 24.0797 26.7909C24.2512 26.7674 24.4257 26.7781 24.593 26.8224C24.7604 26.8666 24.9173 26.9435 25.0548 27.0487C25.1923 27.1538 25.3076 27.2851 25.3942 27.435C25.4807 27.5849 25.5368 27.7504 25.5591 27.9221C25.5814 28.0937 25.5695 28.2681 25.5242 28.4352C25.4788 28.6022 25.4009 28.7586 25.2948 28.8954C25.1888 29.0322 25.0567 29.1467 24.9062 29.2323C23.4041 30.099 21.7296 30.6245 20.0016 30.7715C18.2735 30.9184 16.5343 30.6833 14.9074 30.0827C13.2804 29.4821 11.8056 28.5307 10.5876 27.2962C9.36953 26.0616 8.43814 24.5741 7.8595 22.9393H6.75C6.40167 22.9393 6.06761 22.8009 5.8213 22.5546C5.575 22.3083 5.43662 21.9742 5.43662 21.6259C5.43662 21.2775 5.575 20.9435 5.8213 20.6972C6.06761 20.4509 6.40167 20.3125 6.75 20.3125H7.25925C7.16245 19.4402 7.16245 18.5598 7.25925 17.6875H6.75C6.4019 17.6875 6.06806 17.5492 5.82192 17.3031C5.57578 17.0569 5.4375 16.7231 5.4375 16.375C5.4375 16.0269 5.57578 15.6931 5.82192 15.4469C6.06806 15.2008 6.4019 15.0625 6.75 15.0625H7.8595C8.43791 13.4272 9.3692 11.9393 10.5873 10.7044C11.8054 9.46946 13.2803 8.51782 14.9075 7.91702C16.5347 7.31621 18.2742 7.08098 20.0026 7.228C21.7309 7.37503 23.4057 7.90072 24.908 8.76775C25.2095 8.94203 25.4293 9.22892 25.5192 9.56532C25.6092 9.90171 25.5618 10.26 25.3875 10.5615C25.2132 10.863 24.9263 11.0828 24.5899 11.1727C24.2535 11.2627 23.8952 11.2153 23.5938 11.041C22.4946 10.4062 21.2758 10.006 20.0142 9.86566C18.7526 9.72536 17.4757 9.848 16.2639 10.2258C15.0521 10.6037 13.9317 11.2285 12.9734 12.061C12.0152 12.8934 11.2398 13.9154 10.6962 15.0625H15.5C15.8481 15.0625 16.1819 15.2008 16.4281 15.4469C16.6742 15.6931 16.8125 16.0269 16.8125 16.375C16.8125 16.7231 16.6742 17.0569 16.4281 17.3031C16.1819 17.5492 15.8481 17.6875 15.5 17.6875H9.90525Z" fill="#006EC2"/>
</svg>
