<svg width="28" height="36" viewBox="0 0 28 36" fill="none" xmlns="http://www.w3.org/2000/svg">
<path d="M1.75 33.75V5.75C1.75 4.82174 2.11875 3.9315 2.77513 3.27513C3.4315 2.61875 4.32174 2.25 5.25 2.25H22.75C23.6783 2.25 24.5685 2.61875 25.2249 3.27513C25.8813 3.9315 26.25 4.82174 26.25 5.75V33.75L21 30.25L17.5 33.75L14 30.25L10.5 33.75L7 30.25L1.75 33.75Z" stroke="#006EC2" stroke-width="3" stroke-linecap="round" stroke-linejoin="round"/>
<path d="M19.25 10.65C18.3347 9.7715 17.199 9.25 15.9688 9.25C12.9465 9.25 10.5 12.3842 10.5 16.25C10.5 20.1158 12.9465 23.25 15.9688 23.25C17.199 23.25 18.3347 22.7285 19.2482 21.85M8.75 16.25H15.75" stroke="#006EC2" stroke-width="3" stroke-linecap="round" stroke-linejoin="round"/>
</svg>
