<svg width="22" height="14" viewBox="0 0 22 14" fill="none" xmlns="http://www.w3.org/2000/svg">
<path d="M11.0001 4.2C10.2575 4.2 9.54527 4.495 9.02017 5.0201C8.49506 5.5452 8.20007 6.25739 8.20007 7C8.20007 7.74261 8.49506 8.4548 9.02017 8.9799C9.54527 9.505 10.2575 9.8 11.0001 9.8C11.7427 9.8 12.4549 9.505 12.98 8.9799C13.5051 8.4548 13.8001 7.74261 13.8001 7C13.8001 6.25739 13.5051 5.5452 12.98 5.0201C12.4549 4.495 11.7427 4.2 11.0001 4.2ZM11.0001 11.6667C9.76239 11.6667 8.5754 11.175 7.70023 10.2998C6.82506 9.42466 6.3334 8.23768 6.3334 7C6.3334 5.76232 6.82506 4.57534 7.70023 3.70017C8.5754 2.825 9.76239 2.33333 11.0001 2.33333C12.2377 2.33333 13.4247 2.825 14.2999 3.70017C15.1751 4.57534 15.6667 5.76232 15.6667 7C15.6667 8.23768 15.1751 9.42466 14.2999 10.2998C13.4247 11.175 12.2377 11.6667 11.0001 11.6667ZM11.0001 0C6.3334 0 2.34807 2.90267 0.733398 7C2.34807 11.0973 6.3334 14 11.0001 14C15.6667 14 19.6521 11.0973 21.2667 7C19.6521 2.90267 15.6667 0 11.0001 0Z" fill="#003149"/>
</svg>
