<svg width="22" height="22" viewBox="0 0 22 22" fill="none" xmlns="http://www.w3.org/2000/svg">
<path d="M8 15.0005C8.85 15.6305 9.885 16.0005 11 16.0005C12.115 16.0005 13.15 15.6305 14 15.0005" stroke="#44546F" stroke-width="2" stroke-linecap="round"/>
<path d="M14 11.0005C14.5523 11.0005 15 10.3289 15 9.50049C15 8.67206 14.5523 8.00049 14 8.00049C13.4477 8.00049 13 8.67206 13 9.50049C13 10.3289 13.4477 11.0005 14 11.0005Z" fill="#44546F"/>
<path d="M8 11.0005C8.55228 11.0005 9 10.3289 9 9.50049C9 8.67206 8.55228 8.00049 8 8.00049C7.44772 8.00049 7 8.67206 7 9.50049C7 10.3289 7.44772 11.0005 8 11.0005Z" fill="#44546F"/>
<path d="M21 13.0005C21 16.7715 21 18.6575 19.828 19.8285C18.656 20.9995 16.771 21.0005 13 21.0005M9 21.0005C5.229 21.0005 3.343 21.0005 2.172 19.8285C1.001 18.6565 1 16.7715 1 13.0005M9 1.00049C5.229 1.00049 3.343 1.00049 2.172 2.17249C1.001 3.34449 1 5.22949 1 9.00049M13 1.00049C16.771 1.00049 18.657 1.00049 19.828 2.17249C20.999 3.34449 21 5.22949 21 9.00049" stroke="#44546F" stroke-width="2" stroke-linecap="round"/>
</svg>
