<svg width="21" height="22" viewBox="0 0 21 22" fill="none" xmlns="http://www.w3.org/2000/svg">
<path fill-rule="evenodd" clip-rule="evenodd" d="M14.0339 6.01748C13.3852 6.01748 12.8593 6.54333 12.8593 7.192C12.8593 7.84067 13.3852 8.36652 14.0339 8.36652C14.6825 8.36652 15.2084 7.84067 15.2084 7.192C15.2084 6.54333 14.6825 6.01748 14.0339 6.01748ZM11.4499 7.192C11.4499 5.76493 12.6068 4.60806 14.0339 4.60806C15.4609 4.60806 16.6178 5.76493 16.6178 7.192C16.6178 8.61907 15.4609 9.77594 14.0339 9.77594C12.6068 9.77594 11.4499 8.61907 11.4499 7.192Z" fill="#181818"/>
<path fill-rule="evenodd" clip-rule="evenodd" d="M10.2215 0.84961H10.3293C12.4983 0.849597 14.1981 0.849588 15.5244 1.0279C16.8819 1.21041 17.953 1.59127 18.7938 2.43205C19.6346 3.27282 20.0155 4.344 20.198 5.7015C20.3763 7.02775 20.3763 8.72755 20.3763 10.8965V11.0044C20.3763 13.1734 20.3763 14.8732 20.198 16.1994C20.0155 17.5569 19.6346 18.6281 18.7938 19.4689C17.953 20.3096 16.8819 20.6905 15.5244 20.873C14.1981 21.0513 12.4983 21.0513 10.3293 21.0513H10.2215C8.0525 21.0513 6.3527 21.0513 5.02645 20.873C3.66895 20.6905 2.59777 20.3096 1.757 19.4689C0.916223 18.6281 0.535359 17.5569 0.352849 16.1994C0.174539 14.8732 0.174549 13.1734 0.174561 11.0044V10.8965C0.174549 8.72754 0.174539 7.02775 0.352849 5.7015C0.535359 4.344 0.916223 3.27282 1.757 2.43205C2.59777 1.59127 3.66895 1.21041 5.02645 1.0279C6.3527 0.849588 8.05249 0.849597 10.2215 0.84961ZM2.75361 18.4723C2.21835 17.937 1.9112 17.2128 1.7497 16.0116C1.60549 14.939 1.58676 13.5706 1.58434 11.7399L2.98914 10.5107C3.56617 10.0058 4.43584 10.0347 4.97801 10.5769L9.0087 14.6076C9.89658 15.4955 11.2942 15.6165 12.3216 14.8945L12.6017 14.6976C13.4081 14.1309 14.4991 14.1966 15.2316 14.8559L18.2605 17.5819C18.2935 17.6115 18.3285 17.6375 18.365 17.6599C18.2131 17.9802 18.026 18.2435 17.7972 18.4723C17.2619 19.0075 16.5378 19.3147 15.3366 19.4762C14.1151 19.6404 12.51 19.6419 10.2754 19.6419C8.04079 19.6419 6.43573 19.6404 5.21425 19.4762C4.01305 19.3147 3.28887 19.0075 2.75361 18.4723ZM5.21425 2.42475C4.01305 2.58625 3.28887 2.8934 2.75361 3.42866C2.21835 3.96391 1.9112 4.68809 1.7497 5.8893C1.61333 6.90361 1.58917 8.18242 1.5849 9.86658L2.06103 9.44996C3.19648 8.45645 4.90778 8.51344 5.97462 9.58028L10.0053 13.611C10.4089 14.0145 11.0442 14.0696 11.5111 13.7414L11.7913 13.5445C13.1353 12.6 14.9535 12.7094 16.1745 13.8083L18.7809 16.1541C18.7879 16.1074 18.7946 16.0599 18.8011 16.0116C18.9653 14.7901 18.9668 13.1851 18.9668 10.9505C18.9668 8.71584 18.9653 7.11078 18.8011 5.8893C18.6396 4.68809 18.3325 3.96391 17.7972 3.42866C17.2619 2.8934 16.5378 2.58625 15.3366 2.42475C14.1151 2.26053 12.51 2.25903 10.2754 2.25903C8.04079 2.25903 6.43573 2.26053 5.21425 2.42475Z" fill="#181818"/>
</svg>
