<svg width="38" height="38" viewBox="0 0 38 38" fill="none" xmlns="http://www.w3.org/2000/svg">
<path d="M1.5 19C1.5 10.7505 1.5 6.62575 4.062 4.062C6.6275 1.5 10.7505 1.5 19 1.5C27.2495 1.5 31.3742 1.5 33.9362 4.062C36.5 6.6275 36.5 10.7505 36.5 19C36.5 27.2495 36.5 31.3742 33.9362 33.9362C31.376 36.5 27.2495 36.5 19 36.5C10.7505 36.5 6.62575 36.5 4.062 33.9362C1.5 31.376 1.5 27.2495 1.5 19Z" stroke="#006EC2" stroke-width="2.625"/>
<path d="M26 15.5C27.933 15.5 29.5 13.933 29.5 12C29.5 10.067 27.933 8.5 26 8.5C24.067 8.5 22.5 10.067 22.5 12C22.5 13.933 24.067 15.5 26 15.5Z" stroke="#006EC2" stroke-width="2.625"/>
<path d="M1.5 19.8748L4.566 17.1921C5.33449 16.5202 6.32955 16.1654 7.34976 16.1995C8.36997 16.2336 9.33911 16.6541 10.061 17.3758L17.5685 24.8833C18.1511 25.4658 18.9205 25.8241 19.7412 25.8951C20.562 25.9662 21.3815 25.7455 22.0555 25.2718L22.5788 24.9043C23.551 24.2214 24.7262 23.8886 25.9122 23.9601C27.0982 24.0316 28.2248 24.5033 29.108 25.2981L34.75 30.3748" stroke="#006EC2" stroke-width="2.625" stroke-linecap="round"/>
</svg>
