<svg width="23" height="26" viewBox="0 0 23 26" fill="none" xmlns="http://www.w3.org/2000/svg">
<path d="M8.21429 5.6875C8.21429 6.33397 7.95466 6.95395 7.49251 7.41107C7.03037 7.86819 6.40357 8.125 5.75 8.125C5.09643 8.125 4.46963 7.86819 4.00749 7.41107C3.54534 6.95395 3.28571 6.33397 3.28571 5.6875C3.28571 5.04103 3.54534 4.42105 4.00749 3.96393C4.46963 3.50681 5.09643 3.25 5.75 3.25C6.40357 3.25 7.03037 3.50681 7.49251 3.96393C7.95466 4.42105 8.21429 5.04103 8.21429 5.6875ZM0 5.6875C0 7.19592 0.605802 8.64256 1.68414 9.70917C2.76247 10.7758 4.22501 11.375 5.75 11.375H17.25C18.0051 11.375 18.7528 11.2279 19.4504 10.9421C20.1481 10.6562 20.7819 10.2373 21.3159 9.70917C21.8498 9.18104 22.2733 8.55405 22.5623 7.86401C22.8513 7.17397 23 6.43439 23 5.6875C23 4.94061 22.8513 4.20103 22.5623 3.51099C22.2733 2.82095 21.8498 2.19396 21.3159 1.66583C20.7819 1.1377 20.1481 0.718759 19.4504 0.432935C18.7528 0.147111 18.0051 -1.11296e-08 17.25 0H5.75C4.22501 0 2.76247 0.599217 1.68414 1.66583C0.605802 2.73244 0 4.17908 0 5.6875ZM5.75 1.625H17.25C18.3393 1.625 19.384 2.05301 20.1542 2.81488C20.9244 3.57675 21.3571 4.61006 21.3571 5.6875C21.3571 6.76494 20.9244 7.79825 20.1542 8.56012C19.384 9.32199 18.3393 9.75 17.25 9.75H5.75C4.66072 9.75 3.61605 9.32199 2.84581 8.56012C2.07557 7.79825 1.64286 6.76494 1.64286 5.6875C1.64286 4.61006 2.07557 3.57675 2.84581 2.81488C3.61605 2.05301 4.66072 1.625 5.75 1.625ZM17.25 22.75C17.9036 22.75 18.5304 22.4932 18.9925 22.0361C19.4547 21.579 19.7143 20.959 19.7143 20.3125C19.7143 19.666 19.4547 19.046 18.9925 18.5889C18.5304 18.1318 17.9036 17.875 17.25 17.875C16.5964 17.875 15.9696 18.1318 15.5075 18.5889C15.0453 19.046 14.7857 19.666 14.7857 20.3125C14.7857 20.959 15.0453 21.579 15.5075 22.0361C15.9696 22.4932 16.5964 22.75 17.25 22.75ZM0 20.3125C0 21.8209 0.605802 23.2676 1.68414 24.3342C2.76247 25.4008 4.22501 26 5.75 26H17.25C18.0051 26 18.7528 25.8529 19.4504 25.5671C20.1481 25.2812 20.7819 24.8623 21.3159 24.3342C21.8498 23.806 22.2733 23.1791 22.5623 22.489C22.8513 21.799 23 21.0594 23 20.3125C23 19.5656 22.8513 18.826 22.5623 18.136C22.2733 17.4459 21.8498 16.819 21.3159 16.2908C20.7819 15.7627 20.1481 15.3438 19.4504 15.0579C18.7528 14.7721 18.0051 14.625 17.25 14.625H5.75C4.22501 14.625 2.76247 15.2242 1.68414 16.2908C0.605802 17.3574 0 18.8041 0 20.3125ZM5.75 16.25H17.25C18.3393 16.25 19.384 16.678 20.1542 17.4399C20.9244 18.2017 21.3571 19.2351 21.3571 20.3125C21.3571 21.3899 20.9244 22.4233 20.1542 23.1851C19.384 23.947 18.3393 24.375 17.25 24.375H5.75C4.66072 24.375 3.61605 23.947 2.84581 23.1851C2.07557 22.4233 1.64286 21.3899 1.64286 20.3125C1.64286 19.2351 2.07557 18.2017 2.84581 17.4399C3.61605 16.678 4.66072 16.25 5.75 16.25Z" fill="#363333"/>
</svg>
