<svg width="18" height="18" viewBox="0 0 18 18" fill="none" xmlns="http://www.w3.org/2000/svg">
<path d="M6.41592 1.31064C6.19725 1.38851 5.98392 1.47491 5.77592 1.56984M3.73992 2.88344C3.55862 3.04191 3.38458 3.20848 3.21831 3.38264M1.82552 5.36264C1.67618 5.66131 1.54632 5.96984 1.43592 6.28824M1.01272 8.42424C0.995115 8.73544 0.995915 9.05304 1.01431 9.36424M1.45432 11.5234C1.56098 11.8221 1.68472 12.1128 1.82552 12.3954M3.15272 14.305C3.34792 14.5146 3.55405 14.7136 3.77112 14.9018M5.62072 16.1154C5.93806 16.2686 6.26517 16.4006 6.59992 16.5106M8.99992 16.9106C13.4183 16.9106 16.9999 13.329 16.9999 8.91064C16.9999 4.49224 13.4183 0.910645 8.99992 0.910645" stroke="#533F04" stroke-width="1.5" stroke-linecap="round" stroke-linejoin="round"/>
<path d="M8.99993 10.1128C9.31819 10.1128 9.62341 9.98637 9.84846 9.76132C10.0735 9.53628 10.1999 9.23105 10.1999 8.91279C10.1999 8.59453 10.0735 8.28931 9.84846 8.06426C9.62341 7.83922 9.31819 7.71279 8.99993 7.71279M8.99993 10.1128C8.68167 10.1128 8.37644 9.98637 8.1514 9.76132C7.92635 9.53628 7.79993 9.23105 7.79993 8.91279C7.79993 8.59453 7.92635 8.28931 8.1514 8.06426C8.37644 7.83922 8.68167 7.71279 8.99993 7.71279M8.99993 10.1128V12.1128M8.99993 7.71279V4.11279" stroke="#533F04" stroke-width="1.5" stroke-linecap="round" stroke-linejoin="round"/>
</svg>
