<svg width="16" height="16" viewBox="0 0 16 16" fill="none" xmlns="http://www.w3.org/2000/svg">
<path d="M3 4.64856V11.3152M13 11.3152V7.98189C13 5.62523 13 4.44606 12.2675 3.71439C11.5358 2.98189 10.3567 2.98189 8 2.98189H7.16667M7.16667 2.98189C7.16667 2.39856 8.82833 1.30856 9.25 0.89856M7.16667 2.98189C7.16667 3.56523 8.82833 4.65523 9.25 5.06523" stroke="#222020" stroke-width="1.25" stroke-linecap="round" stroke-linejoin="round"/>
<path d="M3.00004 14.6485C3.92052 14.6485 4.66671 13.9023 4.66671 12.9819C4.66671 12.0614 3.92052 11.3152 3.00004 11.3152C2.07957 11.3152 1.33337 12.0614 1.33337 12.9819C1.33337 13.9023 2.07957 14.6485 3.00004 14.6485Z" stroke="#222020" stroke-width="1.25" stroke-linecap="round" stroke-linejoin="round"/>
<path d="M3.00004 4.64852C3.92052 4.64852 4.66671 3.90233 4.66671 2.98185C4.66671 2.06138 3.92052 1.31519 3.00004 1.31519C2.07957 1.31519 1.33337 2.06138 1.33337 2.98185C1.33337 3.90233 2.07957 4.64852 3.00004 4.64852Z" stroke="#222020" stroke-width="1.25" stroke-linecap="round" stroke-linejoin="round"/>
<path d="M13 14.6485C13.9205 14.6485 14.6667 13.9023 14.6667 12.9819C14.6667 12.0614 13.9205 11.3152 13 11.3152C12.0796 11.3152 11.3334 12.0614 11.3334 12.9819C11.3334 13.9023 12.0796 14.6485 13 14.6485Z" stroke="#222020" stroke-width="1.25" stroke-linecap="round" stroke-linejoin="round"/>
</svg>
