<svg width="17" height="17" viewBox="0 0 17 17" fill="none" xmlns="http://www.w3.org/2000/svg">
<path d="M6.83333 5.91064V10.9106M10.1667 5.91064V10.9106M16 8.41064C16 9.39556 15.806 10.3708 15.4291 11.2808C15.0522 12.1907 14.4997 13.0175 13.8033 13.7139C13.1069 14.4104 12.2801 14.9628 11.3701 15.3397C10.4602 15.7167 9.48491 15.9106 8.5 15.9106C7.51509 15.9106 6.53982 15.7167 5.62987 15.3397C4.71993 14.9628 3.89314 14.4104 3.1967 13.7139C2.50026 13.0175 1.94781 12.1907 1.5709 11.2808C1.19399 10.3708 1 9.39556 1 8.41064C1 6.42152 1.79018 4.51387 3.1967 3.10734C4.60322 1.70082 6.51088 0.910645 8.5 0.910645C10.4891 0.910645 12.3968 1.70082 13.8033 3.10734C15.2098 4.51387 16 6.42152 16 8.41064Z" stroke="#533F04" stroke-width="1.68917" stroke-linecap="round" stroke-linejoin="round"/>
</svg>
