<svg width="24" height="24" viewBox="0 0 24 24" fill="none" xmlns="http://www.w3.org/2000/svg">
<g clip-path="url(#clip0_231_4073)">
<path fill-rule="evenodd" clip-rule="evenodd" d="M1.822 7.70535C1.25 8.74705 1.25 10.0065 1.25 12.5233V14.1975C1.25 18.4875 1.25 20.6337 2.5392 21.9669C3.8284 23.3001 5.9019 23.3 10.05 23.3H14.45C18.5981 23.3 20.6727 23.3001 21.9608 21.9669C23.2489 20.6337 23.25 18.4886 23.25 14.1975V12.5244C23.25 10.0065 23.25 8.74815 22.678 7.70535C22.1082 6.66145 21.0643 6.01465 18.9776 4.71885L16.7776 3.35375C14.5721 1.98425 13.4688 1.30005 12.25 1.30005C11.0312 1.30005 9.929 1.98425 7.7224 3.35375L5.5224 4.71885C3.4357 6.01465 2.3929 6.66145 1.822 7.70535Z" stroke="#5E5F60" stroke-width="1.8"/>
<path d="M11.4698 18.5303C11.3291 18.3897 11.2501 18.1989 11.2501 18V15C11.2501 14.8011 11.3291 14.6103 11.4698 14.4697C11.6104 14.329 11.8012 14.25 12.0001 14.25C12.199 14.25 12.3898 14.329 12.5305 14.4697C12.6711 14.6103 12.7501 14.8011 12.7501 15V18C12.7501 18.1989 12.6711 18.3897 12.5305 18.5303C12.3898 18.671 12.199 18.75 12.0001 18.75C11.8012 18.75 11.6104 18.671 11.4698 18.5303Z" fill="#5E5F60" stroke="#5E5F60"/>
</g>
<defs>
<clipPath id="clip0_231_4073">
<rect width="24" height="24" fill="white"/>
</clipPath>
</defs>
</svg>
