<svg width="24" height="24" viewBox="0 0 24 24" fill="none" xmlns="http://www.w3.org/2000/svg">
<g clip-path="url(#clip0_107_4905)">
<path fill-rule="evenodd" clip-rule="evenodd" d="M1.822 7.7053C1.25 8.747 1.25 10.0065 1.25 12.5233V14.1975C1.25 18.4875 1.25 20.6336 2.5392 21.9668C3.8284 23.3 5.9019 23.3 10.05 23.3H14.45C18.5981 23.3 20.6727 23.3 21.9608 21.9668C23.2489 20.6336 23.25 18.4886 23.25 14.1975V12.5244C23.25 10.0065 23.25 8.7481 22.678 7.7053C22.1082 6.6614 21.0643 6.0146 18.9776 4.7188L16.7776 3.3537C14.5721 1.9842 13.4688 1.3 12.25 1.3C11.0312 1.3 9.929 1.9842 7.7224 3.3537L5.5224 4.7188C3.4357 6.0146 2.3929 6.6614 1.822 7.7053Z" stroke="#006EC2" stroke-width="1.8"/>
<path d="M11.4698 18.5303C11.3291 18.3897 11.2501 18.1989 11.2501 18V15C11.2501 14.8011 11.3291 14.6103 11.4698 14.4697C11.6104 14.329 11.8012 14.25 12.0001 14.25C12.199 14.25 12.3898 14.329 12.5305 14.4697C12.6711 14.6103 12.7501 14.8011 12.7501 15V18C12.7501 18.1989 12.6711 18.3897 12.5305 18.5303C12.3898 18.671 12.199 18.75 12.0001 18.75C11.8012 18.75 11.6104 18.671 11.4698 18.5303Z" fill="#006EC2" stroke="#006EC2"/>
</g>
<defs>
<clipPath id="clip0_107_4905">
<rect width="24" height="24" fill="white"/>
</clipPath>
</defs>
</svg>
