<svg width="15" height="14" viewBox="0 0 15 14" fill="none" xmlns="http://www.w3.org/2000/svg">
<path d="M4.55415 8.89441C4.47672 8.97179 4.4153 9.06365 4.37337 9.16476C4.33145 9.26587 4.30985 9.37425 4.30981 9.4837C4.30978 9.59316 4.3313 9.70155 4.37315 9.80269C4.415 9.90383 4.47636 9.99574 4.55373 10.0732C4.6311 10.1506 4.72297 10.212 4.82408 10.2539C4.92519 10.2959 5.03356 10.3175 5.14302 10.3175C5.25248 10.3175 5.36087 10.296 5.46201 10.2542C5.56315 10.2123 5.65506 10.151 5.73248 10.0736L10.4466 5.35941C10.5241 5.28199 10.5855 5.19007 10.6274 5.08891C10.6693 4.98775 10.6909 4.87933 10.6909 4.76983C10.6909 4.66034 10.6693 4.55191 10.6274 4.45075C10.5855 4.34959 10.5241 4.25767 10.4466 4.18025C10.3692 4.10282 10.2773 4.04141 10.1761 3.9995C10.075 3.9576 9.96656 3.93604 9.85707 3.93604C9.74757 3.93604 9.63915 3.9576 9.53799 3.9995C9.43682 4.04141 9.34491 4.10282 9.26748 4.18025L4.55415 8.89441Z" fill="white"/>
<path fill-rule="evenodd" clip-rule="evenodd" d="M2.7858 11.8411C3.40487 12.4602 4.13982 12.9512 4.94868 13.2863C5.75754 13.6213 6.62447 13.7938 7.49997 13.7938C8.37547 13.7938 9.2424 13.6213 10.0513 13.2863C10.8601 12.9512 11.5951 12.4602 12.2141 11.8411C12.8332 11.222 13.3243 10.4871 13.6593 9.67821C13.9944 8.86935 14.1668 8.00242 14.1668 7.12692C14.1668 6.25142 13.9944 5.38449 13.6593 4.57563C13.3243 3.76677 12.8332 3.03183 12.2141 2.41275C10.9639 1.16248 9.26812 0.460083 7.49997 0.460083C5.73181 0.460083 4.03608 1.16248 2.7858 2.41275C1.53553 3.66303 0.83313 5.35877 0.83313 7.12692C0.83313 8.89508 1.53553 10.5908 2.7858 11.8411ZM11.0358 10.6628C10.0982 11.6005 8.82638 12.1274 7.50026 12.1275C6.17415 12.1275 4.90231 11.6008 3.96455 10.6632C3.02679 9.72552 2.49992 8.45375 2.49984 7.12763C2.49976 5.80152 3.02648 4.52968 3.96413 3.59192C4.90179 2.65416 6.17356 2.12729 7.49967 2.12721C8.1563 2.12717 8.8065 2.25646 9.41316 2.50771C10.0198 2.75895 10.5711 3.12723 11.0354 3.5915C11.4997 4.05578 11.8681 4.60697 12.1194 5.2136C12.3707 5.82023 12.5001 6.47042 12.5001 7.12704C12.5001 7.78367 12.3708 8.43387 12.1196 9.04053C11.8684 9.64719 11.5001 10.1984 11.0358 10.6628Z" fill="white"/>
</svg>
