<svg width="36" height="36" viewBox="0 0 36 36" fill="none" xmlns="http://www.w3.org/2000/svg">
<path d="M1.375 18C1.375 10.1635 1.375 6.2435 3.80925 3.80925C6.2435 1.375 10.1617 1.375 18 1.375C25.8365 1.375 29.7565 1.375 32.1907 3.80925C34.625 6.2435 34.625 10.1617 34.625 18C34.625 25.8365 34.625 29.7565 32.1907 32.1907C29.7565 34.625 25.8383 34.625 18 34.625C10.1635 34.625 6.2435 34.625 3.80925 32.1907C1.375 29.7565 1.375 25.8383 1.375 18Z" stroke="#006EC2" stroke-width="2.625" stroke-linecap="round" stroke-linejoin="round"/>
<path d="M18.4235 26.75V18C18.4235 17.1758 18.4235 16.7627 18.168 16.5055C17.9107 16.25 17.4995 16.25 16.6735 16.25M17.986 11H18.0017" stroke="#006EC2" stroke-width="2.625" stroke-linecap="round" stroke-linejoin="round"/>
</svg>
