<svg width="18" height="18" viewBox="0 0 18 18" fill="none" xmlns="http://www.w3.org/2000/svg">
<path fill-rule="evenodd" clip-rule="evenodd" d="M6.78353 0.80691C7.98328 0.534499 9.22713 0.519472 10.4331 0.762819C11.6391 1.00617 12.7798 1.50236 13.7802 2.21871C14.7805 2.93506 15.6177 3.85531 16.2367 4.91881C16.8556 5.98231 17.2422 7.16492 17.371 8.38872C17.3937 8.60413 17.3298 8.81971 17.1936 8.98806C17.0573 9.1564 16.8598 9.2637 16.6444 9.28637C16.4291 9.30904 16.2136 9.24521 16.0453 9.10892C15.877 8.97263 15.7697 8.77506 15.747 8.55965C15.6071 7.22992 15.0934 5.96705 14.2654 4.91731C13.4375 3.86758 12.3291 3.07394 11.0688 2.62832C9.80846 2.18271 8.44769 2.10335 7.14411 2.39945C5.84054 2.69555 4.6475 3.35498 3.70319 4.30136C2.75889 5.24774 2.10195 6.44235 1.80848 7.74681C1.51501 9.05127 1.59701 10.4122 2.04499 11.672C2.49298 12.9317 3.2886 14.0388 4.33971 14.8648C5.39083 15.6909 6.65441 16.2023 7.9841 16.3396C8.09152 16.3496 8.19589 16.3808 8.29117 16.4315C8.38645 16.4821 8.47077 16.5511 8.53923 16.6345C8.60769 16.7178 8.65895 16.814 8.69004 16.9173C8.72113 17.0207 8.73143 17.1291 8.72035 17.2365C8.70928 17.3438 8.67704 17.4479 8.6255 17.5427C8.57397 17.6375 8.50416 17.7211 8.42011 17.7888C8.33606 17.8564 8.23944 17.9067 8.13583 17.9368C8.03222 17.9669 7.92368 17.9761 7.81648 17.964C5.76246 17.7526 3.85038 16.818 2.42153 15.327C0.992671 13.836 0.140028 11.8857 0.0157857 9.82406C-0.108457 7.76245 0.503786 5.72378 1.74324 4.0719C2.98269 2.42003 4.76868 1.26247 6.78244 0.805821L6.78353 0.80691ZM8.71119 3.8564C8.9277 3.8564 9.13534 3.94243 9.28844 4.09556C9.44153 4.24869 9.52754 4.45638 9.52754 4.67294V10.3887H5.1737C4.95719 10.3887 4.74955 10.3027 4.59645 10.1495C4.44336 9.99641 4.35735 9.78872 4.35735 9.57216C4.35735 9.3556 4.44336 9.14791 4.59645 8.99478C4.74955 8.84165 4.95719 8.75562 5.1737 8.75562H7.89485V4.67294C7.89485 4.45638 7.98086 4.24869 8.13395 4.09556C8.28705 3.94243 8.49469 3.8564 8.71119 3.8564Z" fill="white"/>
</svg>
