<svg width="18" height="19" viewBox="0 0 18 19" fill="none" xmlns="http://www.w3.org/2000/svg">
<path d="M8.99509 9.17328C10.8756 9.17328 12.4001 7.64881 12.4001 5.76828C12.4001 3.88775 10.8756 2.36328 8.99509 2.36328C7.11456 2.36328 5.59009 3.88775 5.59009 5.76828C5.59009 7.64881 7.11456 9.17328 8.99509 9.17328Z" fill="white"/>
<path d="M6.00005 13.9144C6.01044 13.6377 6.10262 13.3704 6.26493 13.1461C6.42724 12.9219 6.6524 12.7507 6.91194 12.6544C7.17148 12.5581 7.45376 12.5409 7.72308 12.605C7.99241 12.669 8.23669 12.8115 8.42505 13.0144L10.355 15.0894L13.775 11.2744C12.3624 10.3327 10.6976 9.84105 9.00005 9.86439C7.82249 9.83462 6.65269 10.0632 5.57292 10.5339C4.49315 11.0047 3.52961 11.7063 2.75005 12.5894C2.6841 12.6773 2.64896 12.7845 2.65005 12.8944V15.5894C2.64993 15.8495 2.75116 16.0994 2.93226 16.2861C3.11335 16.4728 3.36007 16.5816 3.62005 16.5894H7.90505L6.37005 14.9394C6.24299 14.802 6.14478 14.6404 6.08123 14.4644C6.01767 14.2883 5.99007 14.1013 6.00005 13.9144Z" fill="white"/>
<path d="M14.38 16.5904C14.64 16.5826 14.8867 16.4739 15.0678 16.2872C15.2489 16.1005 15.3502 15.8505 15.35 15.5904V13.7104L12.785 16.5904H14.38Z" fill="white"/>
<path d="M16.885 9.89953C16.8359 9.85519 16.7786 9.82102 16.7162 9.79901C16.6538 9.777 16.5877 9.76758 16.5217 9.7713C16.4556 9.77502 16.391 9.7918 16.3315 9.82068C16.272 9.84956 16.2188 9.88996 16.175 9.93953L10.365 16.4395L7.76501 13.6445C7.72233 13.5946 7.67024 13.5536 7.61171 13.5238C7.55319 13.4941 7.48937 13.4761 7.4239 13.471C7.35843 13.4659 7.2926 13.4737 7.23017 13.4941C7.16773 13.5144 7.10991 13.5468 7.06001 13.5895C7.01314 13.636 6.97595 13.6913 6.95056 13.7522C6.92518 13.8132 6.91211 13.8785 6.91211 13.9445C6.91211 14.0105 6.92518 14.0759 6.95056 14.1368C6.97595 14.1977 7.01314 14.2531 7.06001 14.2995L10.4 17.8995L16.92 10.5895C17.0041 10.4921 17.0474 10.366 17.0408 10.2375C17.0343 10.109 16.9785 9.98794 16.885 9.89953Z" fill="white"/>
</svg>
