<svg width="32" height="32" viewBox="0 0 32 32" fill="none" xmlns="http://www.w3.org/2000/svg">
<path d="M5.9375 0.25H26.0625C27.5152 0.249905 28.913 0.80572 29.9689 1.80343C31.0249 2.80113 31.659 4.16509 31.7413 5.6155L31.75 5.9375V26.0625C31.7501 27.5152 31.1943 28.913 30.1966 29.9689C29.1989 31.0249 27.8349 31.659 26.3845 31.7413L26.0625 31.75H5.9375C4.48476 31.7501 3.08705 31.1943 2.0311 30.1966C0.975142 29.1989 0.340998 27.8349 0.25875 26.3845L0.25 26.0625V5.9375C0.249905 4.48476 0.80572 3.08705 1.80343 2.0311C2.80113 0.975142 4.16509 0.340998 5.6155 0.25875L5.9375 0.25ZM9.56875 20.375H2.875V26.0625C2.87503 26.8311 3.16405 27.5716 3.68469 28.1369C4.20533 28.7023 4.91952 29.0513 5.6855 29.1145L5.9375 29.125H26.0625C26.8314 29.1249 27.5721 28.8357 28.1375 28.3147C28.7029 27.7937 29.0517 27.079 29.1145 26.3127L29.125 26.0625V20.375H22.4312C22.1408 21.7986 21.3861 23.0855 20.2856 24.034C19.185 24.9825 17.8008 25.539 16.35 25.6163L16 25.625C14.5449 25.6255 13.1309 25.1423 11.9804 24.2515C10.8298 23.3607 10.008 22.1128 9.644 20.704L9.56875 20.375ZM26.0625 2.875H5.9375C5.16892 2.87503 4.42844 3.16405 3.86307 3.68469C3.29769 4.20533 2.94874 4.91952 2.8855 5.6855L2.875 5.9375V17.75H10.75C11.0672 17.75 11.3736 17.8649 11.6126 18.0733C11.8517 18.2818 12.0071 18.5698 12.0503 18.884L12.0625 19.0625C12.0606 20.0847 12.4563 21.0676 13.166 21.8033C13.8756 22.539 14.8436 22.9699 15.8652 23.0049C16.8868 23.0399 17.8819 22.6763 18.6403 21.9908C19.3986 21.3054 19.8607 20.3519 19.9287 19.332L19.9375 19.0625C19.9375 18.7453 20.0524 18.4389 20.2608 18.1999C20.4693 17.9608 20.7573 17.8054 21.0715 17.7622L21.25 17.75H29.125V5.9375C29.1249 5.16864 28.8357 4.42793 28.3147 3.86251C27.7937 3.29709 27.079 2.94833 26.3127 2.8855L26.0625 2.875ZM6.8125 11.625H25.1875C25.52 11.6251 25.8401 11.7514 26.0831 11.9785C26.3261 12.2055 26.4739 12.5163 26.4965 12.848C26.5192 13.1798 26.4151 13.5078 26.2052 13.7658C25.9954 14.0237 25.6954 14.1924 25.366 14.2378L25.1875 14.25H6.8125C6.47996 14.2499 6.15985 14.1236 5.91686 13.8965C5.67388 13.6695 5.52612 13.3587 5.50345 13.027C5.48079 12.6952 5.5849 12.3672 5.79476 12.1092C6.00461 11.8513 6.30456 11.6826 6.634 11.6372L6.8125 11.625ZM6.8125 6.375H25.1875C25.52 6.3751 25.8401 6.50143 26.0831 6.72845C26.3261 6.95548 26.4739 7.26627 26.4965 7.59804C26.5192 7.92981 26.4151 8.25781 26.2052 8.51577C25.9954 8.77374 25.6954 8.94242 25.366 8.98775L25.1875 9H6.8125C6.47996 8.9999 6.15985 8.87357 5.91686 8.64655C5.67388 8.41952 5.52612 8.10873 5.50345 7.77696C5.48079 7.44519 5.5849 7.11719 5.79476 6.85923C6.00461 6.60126 6.30456 6.43258 6.634 6.38725L6.8125 6.375Z" fill="#006EC2"/>
</svg>
