<svg width="25" height="25" viewBox="0 0 25 25" fill="none" xmlns="http://www.w3.org/2000/svg">
<path d="M13.5546 24.3134V21.9158C14.3938 21.7959 15.2082 21.5661 15.9978 21.2264C16.7874 20.8868 17.5315 20.4572 18.23 19.9377L19.9682 21.676C19.0292 22.4153 18.0202 23.0099 16.9412 23.4598C15.8623 23.9098 14.7334 24.1943 13.5546 24.3134ZM21.6466 19.9377L19.9682 18.2594C20.4877 17.6 20.9073 16.876 21.227 16.0871C21.5467 15.2983 21.7665 14.4639 21.8863 13.584H24.3439C24.1841 14.8228 23.8796 15.9768 23.4304 17.0462C22.9813 18.1155 22.3867 19.0794 21.6466 19.9377ZM21.8863 11.1864C21.7665 10.2873 21.5467 9.44293 21.227 8.65331C20.9073 7.86369 20.4877 7.1496 19.9682 6.51103L21.6466 4.83269C22.4058 5.71182 23.02 6.69085 23.4892 7.76978C23.9583 8.84871 24.2432 9.98759 24.3439 11.1864H21.8863ZM11.157 24.3134C8.10001 23.9537 5.54774 22.645 3.50017 20.3873C1.4526 18.1295 0.428412 15.4622 0.427612 12.3852C0.427612 9.28828 1.4518 6.61093 3.50017 4.35317C5.54854 2.09541 8.10081 0.796695 11.157 0.457031V2.85466C8.75936 3.19432 6.77133 4.26326 5.19289 6.06148C3.61445 7.85969 2.82524 9.96761 2.82524 12.3852C2.82524 14.8028 3.61445 16.9059 5.19289 18.6946C6.77133 20.4832 8.75936 21.5569 11.157 21.9158V24.3134ZM18.2899 4.83269C17.5706 4.29323 16.8114 3.85366 16.0122 3.514C15.213 3.17434 14.3938 2.95456 13.5546 2.85466V0.457031C14.7334 0.556932 15.8623 0.83186 16.9412 1.28181C18.0202 1.73177 19.0292 2.33597 19.9682 3.09442L18.2899 4.83269ZM12.3858 18.3793C11.2269 17.4002 10.138 16.3513 9.119 15.2324C8.10001 14.1135 7.59051 12.8048 7.59051 11.3063C7.59051 9.94763 8.05525 8.78877 8.98473 7.82972C9.91421 6.87067 11.0479 6.39115 12.3858 6.39115C13.7236 6.39115 14.8577 6.87067 15.788 7.82972C16.7183 8.78877 17.1826 9.94763 17.181 11.3063C17.181 12.8048 16.6715 14.1135 15.6525 15.2324C14.6335 16.3513 13.5446 17.4002 12.3858 18.3793ZM12.3858 12.3852C12.7454 12.3852 13.0503 12.2605 13.3005 12.0112C13.5506 11.7618 13.6753 11.4569 13.6745 11.0965C13.6745 10.7568 13.5498 10.4571 13.3005 10.1974C13.0511 9.93764 12.7462 9.80776 12.3858 9.80776C12.0253 9.80776 11.7204 9.93764 11.4711 10.1974C11.2217 10.4571 11.097 10.7568 11.097 11.0965C11.097 11.4561 11.2221 11.761 11.4723 12.0112C11.7224 12.2613 12.0269 12.386 12.3858 12.3852Z" fill="#363333"/>
</svg>
