<svg width="27" height="27" viewBox="0 0 27 27" fill="none" xmlns="http://www.w3.org/2000/svg">
<path d="M13.3857 25.3747C6.76466 25.3747 1.39758 20.0076 1.39758 13.3866C1.39758 6.76552 6.76466 1.39844 13.3857 1.39844C18.754 1.39844 23.2471 4.92654 24.7744 9.79012H21.7774" stroke="#363333" stroke-width="1.79822" stroke-linecap="round" stroke-linejoin="round"/>
<path d="M13.3857 8.58984V13.3851L15.7834 15.7827M25.3199 14.5839C25.3559 14.1883 25.3739 13.7887 25.3739 13.3851M16.9822 25.3732C17.3899 25.2382 17.7901 25.0813 18.181 24.9033M23.9233 19.3792C24.1559 18.9332 24.3617 18.472 24.5407 17.9957M20.8088 23.2501C21.2228 22.9081 21.6132 22.5396 21.98 22.1448" stroke="#363333" stroke-width="1.79822" stroke-linecap="round" stroke-linejoin="round"/>
</svg>
