<svg width="25" height="27" viewBox="0 0 25 27" fill="none" xmlns="http://www.w3.org/2000/svg">
<path d="M12.3834 1.39844C8.77732 1.39844 6.43964 3.81884 3.67518 4.70116C2.5507 5.06081 1.98845 5.23943 1.76068 5.49238C1.5329 5.74413 1.46697 6.11456 1.3339 6.85303C-0.0926852 14.7604 3.02423 22.0707 10.4569 24.9167C11.2541 25.2224 11.6533 25.3747 12.3869 25.3747C13.1206 25.3747 13.521 25.2212 14.3194 24.9155C21.7509 22.0708 24.8642 14.7604 23.4376 6.85303C23.3045 6.11456 23.2374 5.74413 23.0096 5.49118C22.7818 5.23823 22.2208 5.05961 21.0963 4.70116C18.3307 3.81884 15.9894 1.39844 12.3834 1.39844Z" stroke="#363333" stroke-width="1.79822" stroke-linecap="round" stroke-linejoin="round"/>
<path d="M8.78931 14.5843C8.78931 14.5843 9.98812 14.5843 11.1869 16.9819C11.1869 16.9819 14.9956 10.9879 18.3798 9.78906" stroke="#363333" stroke-width="1.79822" stroke-linecap="round" stroke-linejoin="round"/>
</svg>
