<svg width="101" height="100" viewBox="0 0 101 100" fill="none" xmlns="http://www.w3.org/2000/svg">
<circle cx="50.5" cy="50" r="50" fill="#006EC2"/>
<g clip-path="url(#clip0_104_7315)">
<path d="M50.4999 71.6654C38.5334 71.6654 28.8333 61.9652 28.8333 49.9987C28.8333 38.0322 38.5334 28.332 50.4999 28.332C53.8639 28.3304 57.1819 29.1128 60.1907 30.6172C63.1995 32.1216 65.8162 34.3065 67.8333 36.9987H61.9616C59.4596 34.7925 56.3741 33.3551 53.0755 32.8591C49.7768 32.363 46.4051 32.8293 43.3648 34.202C40.3246 35.5747 37.7451 37.7955 35.9357 40.5979C34.1264 43.4004 33.1641 46.6653 33.1644 50.0011C33.1647 53.3369 34.1275 56.6017 35.9373 59.4038C37.7471 62.2059 40.327 64.4263 43.3675 65.7985C46.4079 67.1707 49.7797 67.6364 53.0783 67.1398C56.3769 66.6432 59.4621 65.2053 61.9638 62.9987H67.8354C65.8182 65.6912 63.2011 67.8763 60.1919 69.3807C57.1827 70.8851 53.8642 71.6674 50.4999 71.6654ZM65.6666 58.6654V52.1654H48.3333V47.832H65.6666V41.332L76.4999 49.9987L65.6666 58.6654Z" fill="white"/>
</g>
<defs>
<clipPath id="clip0_104_7315">
<rect width="52" height="52" fill="white" transform="translate(24.5 24)"/>
</clipPath>
</defs>
</svg>
