<svg width="22" height="22" viewBox="0 0 22 22" fill="none" xmlns="http://www.w3.org/2000/svg">
<path d="M11.5131 19.085C11.3635 19.1924 11.184 19.2502 10.9998 19.2502C10.8156 19.2502 10.6361 19.1924 10.4865 19.085C6.05988 15.9298 1.36197 9.43983 6.11122 4.75017C7.41503 3.46761 9.1709 2.7492 10.9998 2.75C12.8331 2.75 14.5922 3.46958 15.8884 4.74925C20.6376 9.43892 15.9397 15.928 11.5131 19.085Z" stroke="#006EC2" stroke-width="1.375" stroke-linecap="round" stroke-linejoin="round"/>
<path d="M10.9993 10.9997C11.4856 10.9997 11.9519 10.8065 12.2957 10.4627C12.6395 10.1189 12.8327 9.65257 12.8327 9.16634C12.8327 8.68011 12.6395 8.2138 12.2957 7.86998C11.9519 7.52616 11.4856 7.33301 10.9993 7.33301C10.5131 7.33301 10.0468 7.52616 9.70299 7.86998C9.35917 8.2138 9.16602 8.68011 9.16602 9.16634C9.16602 9.65257 9.35917 10.1189 9.70299 10.4627C10.0468 10.8065 10.5131 10.9997 10.9993 10.9997Z" stroke="#006EC2" stroke-width="1.375" stroke-linecap="round" stroke-linejoin="round"/>
</svg>
