<svg width="24" height="24" viewBox="0 0 24 24" fill="none" xmlns="http://www.w3.org/2000/svg">
<path d="M9.12606 2.41602H3.37606C3.12189 2.41602 2.87814 2.51698 2.69841 2.6967C2.51869 2.87643 2.41772 3.12018 2.41772 3.37435V9.12435C2.41772 9.37851 2.51869 9.62227 2.69841 9.80199C2.87814 9.98171 3.12189 10.0827 3.37606 10.0827H9.12606C9.38022 10.0827 9.62398 9.98171 9.8037 9.80199C9.98342 9.62227 10.0844 9.37851 10.0844 9.12435V3.37435C10.0844 3.12018 9.98342 2.87643 9.8037 2.6967C9.62398 2.51698 9.38022 2.41602 9.12606 2.41602ZM9.12606 13.916H3.37606C3.12189 13.916 2.87814 14.017 2.69841 14.1967C2.51869 14.3764 2.41772 14.6202 2.41772 14.8743V20.6243C2.41772 20.8785 2.51869 21.1223 2.69841 21.302C2.87814 21.4817 3.12189 21.5827 3.37606 21.5827H9.12606C9.38022 21.5827 9.62398 21.4817 9.8037 21.302C9.98342 21.1223 10.0844 20.8785 10.0844 20.6243V14.8743C10.0844 14.6202 9.98342 14.3764 9.8037 14.1967C9.62398 14.017 9.38022 13.916 9.12606 13.916ZM20.6261 2.41602H14.8761C14.6219 2.41602 14.3781 2.51698 14.1984 2.6967C14.0187 2.87643 13.9177 3.12018 13.9177 3.37435V9.12435C13.9177 9.37851 14.0187 9.62227 14.1984 9.80199C14.3781 9.98171 14.6219 10.0827 14.8761 10.0827H20.6261C20.8802 10.0827 21.124 9.98171 21.3037 9.80199C21.4834 9.62227 21.5844 9.37851 21.5844 9.12435V3.37435C21.5844 3.12018 21.4834 2.87643 21.3037 2.6967C21.124 2.51698 20.8802 2.41602 20.6261 2.41602Z" stroke="#006EC2" stroke-width="1.91667" stroke-linejoin="round"/>
<path d="M13.9177 13.916H21.5844M17.7511 17.7493H21.5844M13.9177 21.5827H21.5844" stroke="#006EC2" stroke-width="1.91667" stroke-linecap="round" stroke-linejoin="round"/>
</svg>
