<svg width="6" height="22" viewBox="0 0 6 22" fill="none" xmlns="http://www.w3.org/2000/svg">
<path d="M0.333292 19.0007C0.333292 19.7079 0.614244 20.3862 1.11434 20.8863C1.61444 21.3864 2.29272 21.6673 2.99996 21.6673C3.7072 21.6673 4.38548 21.3864 4.88558 20.8863C5.38567 20.3862 5.66663 19.7079 5.66663 19.0007C5.66663 18.2934 5.38567 17.6151 4.88558 17.115C4.38548 16.6149 3.7072 16.334 2.99996 16.334C2.29272 16.334 1.61444 16.6149 1.11434 17.115C0.614244 17.6151 0.333292 18.2934 0.333292 19.0007ZM0.333292 11.0007C0.333292 11.7079 0.614244 12.3862 1.11434 12.8863C1.61444 13.3864 2.29272 13.6673 2.99996 13.6673C3.7072 13.6673 4.38548 13.3864 4.88558 12.8863C5.38567 12.3862 5.66663 11.7079 5.66663 11.0007C5.66663 10.2934 5.38567 9.61513 4.88558 9.11503C4.38548 8.61494 3.7072 8.33398 2.99996 8.33398C2.29272 8.33398 1.61444 8.61494 1.11434 9.11503C0.614244 9.61513 0.333292 10.2934 0.333292 11.0007ZM2.99996 5.66732C2.29272 5.66732 1.61444 5.38637 1.11434 4.88627C0.614244 4.38617 0.333292 3.7079 0.333292 3.00065C0.333292 2.29341 0.614244 1.61513 1.11434 1.11503C1.61444 0.614936 2.29272 0.333984 2.99996 0.333984C3.7072 0.333984 4.38548 0.614936 4.88558 1.11503C5.38567 1.61513 5.66663 2.29341 5.66663 3.00065C5.66663 3.7079 5.38567 4.38617 4.88558 4.88627C4.38548 5.38637 3.7072 5.66732 2.99996 5.66732Z" fill="#827F7F"/>
</svg>
