<svg width="22" height="22" viewBox="0 0 22 22" fill="none" xmlns="http://www.w3.org/2000/svg">
<path d="M8.12606 1.41667H2.37606C2.12189 1.41667 1.87814 1.51764 1.69841 1.69736C1.51869 1.87708 1.41772 2.12084 1.41772 2.37501V8.125C1.41772 8.37917 1.51869 8.62293 1.69841 8.80265C1.87814 8.98237 2.12189 9.08334 2.37606 9.08334H8.12606C8.38022 9.08334 8.62398 8.98237 8.8037 8.80265C8.98342 8.62293 9.08439 8.37917 9.08439 8.125V2.37501C9.08439 2.12084 8.98342 1.87708 8.8037 1.69736C8.62398 1.51764 8.38022 1.41667 8.12606 1.41667ZM8.12606 12.9167H2.37606C2.12189 12.9167 1.87814 13.0176 1.69841 13.1974C1.51869 13.3771 1.41772 13.6208 1.41772 13.875V19.625C1.41772 19.8792 1.51869 20.1229 1.69841 20.3026C1.87814 20.4824 2.12189 20.5833 2.37606 20.5833H8.12606C8.38022 20.5833 8.62398 20.4824 8.8037 20.3026C8.98342 20.1229 9.08439 19.8792 9.08439 19.625V13.875C9.08439 13.6208 8.98342 13.3771 8.8037 13.1974C8.62398 13.0176 8.38022 12.9167 8.12606 12.9167ZM19.6261 1.41667H13.8761C13.6219 1.41667 13.3781 1.51764 13.1984 1.69736C13.0187 1.87708 12.9177 2.12084 12.9177 2.37501V8.125C12.9177 8.37917 13.0187 8.62293 13.1984 8.80265C13.3781 8.98237 13.6219 9.08334 13.8761 9.08334H19.6261C19.8802 9.08334 20.124 8.98237 20.3037 8.80265C20.4834 8.62293 20.5844 8.37917 20.5844 8.125V2.37501C20.5844 2.12084 20.4834 1.87708 20.3037 1.69736C20.124 1.51764 19.8802 1.41667 19.6261 1.41667Z" stroke="#5E5F60" stroke-width="1.91667" stroke-linejoin="round"/>
<path d="M12.9177 12.9167H20.5844M16.7511 16.75H20.5844M12.9177 20.5833H20.5844" stroke="#5E5F60" stroke-width="1.91667" stroke-linecap="round" stroke-linejoin="round"/>
</svg>
