<svg width="24" height="24" viewBox="0 0 24 24" fill="none" xmlns="http://www.w3.org/2000/svg">
<path d="M10.9227 12C10.9227 12.2859 11.0363 12.5602 11.2385 12.7623C11.4407 12.9645 11.7149 13.0781 12.0009 13.0781C12.2868 13.0781 12.561 12.9645 12.7632 12.7623C12.9654 12.5602 13.079 12.2859 13.079 12C13.079 11.7141 12.9654 11.4398 12.7632 11.2376C12.561 11.0355 12.2868 10.9219 12.0009 10.9219C11.7149 10.9219 11.4407 11.0355 11.2385 11.2376C11.0363 11.4398 10.9227 11.7141 10.9227 12ZM15.4149 12C15.4149 12.2859 15.5285 12.5602 15.7307 12.7623C15.9329 12.9645 16.2071 13.0781 16.493 13.0781C16.779 13.0781 17.0532 12.9645 17.2554 12.7623C17.4576 12.5602 17.5712 12.2859 17.5712 12C17.5712 11.7141 17.4576 11.4398 17.2554 11.2376C17.0532 11.0355 16.779 10.9219 16.493 10.9219C16.2071 10.9219 15.9329 11.0355 15.7307 11.2376C15.5285 11.4398 15.4149 11.7141 15.4149 12ZM6.43055 12C6.43055 12.2859 6.54414 12.5602 6.74632 12.7623C6.94851 12.9645 7.22274 13.0781 7.50867 13.0781C7.79461 13.0781 8.06883 12.9645 8.27102 12.7623C8.47321 12.5602 8.5868 12.2859 8.5868 12C8.5868 11.7141 8.47321 11.4398 8.27102 11.2376C8.06883 11.0355 7.79461 10.9219 7.50867 10.9219C7.22274 10.9219 6.94851 11.0355 6.74632 11.2376C6.54414 11.4398 6.43055 11.7141 6.43055 12ZM21.2817 8.10078C20.7741 6.89463 20.0464 5.81201 19.1187 4.88213C18.1976 3.95765 17.104 3.22279 15.9001 2.71914C14.6647 2.20029 13.353 1.9375 12.0009 1.9375H11.9559C10.5948 1.94424 9.27635 2.21377 8.0365 2.74385C6.84285 3.25266 5.75958 3.98883 4.84705 4.91133C3.9284 5.83896 3.2074 6.91709 2.70877 8.11875C2.19217 9.36309 1.93162 10.686 1.93836 12.0472C1.94598 13.607 2.31501 15.1439 3.01648 16.5371V19.9512C3.01648 20.2252 3.12534 20.488 3.3191 20.6818C3.51287 20.8755 3.77567 20.9844 4.04969 20.9844H7.466C8.85924 21.6858 10.3961 22.0549 11.9559 22.0625H12.0031C13.3485 22.0625 14.6535 21.802 15.8821 21.2921C17.08 20.7945 18.1694 20.0682 19.0895 19.1538C20.0172 18.2352 20.7471 17.1615 21.257 15.9644C21.7871 14.7245 22.0566 13.4061 22.0634 12.0449C22.0701 10.6771 21.8051 9.34961 21.2817 8.10078ZM17.8879 17.9387C16.3134 19.4975 14.2245 20.3555 12.0009 20.3555H11.9627C10.6083 20.3487 9.26287 20.0118 8.07469 19.3784L7.88602 19.2773H4.72352V16.1148L4.62244 15.9262C3.98904 14.738 3.65213 13.3926 3.64539 12.0382C3.63641 9.79883 4.49217 7.69648 6.06219 6.11299C7.62996 4.52949 9.72557 3.65352 11.9649 3.64453H12.0031C13.1262 3.64453 14.2155 3.8624 15.242 4.29365C16.2437 4.71367 17.1422 5.31787 17.9148 6.09053C18.6852 6.86094 19.2917 7.76162 19.7117 8.76338C20.1474 9.80107 20.3653 10.9017 20.3608 12.0382C20.3473 14.2753 19.4691 16.3709 17.8879 17.9387Z" fill="#006EC2"/>
</svg>
