<svg width="22" height="22" viewBox="0 0 22 22" fill="none" xmlns="http://www.w3.org/2000/svg">
<path d="M9.92274 11C9.92274 11.2859 10.0363 11.5602 10.2385 11.7623C10.4407 11.9645 10.7149 12.0781 11.0009 12.0781C11.2868 12.0781 11.561 11.9645 11.7632 11.7623C11.9654 11.5602 12.079 11.2859 12.079 11C12.079 10.7141 11.9654 10.4398 11.7632 10.2376C11.561 10.0355 11.2868 9.92188 11.0009 9.92188C10.7149 9.92188 10.4407 10.0355 10.2385 10.2376C10.0363 10.4398 9.92274 10.7141 9.92274 11ZM14.4149 11C14.4149 11.2859 14.5285 11.5602 14.7307 11.7623C14.9329 11.9645 15.2071 12.0781 15.493 12.0781C15.779 12.0781 16.0532 11.9645 16.2554 11.7623C16.4576 11.5602 16.5712 11.2859 16.5712 11C16.5712 10.7141 16.4576 10.4398 16.2554 10.2376C16.0532 10.0355 15.779 9.92188 15.493 9.92188C15.2071 9.92188 14.9329 10.0355 14.7307 10.2376C14.5285 10.4398 14.4149 10.7141 14.4149 11ZM5.43055 11C5.43055 11.2859 5.54414 11.5602 5.74632 11.7623C5.94851 11.9645 6.22274 12.0781 6.50867 12.0781C6.79461 12.0781 7.06883 11.9645 7.27102 11.7623C7.47321 11.5602 7.5868 11.2859 7.5868 11C7.5868 10.7141 7.47321 10.4398 7.27102 10.2376C7.06883 10.0355 6.79461 9.92188 6.50867 9.92188C6.22274 9.92188 5.94851 10.0355 5.74632 10.2376C5.54414 10.4398 5.43055 10.7141 5.43055 11ZM20.2817 7.10078C19.7741 5.89463 19.0464 4.81201 18.1187 3.88213C17.1976 2.95765 16.104 2.22279 14.9001 1.71914C13.6647 1.20029 12.353 0.9375 11.0009 0.9375H10.9559C9.59481 0.944238 8.27635 1.21377 7.0365 1.74385C5.84285 2.25266 4.75958 2.98883 3.84705 3.91133C2.9284 4.83896 2.2074 5.91709 1.70877 7.11875C1.19217 8.36309 0.931622 9.68603 0.93836 11.0472C0.945981 12.607 1.31501 14.1439 2.01648 15.5371V18.9512C2.01648 19.2252 2.12534 19.488 2.3191 19.6818C2.51287 19.8755 2.77567 19.9844 3.04969 19.9844H6.466C7.85924 20.6858 9.39609 21.0549 10.9559 21.0625H11.0031C12.3485 21.0625 13.6535 20.802 14.8821 20.2921C16.08 19.7945 17.1694 19.0682 18.0895 18.1538C19.0172 17.2352 19.7471 16.1615 20.257 14.9644C20.7871 13.7245 21.0566 12.4061 21.0634 11.0449C21.0701 9.67705 20.8051 8.34961 20.2817 7.10078ZM16.8879 16.9387C15.3134 18.4975 13.2245 19.3555 11.0009 19.3555H10.9627C9.60828 19.3487 8.26287 19.0118 7.07469 18.3784L6.88602 18.2773H3.72352V15.1148L3.62244 14.9262C2.98904 13.738 2.65213 12.3926 2.64539 11.0382C2.63641 8.79883 3.49217 6.69648 5.06219 5.11299C6.62996 3.52949 8.72557 2.65352 10.9649 2.64453H11.0031C12.1262 2.64453 13.2155 2.8624 14.242 3.29365C15.2437 3.71367 16.1422 4.31787 16.9148 5.09053C17.6852 5.86094 18.2917 6.76162 18.7117 7.76338C19.1474 8.80107 19.3653 9.90166 19.3608 11.0382C19.3473 13.2753 18.4691 15.3709 16.8879 16.9387Z" fill="#5E5F60"/>
</svg>
