<svg width="21" height="17" viewBox="0 0 21 17" fill="none" xmlns="http://www.w3.org/2000/svg">
<path fill-rule="evenodd" clip-rule="evenodd" d="M11.407 1.78822C10.7359 2.11423 9.88546 2.6732 8.67354 3.47227L8.46783 3.6079C8.45217 3.61823 8.43672 3.62842 8.42147 3.63848C8.06423 3.87412 7.81682 4.03733 7.5457 4.15698C7.27851 4.2749 6.99771 4.35914 6.70974 4.40777C6.41752 4.45712 6.12113 4.45706 5.69316 4.45697C5.6749 4.45696 5.65639 4.45696 5.63764 4.45696C4.28114 4.45696 3.82327 4.47226 3.43398 4.65237C3.0578 4.82641 2.65715 5.20339 2.46054 5.56829C2.25544 5.94894 2.21779 6.33906 2.14539 7.52689C2.12552 7.85291 2.11401 8.16541 2.11401 8.45032C2.11401 8.73523 2.12552 9.04773 2.14539 9.37375C2.21779 10.5616 2.25544 10.9517 2.46054 11.3323C2.65715 11.6972 3.0578 12.0742 3.43398 12.2483C3.82327 12.4284 4.28114 12.4437 5.63764 12.4437C5.65639 12.4437 5.6749 12.4437 5.69316 12.4437C6.12112 12.4436 6.41752 12.4435 6.70974 12.4929C6.99771 12.5415 7.27851 12.6257 7.5457 12.7437C7.81682 12.8633 8.06423 13.0265 8.42146 13.2622C8.43672 13.2722 8.45217 13.2824 8.46783 13.2927L8.67354 13.4284C9.88546 14.2274 10.7359 14.7864 11.407 15.1124C12.0763 15.4375 12.4109 15.4506 12.645 15.3707C12.7741 15.3266 12.9005 15.2623 13.0121 15.1839C13.2156 15.0408 13.4013 14.7641 13.5317 14.0393C13.6628 13.3112 13.7111 12.304 13.7779 10.8657C13.8268 9.81371 13.8592 8.93119 13.8592 8.45032C13.8592 7.96945 13.8268 7.08693 13.7779 6.03497C13.7111 4.59666 13.6628 3.58945 13.5317 2.86136C13.4013 2.13657 13.2156 1.85979 13.0121 1.71674C12.9005 1.6383 12.7741 1.57402 12.645 1.52996C12.4109 1.45006 12.0763 1.4631 11.407 1.78822ZM10.7912 0.520467C11.5673 0.14343 12.3315 -0.0662749 13.1002 0.196071C13.3557 0.283249 13.6016 0.408395 13.8225 0.563599C14.4859 1.02984 14.7667 1.76651 14.9189 2.61165C15.0684 3.4426 15.1196 4.54377 15.1833 5.91551L15.1858 5.96955C15.2345 7.01719 15.2686 7.93165 15.2686 8.45032C15.2686 8.96898 15.2345 9.88345 15.1858 10.9311L15.1833 10.9851C15.1196 12.3569 15.0684 13.458 14.9189 14.289C14.7667 15.1341 14.4859 15.8708 13.8225 16.337C13.6016 16.4922 13.3557 16.6174 13.1002 16.7046C12.3315 16.9669 11.5673 16.7572 10.7912 16.3802C10.0267 16.0088 9.09922 15.3973 7.94268 14.6347L7.692 14.4694C7.27113 14.1919 7.12636 14.0992 6.97663 14.0331C6.81632 13.9623 6.64784 13.9118 6.47505 13.8826C6.31367 13.8554 6.14176 13.8531 5.63764 13.8531C5.58653 13.8531 5.53611 13.8531 5.48635 13.8531C4.34291 13.8538 3.54842 13.8542 2.84217 13.5274C2.18933 13.2254 1.56097 12.6341 1.21976 12.0009C0.850853 11.3162 0.807565 10.6002 0.746015 9.58207C0.743574 9.54169 0.741104 9.50084 0.738584 9.45949C0.717494 9.11347 0.70459 8.77127 0.70459 8.45032C0.70459 8.12937 0.717494 7.78717 0.738584 7.44115C0.741104 7.3998 0.743574 7.35894 0.746015 7.31856C0.807565 6.30045 0.850853 5.58443 1.21976 4.89975C1.56097 4.26649 2.18933 3.67526 2.84217 3.37322C3.54842 3.04646 4.34291 3.04688 5.48634 3.04749C5.53611 3.04751 5.58653 3.04754 5.63764 3.04754C6.14176 3.04754 6.31367 3.04528 6.47505 3.01803C6.64784 2.98885 6.81632 2.9383 6.97663 2.86755C7.12636 2.80147 7.27113 2.70873 7.692 2.43123L7.9427 2.26594C9.09923 1.50337 10.0267 0.89181 10.7912 0.520467ZM18.341 2.27146C18.64 2.0223 19.0844 2.0627 19.3335 2.36169L18.7922 2.81284C19.3335 2.36169 19.3335 2.36169 19.3335 2.36169L19.3346 2.36298L19.3358 2.36444L19.3386 2.36783L19.3456 2.37654C19.351 2.38321 19.3576 2.3916 19.3655 2.40174C19.3812 2.42201 19.4016 2.44925 19.4262 2.48361C19.4752 2.55233 19.5406 2.64949 19.6167 2.77619C19.7688 3.02972 19.9631 3.40102 20.1546 3.89881C20.5382 4.89608 20.9063 6.39129 20.9063 8.45052C20.9063 10.5097 20.5382 12.0049 20.1546 13.0022C19.9631 13.5 19.7688 13.8713 19.6167 14.1248C19.5406 14.2515 19.4752 14.3487 19.4262 14.4174C19.4016 14.4518 19.3812 14.479 19.3655 14.4993C19.3608 14.5054 19.3565 14.5108 19.3527 14.5156C19.3502 14.5189 19.3478 14.5218 19.3456 14.5245L19.3386 14.5332L19.3358 14.5366L19.3346 14.538C19.3346 14.538 19.3335 14.5393 18.7922 14.0882L19.3335 14.5393C19.0844 14.8383 18.64 14.8787 18.341 14.6296C18.0435 14.3816 18.002 13.9403 18.2472 13.6414M18.2472 13.6414C18.2472 13.6414 18.2489 13.6392 18.2505 13.6372C18.2554 13.6308 18.2653 13.6178 18.2793 13.5982C18.3073 13.559 18.352 13.4932 18.4081 13.3997C18.5202 13.2128 18.6782 12.9146 18.8391 12.4963C19.1603 11.6613 19.4969 10.3377 19.4969 8.45052C19.4969 6.56337 19.1603 5.23973 18.8391 4.40476C18.6782 3.98643 18.5202 3.68825 18.4081 3.50133C18.352 3.40782 18.3073 3.34201 18.2793 3.30282C18.2653 3.28322 18.2554 3.27028 18.2505 3.26385C18.2489 3.26177 18.2472 3.25965 18.2472 3.25965L18.2505 3.26385L18.249 3.26185L18.2472 3.25965C18.002 2.96071 18.0435 2.51942 18.341 2.27146M16.5707 5.01565C16.9109 4.82664 17.3399 4.94922 17.529 5.28944L16.9389 5.61726C17.529 5.28945 17.529 5.28944 17.529 5.28944L17.5296 5.29067L17.5304 5.29198L17.5319 5.29484L17.5355 5.30153L17.5446 5.31877C17.5514 5.332 17.5597 5.34868 17.5694 5.36889C17.5886 5.40932 17.613 5.46381 17.6406 5.53292C17.6959 5.67119 17.7641 5.86752 17.8305 6.12612C17.9632 6.64379 18.0874 7.40744 18.0874 8.45052C18.0874 9.4936 17.9632 10.2572 17.8305 10.7749C17.7641 11.0335 17.6959 11.2298 17.6406 11.3681C17.613 11.4372 17.5886 11.4917 17.5694 11.5321C17.5597 11.5524 17.5514 11.569 17.5446 11.5823L17.5355 11.5995L17.5319 11.6062L17.5304 11.6091L17.5296 11.6104C17.5296 11.6104 17.529 11.6116 16.9389 11.2838L17.529 11.6116C17.3399 11.9518 16.9109 12.0744 16.5707 11.8854C16.2334 11.698 16.11 11.2746 16.2921 10.9358L16.2969 10.9262C16.3033 10.9127 16.3156 10.8857 16.332 10.8447C16.3648 10.7627 16.4141 10.6243 16.4652 10.4249C16.5674 10.0264 16.678 9.38062 16.678 8.45052C16.678 7.52041 16.5674 6.87464 16.4652 6.47618C16.4141 6.27672 16.3648 6.13831 16.332 6.05636C16.3156 6.01536 16.3033 5.98837 16.2969 5.97485L16.2921 5.96522C16.11 5.62642 16.2334 5.20305 16.5707 5.01565Z" fill="#181818"/>
</svg>
