<svg width="212" height="170" viewBox="0 0 212 170" fill="none" xmlns="http://www.w3.org/2000/svg">
<g opacity="0.5">
<path d="M185.417 1.31641C171.548 1.31641 160.309 12.5611 160.309 26.4244V93.7437C154.009 93.5342 147.622 95.6584 142.555 100.197C132.121 109.541 131.232 125.568 140.577 136.004C145.758 141.789 152.996 144.639 160.194 144.437C159.161 154.834 151.242 163.199 141.064 164.909C139.809 165.117 138.518 165.231 137.205 165.231H126.112C110.275 165.231 97.4398 152.396 97.4398 136.559V91.98H48.7999V26.4244C48.7999 12.5586 60.0421 1.31641 73.9104 1.31641H185.419H185.417Z" fill="#A7D8F9"/>
</g>
<path d="M137.203 165.962H126.109C109.895 165.962 96.7066 152.771 96.7066 136.559V92.7112H48.0667V26.4248C48.0667 12.1765 59.6597 0.585938 73.908 0.585938H185.417V2.04755C171.975 2.04755 161.039 12.9828 161.039 26.4248V94.5016L160.284 94.4773C153.919 94.2629 147.795 96.4894 143.042 100.743C138.141 105.132 135.242 111.166 134.879 117.734C134.516 124.301 136.733 130.618 141.12 135.519C145.965 140.93 152.918 143.919 160.172 143.709L161.003 143.685L160.92 144.511C159.86 155.171 151.744 163.857 141.183 165.631C139.861 165.85 138.521 165.962 137.203 165.962ZM49.5259 91.2496H98.1658V136.559C98.1658 151.967 110.702 164.501 126.107 164.501H137.201C138.438 164.501 139.697 164.396 140.94 164.189C150.582 162.569 158.053 154.81 159.368 145.178C151.982 145.149 144.974 142.014 140.029 136.491C130.433 125.775 131.347 109.249 142.065 99.6538C146.91 95.3153 153.11 92.9621 159.575 93.0011V26.4248C159.575 15.1801 166.796 5.58951 176.842 2.04755H73.9055C60.4612 2.04755 49.5259 12.9828 49.5259 26.4248V91.2496Z" fill="#A7D8F9"/>
<g opacity="0.75">
<path d="M210.527 26.4244V91.9776H160.309V26.4244C160.309 12.5586 171.551 1.31641 185.419 1.31641C192.352 1.31641 198.63 4.12757 203.173 8.67074C207.716 13.2139 210.527 19.4915 210.527 26.4244Z" fill="#A7D8F9"/>
</g>
<path d="M211.255 92.7126H159.575V26.4287C159.575 12.1804 171.168 0.589844 185.417 0.589844C192.318 0.589844 198.807 3.27677 203.687 8.15854C208.566 13.0379 211.255 19.5274 211.255 26.4287V92.7126ZM161.037 91.251H209.794V26.4287C209.794 19.9172 207.258 13.7955 202.654 9.19141C198.05 4.58734 191.928 2.05145 185.417 2.05145C171.975 2.05145 161.037 12.9867 161.037 26.4287V91.251Z" fill="#A7D8F9"/>
<g opacity="0.75">
<path d="M126.107 165.231H30.1474C14.3108 165.231 1.47546 152.394 1.47546 136.56V91.9805H97.4374V136.56C97.4374 152.396 110.275 165.231 126.109 165.231H126.107Z" fill="#A7D8F9"/>
</g>
<path d="M126.107 165.963H30.1473C13.9332 165.963 0.744629 152.772 0.744629 136.56V91.25H98.1682V136.56C98.1682 151.968 110.704 164.501 126.109 164.501V165.963H126.107ZM2.20624 92.7116V136.56C2.20624 151.968 14.742 164.501 30.1473 164.501H116.945C105.206 160.642 96.7042 149.573 96.7042 136.56V92.7116H2.20624Z" fill="#A7D8F9"/>
<path d="M78.8068 48.7539C78.8068 59.4066 72.6266 68.6147 63.6548 72.9825C60.0958 74.7218 56.0958 75.6938 51.8669 75.6938C36.9902 75.6938 24.9294 63.6331 24.9294 48.7539C24.9294 42.1961 27.2729 36.1816 31.173 31.5093C36.1108 25.5849 43.5479 21.8164 51.8669 21.8164C66.7461 21.8164 78.8068 33.8771 78.8068 48.7539Z" fill="white"/>
<path d="M51.8644 75.8202C36.9438 75.8202 24.8052 63.6791 24.8052 48.7585C24.8052 42.4321 27.0317 36.2812 31.0779 31.436C36.235 25.2485 43.811 21.6992 51.8644 21.6992C66.7875 21.6992 78.9261 33.8379 78.9261 48.7585C78.9261 53.9301 77.4621 58.9556 74.6948 63.2942C72.0005 67.5182 68.2004 70.9067 63.7035 73.0967C60.008 74.9042 56.0227 75.8202 51.862 75.8202H51.8644ZM51.8644 21.9428C43.8816 21.9428 36.3738 25.4604 31.2631 31.5919C27.2558 36.3933 25.0488 42.4882 25.0488 48.7585C25.0488 63.5475 37.0778 75.5766 51.8644 75.5766C55.9886 75.5766 59.935 74.6679 63.5987 72.8775C72.9043 68.3465 78.6825 59.1042 78.6825 48.7585C78.6825 33.9719 66.651 21.9428 51.8644 21.9428Z" fill="black"/>
<g opacity="0.25">
<path d="M78.8068 48.7578C78.8068 59.4105 72.6266 68.6186 63.6548 72.9864C60.0958 74.7257 56.0958 75.6977 51.8669 75.6977C36.9902 75.6977 24.9294 63.637 24.9294 48.7578C24.9294 42.2 27.2729 36.1855 31.173 31.5132C36.1108 25.5888 43.5479 21.8203 51.8669 21.8203C66.7461 21.8203 78.8068 33.881 78.8068 48.7578Z" fill="#A7D8F9"/>
</g>
<path d="M51.8644 76.4288C36.6077 76.4288 24.1962 64.0149 24.1962 48.7581C24.1962 42.2905 26.4738 36.0007 30.6102 31.0458C35.8817 24.7195 43.6307 21.0898 51.8644 21.0898C67.1236 21.0898 79.5351 33.5013 79.5351 48.7581C79.5351 54.0467 78.0394 59.1867 75.2088 63.6227C72.4536 67.9417 68.5682 71.4082 63.9714 73.6444C60.1907 75.4934 56.1177 76.4288 51.8644 76.4288ZM51.8644 22.5515C44.0643 22.5515 36.727 25.9887 31.7308 31.9813C27.8136 36.673 25.6553 42.6315 25.6553 48.7581C25.6553 63.211 37.4116 74.9672 51.862 74.9672C55.8912 74.9672 59.7498 74.0805 63.3283 72.329C72.422 67.9003 78.0711 58.8676 78.0711 48.7557C78.0711 34.3052 66.3124 22.549 51.862 22.549L51.8644 22.5515Z" fill="#A7D8F9"/>
<path d="M64.254 58.5864L61.6937 61.1442C60.8411 61.9968 59.4575 61.9968 58.6073 61.1442L51.8669 54.4037L45.124 61.1442C44.2738 61.9968 42.8901 61.9968 42.0375 61.1442L39.4773 58.5864C38.6222 57.7313 38.6222 56.3501 39.4773 55.4975L46.2177 48.7595L39.4773 42.0166C38.6247 41.164 38.6222 39.7828 39.4773 38.9302L42.0375 36.3699C42.8901 35.5173 44.2738 35.5173 45.124 36.3699L51.8669 43.1128L58.6073 36.3699C59.4599 35.5173 60.8436 35.5173 61.6937 36.3699L64.254 38.9302C65.109 39.7852 65.1066 41.1664 64.254 42.0166L57.5135 48.7595L64.254 55.4975C65.109 56.3501 65.109 57.7338 64.254 58.5864Z" fill="#A7D8F9"/>
<path d="M143.999 35.403H91.9344C91.53 35.403 91.2036 35.0766 91.2036 34.6722C91.2036 34.2678 91.53 33.9414 91.9344 33.9414H143.999C144.404 33.9414 144.73 34.2678 144.73 34.6722C144.73 35.0766 144.404 35.403 143.999 35.403ZM143.999 47.376H91.9344C91.53 47.376 91.2036 47.0496 91.2036 46.6452C91.2036 46.2408 91.53 45.9144 91.9344 45.9144H143.999C144.404 45.9144 144.73 46.2408 144.73 46.6452C144.73 47.0496 144.404 47.376 143.999 47.376ZM143.999 59.349H91.9344C91.53 59.349 91.2036 59.0226 91.2036 58.6182C91.2036 58.2139 91.53 57.8874 91.9344 57.8874H143.999C144.404 57.8874 144.73 58.2139 144.73 58.6182C144.73 59.0226 144.404 59.349 143.999 59.349ZM143.999 71.3221H91.9344C91.53 71.3221 91.2036 70.9956 91.2036 70.5913C91.2036 70.1869 91.53 69.8605 91.9344 69.8605H143.999C144.404 69.8605 144.73 70.1869 144.73 70.5913C144.73 70.9956 144.404 71.3221 143.999 71.3221ZM143.999 83.2975H59.7741C59.3698 83.2975 59.0433 82.9711 59.0433 82.5667C59.0433 82.1623 59.3698 81.8359 59.7741 81.8359H143.999C144.404 81.8359 144.73 82.1623 144.73 82.5667C144.73 82.9711 144.404 83.2975 143.999 83.2975ZM129.983 106.184H98.2608C97.8564 106.184 97.5299 105.857 97.5299 105.453C97.5299 105.049 97.8564 104.722 98.2608 104.722H129.983C130.387 104.722 130.713 105.049 130.713 105.453C130.713 105.857 130.387 106.184 129.983 106.184ZM129.983 119.217H98.2608C97.8564 119.217 97.5299 118.89 97.5299 118.486C97.5299 118.081 97.8564 117.755 98.2608 117.755H129.983C130.387 117.755 130.713 118.081 130.713 118.486C130.713 118.89 130.387 119.217 129.983 119.217ZM129.983 132.252H98.2608C97.8564 132.252 97.5299 131.925 97.5299 131.521C97.5299 131.117 97.8564 130.79 98.2608 130.79H129.983C130.387 130.79 130.713 131.117 130.713 131.521C130.713 131.925 130.387 132.252 129.983 132.252Z" fill="#A7D8F9"/>
<path d="M74.7995 148.149H11.7944C11.39 148.149 11.0636 147.823 11.0636 147.418C11.0636 147.014 11.39 146.688 11.7944 146.688H74.7995C75.2039 146.688 75.5303 147.014 75.5303 147.418C75.5303 147.823 75.2039 148.149 74.7995 148.149Z" fill="#A7D8F9"/>
<path d="M186.907 134.866L172.123 148.101L167.646 143.1C170.781 142.035 173.758 140.332 176.384 137.984C179.007 135.636 181.024 132.866 182.432 129.867L186.907 134.866Z" fill="#A7D8F9"/>
<g opacity="0.75">
<path d="M174.93 145.584L184.104 137.37L202.682 158.119C204.141 159.749 204.004 162.259 202.373 163.719L199.106 166.644C197.476 168.104 194.967 167.967 193.506 166.335L174.928 145.586L174.93 145.584Z" fill="#A7D8F9"/>
</g>
<path d="M196.466 168.39C196.379 168.39 196.291 168.39 196.201 168.382C194.949 168.314 193.799 167.761 192.961 166.826L173.894 145.532L184.157 136.344L203.221 157.637C204.057 158.572 204.481 159.776 204.413 161.028C204.344 162.28 203.791 163.43 202.856 164.268L199.589 167.191C198.722 167.968 197.619 168.39 196.464 168.39H196.466ZM175.96 145.647L194.05 165.851C194.627 166.494 195.419 166.877 196.281 166.923C197.141 166.969 197.974 166.679 198.617 166.102L201.884 163.179C202.527 162.602 202.91 161.81 202.956 160.948C203.002 160.085 202.712 159.254 202.135 158.611L184.045 138.407L175.96 145.647Z" fill="#A7D8F9"/>
<g opacity="0.75">
<path d="M178.359 102.177C173.556 96.8106 166.981 93.9702 160.306 93.7485C154.007 93.539 147.619 95.6632 142.552 100.201C132.119 109.546 131.23 125.573 140.574 136.008C145.756 141.794 152.993 144.644 160.192 144.442C162.713 144.371 165.227 143.928 167.643 143.102C170.781 142.038 173.758 140.337 176.381 137.987C179.005 135.638 181.022 132.868 182.43 129.87C186.613 120.939 185.351 109.989 178.357 102.177H178.359ZM173.117 128.932C172.423 129.899 171.612 130.803 170.691 131.629C169.768 132.457 168.779 133.163 167.741 133.75C161.01 137.558 152.304 136.318 146.935 130.32C140.733 123.397 141.322 112.759 148.243 106.562C155.166 100.362 165.804 100.949 172.001 107.873C177.373 113.87 177.648 122.664 173.117 128.932Z" fill="#A7D8F9"/>
</g>
<path d="M159.471 145.177C152.048 145.177 144.998 142.037 140.031 136.491C130.436 125.774 131.349 109.249 142.068 99.6531C147.103 95.1464 153.592 92.7884 160.333 93.0149C167.517 93.2537 174.111 96.3328 178.905 101.687C185.899 109.497 187.543 120.681 183.095 130.176C181.602 133.36 179.509 136.169 176.874 138.527C174.235 140.89 171.21 142.661 167.882 143.791C165.417 144.632 162.837 145.097 160.216 145.17C159.968 145.177 159.719 145.18 159.473 145.18L159.471 145.177ZM159.449 94.4595C153.383 94.4595 147.585 96.6714 143.042 100.74C138.141 105.129 135.242 111.163 134.879 117.731C134.516 124.298 136.733 130.615 141.12 135.516C145.965 140.926 152.918 143.913 160.172 143.706C162.65 143.638 165.083 143.199 167.41 142.405C170.55 141.338 173.405 139.667 175.897 137.436C178.386 135.209 180.362 132.556 181.77 129.553C185.97 120.588 184.415 110.031 177.814 102.659C173.288 97.6044 167.064 94.6982 160.282 94.4741C160.004 94.4644 159.724 94.4595 159.446 94.4595H159.449Z" fill="#A7D8F9"/>
<g opacity="0.25">
<path d="M173.117 128.927C172.423 129.894 171.612 130.798 170.691 131.624C169.768 132.452 168.779 133.158 167.741 133.745C161.01 137.553 152.304 136.313 146.935 130.316C140.733 123.392 141.322 112.754 148.243 106.557C155.166 100.357 165.804 100.945 172.001 107.868C177.373 113.865 177.648 122.659 173.117 128.927Z" fill="#A7D8F9"/>
</g>
<path d="M159.456 136.644C158.54 136.644 157.624 136.573 156.713 136.429C152.742 135.801 149.076 133.803 146.389 130.802C143.261 127.309 141.68 122.805 141.939 118.122C142.197 113.44 144.263 109.138 147.756 106.013C151.249 102.885 155.756 101.304 160.435 101.562C165.117 101.821 169.419 103.886 172.545 107.382C178.011 113.487 178.501 122.727 173.709 129.355C172.981 130.371 172.128 131.318 171.176 132.169C170.23 133.014 169.198 133.759 168.099 134.38C165.468 135.869 162.474 136.644 159.454 136.644H159.456ZM159.446 102.997C155.483 102.997 151.707 104.437 148.73 107.102C145.527 109.969 143.634 113.911 143.398 118.203C143.161 122.495 144.611 126.624 147.478 129.825C150.604 133.316 155.037 135.165 159.517 135.165C162.214 135.165 164.927 134.495 167.38 133.106C168.384 132.536 169.334 131.854 170.201 131.077C171.076 130.295 171.855 129.428 172.523 128.5C176.915 122.422 176.467 113.952 171.453 108.354C168.586 105.151 164.645 103.255 160.352 103.019C160.05 103.002 159.746 102.995 159.446 102.995V102.997Z" fill="#A7D8F9"/>
<g opacity="0.5">
<g opacity="0.5">
<path d="M15.3998 77.8034C17.3896 77.8034 19.0027 76.1903 19.0027 74.2005C19.0027 72.2107 17.3896 70.5977 15.3998 70.5977C13.41 70.5977 11.7969 72.2107 11.7969 74.2005C11.7969 76.1903 13.41 77.8034 15.3998 77.8034Z" fill="#A7D8F9"/>
</g>
<path d="M193.114 105.461C194.764 105.461 196.101 104.124 196.101 102.475C196.101 100.825 194.764 99.4883 193.114 99.4883C191.465 99.4883 190.128 100.825 190.128 102.475C190.128 104.124 191.465 105.461 193.114 105.461Z" fill="#A7D8F9"/>
<path d="M192.347 127.931C193.573 127.931 194.566 126.937 194.566 125.711C194.566 124.486 193.573 123.492 192.347 123.492C191.121 123.492 190.128 124.486 190.128 125.711C190.128 126.937 191.121 127.931 192.347 127.931Z" fill="#A7D8F9"/>
<path d="M163.977 168.286C166.003 168.286 167.646 166.644 167.646 164.618C167.646 162.592 166.003 160.949 163.977 160.949C161.951 160.949 160.309 162.592 160.309 164.618C160.309 166.644 161.951 168.286 163.977 168.286Z" fill="#A7D8F9"/>
<path d="M38.1083 13.5637C39.416 13.5637 40.4761 12.5036 40.4761 11.1959C40.4761 9.88823 39.416 8.82812 38.1083 8.82812C36.8006 8.82812 35.7405 9.88823 35.7405 11.1959C35.7405 12.5036 36.8006 13.5637 38.1083 13.5637Z" fill="#A7D8F9"/>
</g>
</svg>
