<svg width="26" height="25" viewBox="0 0 26 25" fill="none" xmlns="http://www.w3.org/2000/svg">
<path d="M13.0114 2.36768C7.41761 2.36768 2.87769 6.9076 2.87769 12.5014C2.87769 18.0953 7.41761 22.6352 13.0114 22.6352C18.6053 22.6352 23.1452 18.0953 23.1452 12.5014C23.1452 6.9076 18.6053 2.36768 13.0114 2.36768ZM13.0114 20.6084C8.53232 20.6084 4.90444 16.9806 4.90444 12.5014C4.90444 8.02231 8.53232 4.39443 13.0114 4.39443C17.4906 4.39443 21.1184 8.02231 21.1184 12.5014C21.1184 16.9806 17.4906 20.6084 13.0114 20.6084Z" fill="white"/>
<path d="M7.94438 14.0213C8.78389 14.0213 9.46444 13.3408 9.46444 12.5013C9.46444 11.6618 8.78389 10.9812 7.94438 10.9812C7.10487 10.9812 6.42432 11.6618 6.42432 12.5013C6.42432 13.3408 7.10487 14.0213 7.94438 14.0213Z" fill="white"/>
<path d="M13.0113 14.0213C13.8508 14.0213 14.5313 13.3408 14.5313 12.5013C14.5313 11.6618 13.8508 10.9812 13.0113 10.9812C12.1718 10.9812 11.4912 11.6618 11.4912 12.5013C11.4912 13.3408 12.1718 14.0213 13.0113 14.0213Z" fill="white"/>
<path d="M18.0782 14.0213C18.9177 14.0213 19.5982 13.3408 19.5982 12.5013C19.5982 11.6618 18.9177 10.9812 18.0782 10.9812C17.2387 10.9812 16.5581 11.6618 16.5581 12.5013C16.5581 13.3408 17.2387 14.0213 18.0782 14.0213Z" fill="white"/>
</svg>
