<svg width="22" height="20" viewBox="0 0 22 20" fill="none" xmlns="http://www.w3.org/2000/svg">
<path d="M1 1.61767L2.28 0.296875L19 17.6857L17.73 19.0169L14.65 15.8137C13.5 16.2089 12.28 16.4169 11 16.4169C6 16.4169 1.73 13.1825 0 8.61687C0.69 6.78647 1.79 5.17447 3.19 3.89527L1 1.61767ZM11 5.49687C11.7956 5.49687 12.5587 5.82559 13.1213 6.4107C13.6839 6.99581 14 7.7894 14 8.61687C14.0005 8.97106 13.943 9.32276 13.83 9.65687L10 5.67368C10.3213 5.55614 10.6594 5.49635 11 5.49687ZM11 0.816875C16 0.816875 20.27 4.05128 22 8.61687C21.1834 10.7727 19.7966 12.6441 18 14.0145L16.58 12.5273C17.9629 11.5325 19.0783 10.1863 19.82 8.61687C19.0117 6.90073 17.7565 5.45489 16.1974 4.44372C14.6382 3.43255 12.8375 2.89663 11 2.89687C9.91 2.89687 8.84 3.08407 7.84 3.41687L6.3 1.82567C7.74 1.18087 9.33 0.816875 11 0.816875ZM2.18 8.61687C2.98835 10.333 4.24345 11.7789 5.80264 12.79C7.36182 13.8012 9.16251 14.3371 11 14.3369C11.69 14.3369 12.37 14.2641 13 14.1185L10.72 11.7369C10.0242 11.6593 9.37482 11.3363 8.87997 10.8217C8.38512 10.3071 8.07458 9.63175 8 8.90807L4.6 5.36167C3.61 6.24567 2.78 7.34807 2.18 8.61687Z" fill="#5E5F60"/>
</svg>
