<svg width="22" height="18" viewBox="0 0 22 18" fill="none" xmlns="http://www.w3.org/2000/svg">
<path d="M14.0877 8.79578C14.0877 9.62326 13.7589 10.4168 13.1738 11.002C12.5887 11.5871 11.7951 11.9158 10.9677 11.9158C10.1402 11.9158 9.3466 11.5871 8.76148 11.002C8.17637 10.4168 7.84766 9.62326 7.84766 8.79578C7.84766 7.96831 8.17637 7.17472 8.76148 6.58961C9.3466 6.00449 10.1402 5.67578 10.9677 5.67578C11.7951 5.67578 12.5887 6.00449 13.1738 6.58961C13.7589 7.17472 14.0877 7.96831 14.0877 8.79578Z" stroke="#827F7F" stroke-width="2.08" stroke-linecap="round" stroke-linejoin="round"/>
<path d="M1.04395 8.79562C2.36891 4.57634 6.31154 1.51562 10.9676 1.51562C15.6247 1.51562 19.5663 4.57634 20.8913 8.79562C19.5663 13.0149 15.6247 16.0756 10.9676 16.0756C6.3105 16.0756 2.36891 13.0149 1.04395 8.79562Z" stroke="#827F7F" stroke-width="2.08" stroke-linecap="round" stroke-linejoin="round"/>
</svg>
