<svg width="15" height="22" viewBox="0 0 15 22" fill="none" xmlns="http://www.w3.org/2000/svg">
<path d="M7.31136 1.05273C7.51293 1.05273 7.70624 1.13281 7.84878 1.27534C7.99131 1.41788 8.07139 1.61119 8.07139 1.81277V3.07949H12.3782C12.5798 3.07949 12.7731 3.15956 12.9157 3.30209C13.0582 3.44463 13.1383 3.63794 13.1383 3.83952C13.1383 4.04109 13.0582 4.23441 12.9157 4.37694C12.7731 4.51947 12.5798 4.59955 12.3782 4.59955H8.07139V10.1731H9.84479C10.987 10.1731 12.0825 10.6269 12.8902 11.4346C13.6979 12.2423 14.1516 13.3377 14.1516 14.48C14.1516 15.6222 13.6979 16.7177 12.8902 17.5254C12.0825 18.3331 10.987 18.7868 9.84479 18.7868H8.07139V20.0535C8.07139 20.2551 7.99131 20.4484 7.84878 20.591C7.70624 20.7335 7.51293 20.8136 7.31136 20.8136C7.10978 20.8136 6.91647 20.7335 6.77393 20.591C6.6314 20.4484 6.55132 20.2551 6.55132 20.0535V18.7868H1.2311C1.02953 18.7868 0.836211 18.7067 0.693677 18.5642C0.551144 18.4217 0.471069 18.2283 0.471069 18.0268C0.471069 17.8252 0.551144 17.6319 0.693677 17.4894C0.836211 17.3468 1.02953 17.2667 1.2311 17.2667H6.55132V11.6932H4.77792C3.63567 11.6932 2.54021 11.2394 1.73252 10.4317C0.924825 9.62404 0.471069 8.52858 0.471069 7.38633C0.471069 6.24409 0.924825 5.14862 1.73252 4.34093C2.54021 3.53324 3.63567 3.07949 4.77792 3.07949H6.55132V1.81277C6.55132 1.61119 6.6314 1.41788 6.77393 1.27534C6.91647 1.13281 7.10978 1.05273 7.31136 1.05273ZM6.55132 4.59955H4.77792C4.03882 4.59955 3.32999 4.89316 2.80736 5.41578C2.28474 5.9384 1.99113 6.64723 1.99113 7.38633C1.99113 8.12543 2.28474 8.83426 2.80736 9.35689C3.32999 9.87951 4.03882 10.1731 4.77792 10.1731H6.55132V4.59955ZM8.07139 11.6932V17.2667H9.84479C10.5839 17.2667 11.2927 16.9731 11.8153 16.4505C12.338 15.9279 12.6316 15.2191 12.6316 14.48C12.6316 13.7409 12.338 13.032 11.8153 12.5094C11.2927 11.9868 10.5839 11.6932 9.84479 11.6932H8.07139Z" fill="white" stroke="white" stroke-width="0.5"/>
</svg>
