<svg width="60" height="60" viewBox="0 0 60 60" fill="none" xmlns="http://www.w3.org/2000/svg">
<path d="M48.8846 23.7193C49.1846 25.126 49.1512 26.8351 48.7846 28.8468C47.3296 36.2918 42.5937 40.0135 34.5771 40.0118H33.4721C33.0639 40.0103 32.6691 40.1578 32.3621 40.4268C32.0444 40.702 31.833 41.0796 31.7646 41.4943L31.6621 41.9668L30.2796 50.6643L30.2271 51.0418C30.157 51.4599 29.9376 51.8383 29.6096 52.1068C29.3006 52.3775 28.9029 52.5252 28.4921 52.5218H22.1846C22.0268 52.5291 21.8696 52.4989 21.7258 52.4337C21.5819 52.3685 21.4556 52.2702 21.3571 52.1468C21.2581 52.0197 21.1869 51.8733 21.1482 51.717C21.1094 51.5606 21.1039 51.3979 21.1321 51.2393C21.2821 50.3043 21.5046 48.8968 21.7996 47.0168C22.0912 45.1401 22.3137 43.7326 22.4671 42.7943C22.6971 41.3868 22.8421 40.4493 23.1471 38.5818C23.4504 36.7118 23.6762 35.3076 23.8246 34.3693C23.9079 33.751 24.2687 33.4418 24.9071 33.4418H28.1971C30.4271 33.4751 32.4062 33.2993 34.1346 32.9143C37.0646 32.261 39.4696 31.0535 41.3496 29.2918C43.0596 27.6985 44.3596 25.6376 45.2496 23.1093C45.6512 21.9326 45.9446 20.8176 46.1296 19.7643C46.1446 19.661 46.1654 19.5993 46.1921 19.5793C46.2154 19.5526 46.2446 19.5435 46.2796 19.5518C46.3337 19.5763 46.3856 19.6056 46.4346 19.6393C47.7446 20.6343 48.5696 21.9918 48.8846 23.7193Z" fill="#2790C3"/>
<path d="M44.5649 16.631C44.5649 18.4227 44.1774 20.401 43.4024 22.566C42.0624 26.471 39.5316 29.111 35.8099 30.486C33.9166 31.1544 31.8041 31.5085 29.4724 31.5485C29.4724 31.5619 28.7191 31.5677 27.2124 31.566L24.9549 31.5485C23.2749 31.5469 22.2857 32.3502 21.9874 33.9585C21.9541 34.0919 21.2416 38.5327 19.8499 47.281C19.8299 47.4477 19.7291 47.5327 19.5474 47.536H12.1349C11.9601 47.5402 11.7866 47.5054 11.627 47.434C11.4675 47.3626 11.3258 47.2566 11.2124 47.1235C11.0945 46.9929 11.0075 46.8375 10.9578 46.6687C10.908 46.5 10.8968 46.3222 10.9249 46.1485L16.7549 9.16102C16.8287 8.68739 17.0743 8.25753 17.4449 7.95352C17.8072 7.64607 18.2672 7.47768 18.7424 7.47852H33.7774C34.3474 7.47852 35.1632 7.58769 36.2249 7.80602C37.2949 8.01602 38.2274 8.29102 39.0324 8.60852C40.8274 9.29519 42.1982 10.326 43.1449 11.701C44.0916 13.076 44.5649 14.7194 44.5649 16.631Z" fill="#27346A"/>
</svg>
