<svg width="57" height="71" viewBox="0 0 57 71" fill="none" xmlns="http://www.w3.org/2000/svg">
<path d="M32.3662 24.6681H51.6608L32.3662 5.37349V24.6681ZM7.80942 0.111328H35.8743L56.9229 21.16V63.2572C56.9229 65.1181 56.1837 66.9027 54.8679 68.2185C53.5521 69.5342 51.7675 70.2735 49.9067 70.2735H7.80942C5.94861 70.2735 4.16401 69.5342 2.84821 68.2185C1.53242 66.9027 0.793213 65.1181 0.793213 63.2572V7.12754C0.793213 5.26673 1.53242 3.48212 2.84821 2.16633C4.16401 0.850534 5.94861 0.111328 7.80942 0.111328ZM25.1044 36.736C26.5427 39.8932 28.3669 42.4893 30.4718 44.2784L31.9101 45.401C28.8581 45.9623 24.6483 46.9445 20.193 48.6635L19.8071 48.8038L21.5612 45.1554C23.1398 42.1034 24.2975 39.332 25.1044 36.736ZM47.8369 50.1018C48.4684 49.4704 48.7841 48.6635 48.8192 47.7865C48.9244 47.0849 48.749 46.4183 48.3982 45.857C47.3809 44.2082 44.7498 43.4364 40.3997 43.4364L35.8743 43.682L32.8222 41.6473C30.6121 39.8231 28.6125 36.6307 27.2092 32.6666L27.3496 32.1754C28.5072 27.5096 29.5948 21.8616 27.2794 19.5462C26.9962 19.2712 26.6612 19.0552 26.2939 18.9107C25.9265 18.7661 25.5341 18.696 25.1395 18.7043H24.2975C22.9995 18.7043 21.8418 20.0725 21.5261 21.4055C20.2281 26.0713 20.9999 28.6322 22.2979 32.877V32.9121C21.4209 35.9993 20.2983 39.5775 18.5091 43.1909L15.1414 49.5055L12.0192 51.2244C7.80942 53.8555 5.8098 56.8023 5.42391 58.6616C5.28359 59.3282 5.35375 59.9245 5.59932 60.556L5.70456 60.7314L7.38845 61.8189L8.93202 62.2048C11.7736 62.2048 15.001 58.8721 19.3511 51.4349L19.9826 51.1894C23.5959 50.0317 28.0863 49.2248 34.1202 48.5583C37.7336 50.3474 41.9784 51.1543 44.6445 51.1543C46.1881 51.1543 47.2405 50.7684 47.8369 50.1018ZM46.3986 47.6111L46.7143 47.997C46.6792 48.3478 46.574 48.3829 46.3986 48.453H46.2583L45.5917 48.5232C43.978 48.5232 41.4872 47.8567 38.9263 46.7341C39.2421 46.3832 39.3824 46.3832 39.7332 46.3832C44.6445 46.3832 46.0478 47.2603 46.3986 47.6111ZM14.2293 52.7329C11.949 56.9076 9.87921 59.2229 8.30056 59.7491C8.47596 58.4161 10.0546 56.1007 12.5454 53.8204L14.2293 52.7329ZM24.8237 28.4919C24.0169 25.3346 23.9818 22.7737 24.5782 21.3003L24.8237 20.8793L25.35 21.0547C25.9463 21.8967 26.0165 23.0193 25.6657 24.9136L25.5604 25.4749L24.9991 28.3516L24.8237 28.4919Z" fill="#EF5350"/>
</svg>
