<svg width="16" height="16" viewBox="0 0 16 16" fill="none" xmlns="http://www.w3.org/2000/svg">
<path d="M7.73016 2.15824C8.32942 0.893069 10.0014 0.603405 10.9912 1.59324L14.4068 5.00878C15.3966 5.99925 15.1069 7.67058 13.8418 8.26984L10.4841 9.86018C10.2311 9.98018 10.0339 10.193 9.93348 10.4545L8.94364 13.0272C8.87839 13.1966 8.77186 13.347 8.63372 13.4648C8.49559 13.5826 8.33022 13.6641 8.15262 13.7018C7.97503 13.7395 7.79084 13.7322 7.61676 13.6806C7.44269 13.6291 7.28425 13.5349 7.15582 13.4065L5.20479 11.4555L1.66031 15H1V14.3397L4.54449 10.7952L2.59346 8.84418C2.46514 8.71575 2.37092 8.55731 2.31937 8.38324C2.26781 8.20916 2.26055 8.02497 2.29823 7.84738C2.33591 7.66978 2.41736 7.50441 2.53516 7.36627C2.65297 7.22814 2.80341 7.12161 2.97283 7.05636L5.54554 6.0659C5.80717 5.96623 6.01959 5.76876 6.13919 5.51585L7.73016 2.15824ZM10.3303 2.25418C10.2068 2.13064 10.0554 2.0386 9.88885 1.9858C9.72233 1.933 9.54556 1.921 9.37343 1.95079C9.2013 1.98059 9.03885 2.05132 8.89977 2.15702C8.76068 2.26272 8.64904 2.4003 8.57424 2.55817L6.98389 5.91577C6.76133 6.38566 6.36654 6.75191 5.8813 6.93863L3.30859 7.92785C3.28434 7.9371 3.26278 7.95227 3.24589 7.97197C3.22899 7.99167 3.21729 8.01529 3.21184 8.04067C3.2064 8.06604 3.20738 8.09238 3.2147 8.11728C3.22202 8.14218 3.23545 8.16486 3.25377 8.18325L7.81613 12.7456C7.83448 12.7639 7.85711 12.7774 7.88198 12.7848C7.90684 12.7921 7.93316 12.7932 7.95853 12.7878C7.9839 12.7824 8.00752 12.7708 8.02726 12.7539C8.04699 12.7371 8.06221 12.7156 8.07153 12.6914L9.06137 10.1187C9.24809 9.63346 9.61434 9.23866 10.0842 9.01611L13.4418 7.42576C13.5998 7.35099 13.7375 7.23933 13.8433 7.10019C13.9491 6.96106 14.0198 6.79853 14.0496 6.62631C14.0794 6.45408 14.0674 6.27722 14.0145 6.11063C13.9616 5.94404 13.8695 5.7926 13.7458 5.66909L10.3303 2.25418Z" fill="#44546F" stroke="#44546F" stroke-width="0.6"/>
</svg>
