<svg width="24" height="25" viewBox="0 0 24 25" fill="none" xmlns="http://www.w3.org/2000/svg">
<path fill-rule="evenodd" clip-rule="evenodd" d="M18.2031 12.5266C20.2598 13.8397 22.1094 14.4618 23.7148 14.3161C23.9922 19.996 21.9121 23.3507 18.2246 24.7505C14.6621 23.4393 12.5605 20.2224 12.7109 14.2295C14.689 14.378 16.6499 13.77 18.2031 12.5266ZM13.2852 2.94668L17.332 6.76603H13.2852V2.94668ZM5.1543 11.5835H13.332C13.8672 11.5835 13.9375 12.3218 13.5898 12.5679C13.4277 12.5974 13.2676 12.623 13.1055 12.6447H5.16016C4.53125 12.6447 4.53125 11.5953 5.16016 11.5855L5.1543 11.5835ZM5.1543 14.8792H10.8555C10.8711 15.2415 10.8965 15.5939 10.9277 15.9384H5.16016C4.52734 15.9384 4.53516 14.8792 5.16016 14.8792H5.1543ZM5.1543 18.1749H11.25C11.3242 18.5391 11.4082 18.8935 11.502 19.2341H5.16016C4.52734 19.2341 4.53516 18.1749 5.16016 18.1749H5.1543ZM5.1543 8.28786H9.85937C10.4922 8.28786 10.4844 9.34508 9.85937 9.34508H5.16016C4.52734 9.34508 4.5332 8.28786 5.16016 8.28786H5.1543ZM5.1543 5.22254H7.74219C8.36523 5.22254 8.37305 6.27975 7.74219 6.27975H5.16016C4.52734 6.27975 4.53516 5.22254 5.16016 5.22254H5.1543ZM19.584 7.31531C19.5843 7.16734 19.5366 7.02332 19.4481 6.90529C19.3595 6.78725 19.2351 6.70169 19.0937 6.66169L13.1328 0.808625C13.0699 0.730386 12.9904 0.667326 12.9002 0.624063C12.8099 0.580801 12.7112 0.558432 12.6113 0.558595H2.21094C1.88978 0.558595 1.58177 0.687195 1.35468 0.916105C1.12758 1.14502 1 1.45548 1 1.77921L1 22.6774C1.00052 23.0009 1.12826 23.3111 1.35525 23.5399C1.58223 23.7687 1.88994 23.8975 2.21094 23.898H13.8906C13.5231 23.4716 13.1912 23.0153 12.8984 22.5337H2.35156V1.91506H11.9375V7.44918C11.9372 7.53906 11.9546 7.62811 11.9885 7.71122C12.0225 7.79433 12.0724 7.86987 12.1353 7.93352C12.1983 7.99716 12.2731 8.04766 12.3554 8.08211C12.4378 8.11657 12.5261 8.1343 12.6152 8.1343H18.2305V10.4673C18.6888 10.7586 19.14 11.0244 19.584 11.2646V7.31531ZM18.2461 14.4697C19.6504 15.3655 20.918 15.7907 22.0059 15.6903C22.2012 19.5648 20.7754 21.8525 18.2617 22.8053C18.2458 22.8003 18.2301 22.7944 18.2148 22.7876V14.4953L18.2461 14.4697ZM18.2051 13.2274C20.0254 14.391 21.6719 14.9422 23.0879 14.8123C23.334 19.8404 21.4922 22.8093 18.2266 24.0476C15.0625 22.888 13.2051 20.0491 13.3437 14.7335C15.0947 14.865 16.8305 14.3265 18.2051 13.2255V13.2274Z" fill="#363333" stroke="#363333" stroke-width="0.3"/>
</svg>
