<svg width="18" height="18" viewBox="0 0 18 18" fill="none" xmlns="http://www.w3.org/2000/svg">
<path d="M8.99996 0.64856C9.22097 0.64856 9.43293 0.736357 9.58921 0.892637C9.74549 1.04892 9.83329 1.26088 9.83329 1.48189V3.98189C9.83329 4.20291 9.74549 4.41487 9.58921 4.57115C9.43293 4.72743 9.22097 4.81523 8.99996 4.81523C8.77894 4.81523 8.56698 4.72743 8.4107 4.57115C8.25442 4.41487 8.16663 4.20291 8.16663 3.98189V1.48189C8.16663 1.26088 8.25442 1.04892 8.4107 0.892637C8.56698 0.736357 8.77894 0.64856 8.99996 0.64856ZM8.99996 13.1486C9.22097 13.1486 9.43293 13.2364 9.58921 13.3926C9.74549 13.5489 9.83329 13.7609 9.83329 13.9819V16.4819C9.83329 16.7029 9.74549 16.9149 9.58921 17.0711C9.43293 17.2274 9.22097 17.3152 8.99996 17.3152C8.77894 17.3152 8.56698 17.2274 8.4107 17.0711C8.25442 16.9149 8.16663 16.7029 8.16663 16.4819V13.9819C8.16663 13.7609 8.25442 13.5489 8.4107 13.3926C8.56698 13.2364 8.77894 13.1486 8.99996 13.1486ZM17.3333 8.98189C17.3333 9.20291 17.2455 9.41487 17.0892 9.57115C16.9329 9.72743 16.721 9.81523 16.5 9.81523H14C13.7789 9.81523 13.567 9.72743 13.4107 9.57115C13.2544 9.41487 13.1666 9.20291 13.1666 8.98189C13.1666 8.76088 13.2544 8.54892 13.4107 8.39264C13.567 8.23636 13.7789 8.14856 14 8.14856H16.5C16.721 8.14856 16.9329 8.23636 17.0892 8.39264C17.2455 8.54892 17.3333 8.76088 17.3333 8.98189ZM4.83329 8.98189C4.83329 9.20291 4.74549 9.41487 4.58921 9.57115C4.43293 9.72743 4.22097 9.81523 3.99996 9.81523H1.49996C1.27895 9.81523 1.06698 9.72743 0.910704 9.57115C0.754423 9.41487 0.666626 9.20291 0.666626 8.98189C0.666626 8.76088 0.754423 8.54892 0.910704 8.39264C1.06698 8.23636 1.27895 8.14856 1.49996 8.14856H3.99996C4.22097 8.14856 4.43293 8.23636 4.58921 8.39264C4.74549 8.54892 4.83329 8.76088 4.83329 8.98189ZM14.8925 14.8744C14.7362 15.0306 14.5243 15.1184 14.3033 15.1184C14.0823 15.1184 13.8704 15.0306 13.7141 14.8744L11.9466 13.1069C11.7948 12.9497 11.7108 12.7392 11.7127 12.5207C11.7146 12.3022 11.8023 12.0932 11.9568 11.9387C12.1113 11.7842 12.3203 11.6966 12.5388 11.6947C12.7573 11.6928 12.9678 11.7768 13.125 11.9286L14.8925 13.6952C14.9699 13.7726 15.0314 13.8645 15.0733 13.9657C15.1153 14.0669 15.1369 14.1753 15.1369 14.2848C15.1369 14.3943 15.1153 14.5028 15.0733 14.6039C15.0314 14.7051 14.9699 14.797 14.8925 14.8744ZM6.05329 6.03523C5.89702 6.19145 5.6851 6.27921 5.46413 6.27921C5.24316 6.27921 5.03123 6.19145 4.87496 6.03523L3.10829 4.26856C2.95193 4.1123 2.86404 3.90033 2.86396 3.67927C2.86388 3.45821 2.95162 3.24618 3.10788 3.08981C3.26413 2.93344 3.47611 2.84555 3.69716 2.84547C3.91822 2.8454 4.13026 2.93314 4.28663 3.08939L6.05329 4.85689C6.20952 5.01317 6.29728 5.22509 6.29728 5.44606C6.29728 5.66703 6.20952 5.87895 6.05329 6.03523ZM3.10829 14.8744C2.95207 14.7181 2.8643 14.5062 2.8643 14.2852C2.8643 14.0643 2.95207 13.8523 3.10829 13.6961L4.87579 11.9286C5.03296 11.7768 5.24346 11.6928 5.46196 11.6947C5.68046 11.6966 5.88947 11.7842 6.04397 11.9387C6.19848 12.0932 6.28612 12.3022 6.28802 12.5207C6.28992 12.7392 6.20592 12.9497 6.05413 13.1069L4.28746 14.8744C4.21006 14.9519 4.11816 15.0133 4.01699 15.0553C3.91583 15.0972 3.80739 15.1188 3.69788 15.1188C3.58836 15.1188 3.47992 15.0972 3.37876 15.0553C3.27759 15.0133 3.18569 14.9519 3.10829 14.8744ZM11.9466 6.03523C11.7904 5.87895 11.7026 5.66703 11.7026 5.44606C11.7026 5.22509 11.7904 5.01317 11.9466 4.85689L13.7133 3.08939C13.7907 3.01197 13.8825 2.95054 13.9836 2.90862C14.0847 2.86669 14.1931 2.8451 14.3026 2.84506C14.412 2.84502 14.5204 2.86654 14.6216 2.90839C14.7227 2.95024 14.8146 3.01161 14.892 3.08898C14.9695 3.16635 15.0309 3.25821 15.0728 3.35932C15.1147 3.46043 15.1363 3.56881 15.1364 3.67826C15.1364 3.78772 15.1149 3.89612 15.073 3.99725C15.0312 4.09839 14.9698 4.1903 14.8925 4.26773L13.125 6.03523C12.9687 6.19145 12.7568 6.27921 12.5358 6.27921C12.3148 6.27921 12.1029 6.19145 11.9466 6.03523Z" fill="white"/>
</svg>
