<svg width="21" height="20" viewBox="0 0 21 20" fill="none" xmlns="http://www.w3.org/2000/svg">
<circle cx="10.5" cy="10" r="10" fill="#006EC2"/>
<circle cx="10.5" cy="10" r="8" fill="#006EC2"/>
<path d="M15.9474 4.99307C16.2273 4.68782 16.7016 4.66732 17.0069 4.94717C17.3122 5.22707 17.3327 5.70143 17.0528 6.00674L8.80285 15.0067C8.66469 15.1574 8.47108 15.2454 8.26671 15.2499C8.08769 15.2538 7.914 15.1931 7.77648 15.081L7.71984 15.0302L3.96984 11.2802L3.91808 11.2235C3.67778 10.929 3.69524 10.4942 3.96984 10.2196C4.24444 9.94503 4.67916 9.92758 4.97374 10.1679L5.03038 10.2196L8.2257 13.4149L15.9474 4.99307Z" fill="#FAFAFA"/>
</svg>
