<svg width="25" height="23" viewBox="0 0 25 23" fill="none" xmlns="http://www.w3.org/2000/svg">
<path d="M10.8321 2.4983C10.9904 2.22664 11.2172 2.00123 11.4898 1.84457C11.7624 1.68791 12.0713 1.60547 12.3858 1.60547C12.7002 1.60547 13.0091 1.68791 13.2817 1.84457C13.5543 2.00123 13.7811 2.22664 13.9394 2.4983L16.1189 6.23859C16.2443 6.45447 16.4134 6.64185 16.6152 6.7888C16.8171 6.93576 17.0473 7.03906 17.2913 7.09215L21.5231 8.00804C21.8303 8.07482 22.1146 8.22096 22.3476 8.43188C22.5807 8.64279 22.7544 8.91112 22.8514 9.2101C22.9485 9.50908 22.9654 9.82828 22.9006 10.1359C22.8359 10.4435 22.6916 10.7287 22.4822 10.9631L19.599 14.1915C19.4327 14.3776 19.307 14.5963 19.2298 14.8336C19.1526 15.071 19.1256 15.3218 19.1507 15.5701L19.5858 19.8775C19.6175 20.1904 19.5667 20.5061 19.4382 20.7931C19.3098 21.0802 19.1083 21.3286 18.8539 21.5135C18.5996 21.6983 18.3011 21.8133 17.9884 21.8468C17.6757 21.8803 17.3597 21.8312 17.0719 21.7045L13.1111 19.959C12.8825 19.8583 12.6355 19.8062 12.3858 19.8062C12.136 19.8062 11.889 19.8583 11.6605 19.959L7.69961 21.7045C7.41181 21.8312 7.0958 21.8803 6.78311 21.8468C6.47042 21.8133 6.17199 21.6983 5.91759 21.5135C5.6632 21.3286 5.46173 21.0802 5.33331 20.7931C5.20489 20.5061 5.15399 20.1904 5.18571 19.8775L5.62087 15.5701C5.64607 15.3219 5.61932 15.0711 5.54234 14.8338C5.46536 14.5964 5.33982 14.3777 5.17372 14.1915L2.28938 10.9631C2.07998 10.7287 1.93569 10.4435 1.87089 10.1359C1.8061 9.82828 1.82306 9.50908 1.9201 9.2101C2.01713 8.91112 2.19084 8.64279 2.42391 8.43188C2.65698 8.22096 2.94127 8.07482 3.24843 8.00804L7.48023 7.09215C7.72432 7.03936 7.95474 6.9363 8.1568 6.78955C8.35887 6.6428 8.52815 6.45557 8.65387 6.23979L10.8321 2.4983Z" stroke="#363333" stroke-width="2.3" stroke-linecap="round" stroke-linejoin="round"/>
</svg>
