<svg width="20" height="20" viewBox="0 0 20 20" fill="none" xmlns="http://www.w3.org/2000/svg">
<path d="M19.7152 6.09126V16.7317C19.7152 17.4804 19.4178 18.1984 18.8884 18.7278C18.359 19.2573 17.6409 19.5547 16.8922 19.5547H3.42881C2.68011 19.5547 1.96208 19.2573 1.43266 18.7278C0.903255 18.1984 0.605835 17.4804 0.605835 16.7317V6.09126H19.7152ZM5.59251 13.041C5.30455 13.041 5.02838 13.1554 4.82476 13.359C4.62114 13.5626 4.50675 13.8388 4.50675 14.1267C4.50675 14.4147 4.62114 14.6909 4.82476 14.8945C5.02838 15.0981 5.30455 15.2125 5.59251 15.2125C5.88047 15.2125 6.15664 15.0981 6.36026 14.8945C6.56388 14.6909 6.67827 14.4147 6.67827 14.1267C6.67827 13.8388 6.56388 13.5626 6.36026 13.359C6.15664 13.1554 5.88047 13.041 5.59251 13.041ZM10.157 13.041C9.86908 13.041 9.59292 13.1554 9.3893 13.359C9.18568 13.5626 9.07128 13.8388 9.07128 14.1267C9.07128 14.4147 9.18568 14.6909 9.3893 14.8945C9.59292 15.0981 9.86908 15.2125 10.157 15.2125C10.445 15.2125 10.7212 15.0981 10.9248 14.8945C11.1284 14.6909 11.2428 14.4147 11.2428 14.1267C11.2428 13.8388 11.1284 13.5626 10.9248 13.359C10.7212 13.1554 10.445 13.041 10.157 13.041ZM5.59251 8.69795C5.30455 8.69795 5.02838 8.81235 4.82476 9.01597C4.62114 9.21958 4.50675 9.49575 4.50675 9.78371C4.50675 10.0717 4.62114 10.3478 4.82476 10.5515C5.02838 10.7551 5.30455 10.8695 5.59251 10.8695C5.88047 10.8695 6.15664 10.7551 6.36026 10.5515C6.56388 10.3478 6.67827 10.0717 6.67827 9.78371C6.67827 9.49575 6.56388 9.21958 6.36026 9.01597C6.15664 8.81235 5.88047 8.69795 5.59251 8.69795ZM10.157 8.69795C9.86908 8.69795 9.59292 8.81235 9.3893 9.01597C9.18568 9.21958 9.07128 9.49575 9.07128 9.78371C9.07128 10.0717 9.18568 10.3478 9.3893 10.5515C9.59292 10.7551 9.86908 10.8695 10.157 10.8695C10.445 10.8695 10.7212 10.7551 10.9248 10.5515C11.1284 10.3478 11.2428 10.0717 11.2428 9.78371C11.2428 9.49575 11.1284 9.21958 10.9248 9.01597C10.7212 8.81235 10.445 8.69795 10.157 8.69795ZM14.7207 8.69795C14.4327 8.69795 14.1566 8.81235 13.953 9.01597C13.7493 9.21958 13.6349 9.49575 13.6349 9.78371C13.6349 10.0717 13.7493 10.3478 13.953 10.5515C14.1566 10.7551 14.4327 10.8695 14.7207 10.8695C15.0087 10.8695 15.2848 10.7551 15.4885 10.5515C15.6921 10.3478 15.8065 10.0717 15.8065 9.78371C15.8065 9.49575 15.6921 9.21958 15.4885 9.01597C15.2848 8.81235 15.0087 8.69795 14.7207 8.69795ZM16.8922 0.445312C17.6409 0.445312 18.359 0.742732 18.8884 1.27214C19.4178 1.80155 19.7152 2.51959 19.7152 3.26829V4.78835H0.605835V3.26829C0.605835 2.51959 0.903255 1.80155 1.43266 1.27214C1.96208 0.742732 2.68011 0.445313 3.42881 0.445312H16.8922Z" fill="#F87168"/>
</svg>
