<svg width="20" height="21" viewBox="0 0 20 21" fill="none" xmlns="http://www.w3.org/2000/svg">
<path d="M0.890625 6.44774V11.5146C0.890625 15.3361 0.891638 17.2463 2.0783 18.4339C3.26496 19.6216 5.17619 19.6216 8.99763 19.6216H11.0244C14.8458 19.6216 16.756 19.6206 17.9437 18.4339C19.1314 17.2473 19.1314 15.3361 19.1314 11.5146V6.44774M0.890625 6.44774H19.1314M0.890625 6.44774L1.76719 4.49902C2.44818 2.98706 2.78766 2.23209 3.47676 1.80648C4.16586 1.38086 5.05053 1.38086 6.81887 1.38086H13.2031C14.9715 1.38086 15.8551 1.38086 16.5453 1.80648C17.2343 2.23209 17.5738 2.98706 18.2548 4.49902L19.1314 6.44774M10.011 6.44774V1.38086" stroke="#533F04" stroke-width="1.52006" stroke-linecap="round" stroke-linejoin="round"/>
<path d="M6.46421 12.0214H12.0378C12.5753 12.0214 13.0908 12.2349 13.4709 12.615C13.851 12.9951 14.0645 13.5106 14.0645 14.0481C14.0645 14.5857 13.851 15.1012 13.4709 15.4813C13.0908 15.8614 12.5753 16.0749 12.0378 16.0749H11.0244M7.98427 9.99463L5.95752 12.0214L7.98427 14.0481" stroke="#533F04" stroke-width="1.52006" stroke-linecap="round" stroke-linejoin="round"/>
</svg>
