<svg width="19" height="20" viewBox="0 0 19 20" fill="none" xmlns="http://www.w3.org/2000/svg">
<path fill-rule="evenodd" clip-rule="evenodd" d="M4.24434 6.72097C4.92076 6.48191 5.49089 6.01141 5.85395 5.39264C6.217 4.77386 6.34962 4.04665 6.22834 3.33955C6.10706 2.63246 5.73971 1.991 5.19121 1.52857C4.64271 1.06613 3.94839 0.8125 3.23097 0.8125C2.51354 0.8125 1.81922 1.06613 1.27072 1.52857C0.722222 1.991 0.354868 2.63246 0.233592 3.33955C0.112316 4.04665 0.244927 4.77386 0.607985 5.39264C0.971043 6.01141 1.54117 6.48191 2.21759 6.72097V13.1458C1.54117 13.3848 0.971043 13.8553 0.607985 14.4741C0.244927 15.0929 0.112316 15.8201 0.233592 16.5272C0.354868 17.2343 0.722222 17.8758 1.27072 18.3382C1.81922 18.8006 2.51354 19.0543 3.23097 19.0543C3.94839 19.0543 4.64271 18.8006 5.19121 18.3382C5.73971 17.8758 6.10706 17.2343 6.22834 16.5272C6.34962 15.8201 6.217 15.0929 5.85395 14.4741C5.49089 13.8553 4.92076 13.3848 4.24434 13.1458V6.72097ZM3.23097 2.83975C2.9622 2.83975 2.70445 2.94651 2.5144 3.13656C2.32436 3.3266 2.21759 3.58436 2.21759 3.85312C2.21759 4.12189 2.32436 4.37964 2.5144 4.56969C2.70445 4.75973 2.9622 4.8665 3.23097 4.8665C3.49973 4.8665 3.75749 4.75973 3.94753 4.56969C4.13758 4.37964 4.24434 4.12189 4.24434 3.85312C4.24434 3.58436 4.13758 3.3266 3.94753 3.13656C3.75749 2.94651 3.49973 2.83975 3.23097 2.83975ZM3.23097 15.0003C2.9622 15.0003 2.70445 15.107 2.5144 15.2971C2.32436 15.4871 2.21759 15.7449 2.21759 16.0136C2.21759 16.2824 2.32436 16.5402 2.5144 16.7302C2.70445 16.9202 2.9622 17.027 3.23097 17.027C3.49973 17.027 3.75749 16.9202 3.94753 16.7302C4.13758 16.5402 4.24434 16.2824 4.24434 16.0136C4.24434 15.7449 4.13758 15.4871 3.94753 15.2971C3.75749 15.107 3.49973 15.0003 3.23097 15.0003ZM14.3781 13.1458C13.7017 13.3848 13.1316 13.8553 12.7685 14.4741C12.4054 15.0929 12.2728 15.8201 12.3941 16.5272C12.5154 17.2343 12.8827 17.8758 13.4312 18.3382C13.9797 18.8006 14.6741 19.0543 15.3915 19.0543C16.1089 19.0543 16.8032 18.8006 17.3517 18.3382C17.9002 17.8758 18.2676 17.2343 18.3888 16.5272C18.5101 15.8201 18.3775 15.0929 18.0145 14.4741C17.6514 13.8553 17.0813 13.3848 16.4049 13.1458V8.31197C16.4049 6.86065 15.8283 5.46877 14.8021 4.44252C13.7758 3.41628 12.3839 2.83975 10.9326 2.83975H10.7441L11.0411 2.54283C11.2256 2.3517 11.3278 2.09572 11.3255 1.83002C11.3232 1.56431 11.2166 1.31015 11.0287 1.12226C10.8408 0.93437 10.5867 0.827794 10.3209 0.825485C10.0552 0.823176 9.79926 0.925319 9.60814 1.10991L7.58139 3.13666C7.39141 3.3267 7.28468 3.58441 7.28468 3.85312C7.28468 4.12183 7.39141 4.37954 7.58139 4.56958L9.60814 6.59633C9.70162 6.69312 9.81344 6.77032 9.93708 6.82343C10.0607 6.87654 10.1937 6.90449 10.3282 6.90566C10.4628 6.90683 10.5962 6.88119 10.7208 6.83024C10.8453 6.77928 10.9585 6.70404 11.0536 6.60889C11.1488 6.51374 11.224 6.4006 11.275 6.27606C11.3259 6.15152 11.3516 6.01807 11.3504 5.88352C11.3492 5.74896 11.3213 5.61599 11.2682 5.49235C11.215 5.36872 11.1378 5.2569 11.0411 5.16342L10.7441 4.8665H10.9326C11.8464 4.8665 12.7228 5.2295 13.3689 5.87565C14.0151 6.52181 14.3781 7.39818 14.3781 8.31197V13.1458ZM14.3781 16.0136C14.3781 15.7449 14.4849 15.4871 14.6749 15.2971C14.865 15.107 15.1227 15.0003 15.3915 15.0003C15.6602 15.0003 15.918 15.107 16.108 15.2971C16.2981 15.4871 16.4049 15.7449 16.4049 16.0136C16.4049 16.2824 16.2981 16.5402 16.108 16.7302C15.918 16.9202 15.6602 17.027 15.3915 17.027C15.1227 17.027 14.865 16.9202 14.6749 16.7302C14.4849 16.5402 14.3781 16.2824 14.3781 16.0136Z" fill="white"/>
</svg>
