<svg width="20" height="21" viewBox="0 0 20 21" fill="none" xmlns="http://www.w3.org/2000/svg">
<path d="M0.890869 6.44774V11.5146C0.890869 15.3361 0.891882 17.2463 2.07855 18.4339C3.26521 19.6216 5.17643 19.6216 8.99787 19.6216H11.0246C14.8461 19.6216 16.7563 19.6206 17.944 18.4339C19.1316 17.2473 19.1316 15.3361 19.1316 11.5146V6.44774M0.890869 6.44774H19.1316M0.890869 6.44774L1.76744 4.49902C2.44843 2.98706 2.78791 2.23209 3.477 1.80648C4.1661 1.38086 5.05078 1.38086 6.81912 1.38086H13.2034C14.9717 1.38086 15.8554 1.38086 16.5455 1.80648C17.2346 2.23209 17.5741 2.98706 18.2551 4.49902L19.1316 6.44774M10.0112 6.44774V1.38086" stroke="white" stroke-width="1.52006" stroke-linecap="round" stroke-linejoin="round"/>
<path d="M6.46445 12.0213H12.038C12.5755 12.0213 13.0911 12.2348 13.4711 12.6149C13.8512 12.995 14.0648 13.5105 14.0648 14.048C14.0648 14.5855 13.8512 15.101 13.4711 15.4811C13.0911 15.8612 12.5755 16.0748 12.038 16.0748H11.0246M7.98451 9.99451L5.95776 12.0213L7.98451 14.048" stroke="white" stroke-width="1.52006" stroke-linecap="round" stroke-linejoin="round"/>
</svg>
