<svg width="23" height="23" viewBox="0 0 23 23" fill="none" xmlns="http://www.w3.org/2000/svg">
<path d="M16.3402 16.3404C17.1746 15.506 17.8365 14.5154 18.2881 13.4251C18.7397 12.3349 18.9721 11.1664 18.9721 9.98631C18.9721 8.80624 18.7397 7.63773 18.2881 6.54749C17.8365 5.45725 17.1746 4.46663 16.3402 3.6322C15.5057 2.79777 14.5151 2.13586 13.4249 1.68427C12.3346 1.23268 11.1661 1.00024 9.98606 1.00024C8.806 1.00024 7.63748 1.23268 6.54725 1.68427C5.45701 2.13586 4.46639 2.79777 3.63196 3.6322C1.94674 5.31741 1 7.60306 1 9.98631C1 12.3696 1.94674 14.6552 3.63196 16.3404C5.31717 18.0256 7.60281 18.9724 9.98606 18.9724C12.3693 18.9724 14.655 18.0256 16.3402 16.3404ZM16.3402 16.3404L22 22.0002" stroke="#5E5F60" stroke-width="2" stroke-linecap="round" stroke-linejoin="round"/>
</svg>
