<svg width="23" height="24" viewBox="0 0 23 24" fill="none" xmlns="http://www.w3.org/2000/svg">
<path d="M16.3402 16.8402C17.1746 16.0057 17.8365 15.0151 18.2881 13.9249C18.7397 12.8346 18.9721 11.6661 18.9721 10.4861C18.9721 9.306 18.7397 8.13748 18.2881 7.04725C17.8365 5.95701 17.1746 4.96639 16.3402 4.13196C15.5057 3.29752 14.5151 2.63562 13.4249 2.18402C12.3346 1.73243 11.1661 1.5 9.98606 1.5C8.806 1.5 7.63748 1.73243 6.54725 2.18402C5.45701 2.63562 4.46639 3.29752 3.63196 4.13196C1.94674 5.81717 1 8.10281 1 10.4861C1 12.8693 1.94674 15.155 3.63196 16.8402C5.31717 18.5254 7.60281 19.4721 9.98606 19.4721C12.3693 19.4721 14.655 18.5254 16.3402 16.8402ZM16.3402 16.8402L22 22.5" stroke="white" stroke-width="2" stroke-linecap="round" stroke-linejoin="round"/>
</svg>
