<svg width="22" height="22" viewBox="0 0 22 22" fill="none" xmlns="http://www.w3.org/2000/svg">
<path fill-rule="evenodd" clip-rule="evenodd" d="M20.0482 9.39786L18.1887 14.9763C16.8777 18.9095 16.2221 20.8761 15.2609 21.4349C14.3464 21.9666 13.2169 21.9666 12.3024 21.4349C11.3411 20.8761 10.6856 18.9095 9.37455 14.9763C9.16404 14.3448 9.05878 14.029 8.88209 13.7651C8.71086 13.5093 8.49113 13.2896 8.23534 13.1183C7.97141 12.9416 7.65564 12.8364 7.0241 12.6259C3.09092 11.3148 1.12433 10.6593 0.565478 9.69798C0.033838 8.78349 0.0338382 7.65404 0.565478 6.73956C1.12433 5.77827 3.09092 5.12274 7.0241 3.81167L12.6026 1.95219C17.4758 0.327775 19.9124 -0.484432 21.1986 0.801775C22.4848 2.08798 21.6726 4.52461 20.0482 9.39786ZM12.1329 9.81102C11.8174 9.49196 11.8202 8.97752 12.1393 8.66199L16.7007 4.15086C17.0197 3.83532 17.5342 3.83818 17.8497 4.15723C18.1652 4.47628 18.1624 4.99072 17.8433 5.30626L13.2819 9.81739C12.9629 10.1329 12.4484 10.1301 12.1329 9.81102Z" fill="white"/>
</svg>
