<svg width="22" height="22" viewBox="0 0 22 22" fill="none" xmlns="http://www.w3.org/2000/svg">
<path d="M19.3038 11.4716L20.6779 12.6952C20.9317 12.907 21.1012 13.2026 21.1559 13.5285C21.2105 13.8545 21.1467 14.1892 20.9758 14.4722L19.319 17.3025C19.1904 17.5192 19.0069 17.698 18.787 17.8209C18.5645 17.944 18.3146 18.0093 18.0604 18.0109C17.9026 18.0118 17.7457 17.9883 17.5952 17.941L15.8365 17.3603C15.5284 17.5579 15.2082 17.7347 14.8758 17.8908L14.5065 19.6738C14.4381 20.0018 14.2555 20.2949 13.9912 20.5007C13.7235 20.7103 13.3916 20.8209 13.0518 20.8139H9.62097C9.28111 20.8209 8.94925 20.7103 8.68157 20.5007C8.41781 20.2946 8.23575 20.0016 8.16779 19.6738L7.7969 17.8908C7.46887 17.7326 7.1506 17.555 6.84382 17.3588L5.07902 17.941C4.92854 17.9883 4.77162 18.0118 4.61388 18.0109C4.36012 18.0091 4.11085 17.9437 3.88881 17.8209C3.66907 17.6984 3.48555 17.5201 3.35679 17.304L1.64064 14.4722C1.46223 14.1867 1.39406 13.8459 1.4489 13.5138C1.50375 13.1816 1.67785 12.8808 1.93857 12.6679L3.31119 10.9335V10.3954L1.93705 9.17171C1.6833 8.95996 1.51375 8.66434 1.4591 8.33839C1.40445 8.01244 1.46831 7.67769 1.63912 7.39475L3.35527 4.5644C3.48382 4.34774 3.66736 4.16891 3.88729 4.04606C4.10933 3.92319 4.3586 3.85787 4.61236 3.85605C4.76868 3.84619 4.92558 3.86054 5.0775 3.89861L6.80734 4.50663C7.11642 4.30903 7.43664 4.13219 7.76802 3.97613L8.13891 2.1931C8.20687 1.86532 8.38893 1.5723 8.65269 1.36618C8.92037 1.15664 9.25222 1.04602 9.59209 1.05305H12.994C13.3339 1.04602 13.6657 1.15664 13.9334 1.36618C14.1994 1.57443 14.3818 1.8678 14.4472 2.1931L14.8181 3.97613C15.1474 4.13321 15.4651 4.31055 15.7712 4.50815L17.5375 3.92749C17.7335 3.86372 17.9406 3.84133 18.1458 3.86174C18.3509 3.88215 18.5496 3.94491 18.7292 4.04606C18.9496 4.1707 19.132 4.35007 19.2612 4.56288L20.9758 7.39475C21.1567 7.67782 21.2283 8.01701 21.1774 8.34902C21.1265 8.68103 20.9565 8.98318 20.6992 9.19907L19.3038 10.3878V11.4716Z" stroke="white" stroke-width="1.52006"/>
<path d="M15.1114 10.933C15.1114 11.9408 14.7111 12.9074 13.9984 13.6201C13.2857 14.3328 12.3191 14.7331 11.3113 14.7331C10.3034 14.7331 9.33682 14.3328 8.62415 13.6201C7.91148 12.9074 7.51111 11.9408 7.51111 10.933C7.51111 9.92511 7.91148 8.95852 8.62415 8.24585C9.33682 7.53319 10.3034 7.13281 11.3113 7.13281C12.3191 7.13281 13.2857 7.53319 13.9984 8.24585C14.7111 8.95852 15.1114 9.92511 15.1114 10.933Z" stroke="white" stroke-width="1.52006"/>
</svg>
