<svg width="29" height="30" viewBox="0 0 29 30" fill="none" xmlns="http://www.w3.org/2000/svg">
<path d="M18.1512 7.73438L24.7663 13.6685C24.8951 13.7864 24.998 13.9299 25.0684 14.0897C25.1388 14.2496 25.1751 14.4223 25.1751 14.597C25.1751 14.7716 25.1388 14.9444 25.0684 15.1042C24.998 15.2641 24.8951 15.4075 24.7663 15.5255L18.0385 21.625M10.6611 17.772V19.7081C10.6395 19.9292 10.6831 20.1518 10.7864 20.3484C10.8897 20.545 11.0483 20.7072 11.2426 20.8148C11.4369 20.9225 11.6584 20.971 11.8799 20.9543C12.1014 20.9377 12.3132 20.8566 12.4892 20.7211L18.6128 15.625C18.7523 15.5012 18.864 15.3493 18.9405 15.1792C19.017 15.0092 19.0565 14.8248 19.0565 14.6383C19.0565 14.4519 19.017 14.2675 18.9405 14.0974C18.864 13.9274 18.7523 13.7754 18.6128 13.6517L12.4892 8.55556C12.3131 8.41996 12.1012 8.33886 11.8796 8.32224C11.658 8.30562 11.4363 8.35421 11.2419 8.46203C11.0476 8.56985 10.889 8.73218 10.7858 8.92901C10.6826 9.12584 10.6392 9.34858 10.6611 9.56976V11.6077C6.69059 11.6077 3.46819 15.179 3.46819 19.5846V21.1779C3.44065 21.3809 3.48834 21.5869 3.60225 21.7572C3.71615 21.9275 3.88842 22.0502 4.08657 22.1023C4.28471 22.1543 4.49505 22.1321 4.67793 22.0397C4.86082 21.9474 5.00361 21.7914 5.07939 21.601C5.53859 20.4918 6.31007 19.5398 7.3001 18.8607C8.29012 18.1816 9.45606 17.8046 10.6563 17.7756L10.6611 17.772Z" stroke="#363333" stroke-width="2.39762" stroke-linecap="round" stroke-linejoin="round"/>
</svg>
