<svg width="47" height="47" viewBox="0 0 47 47" fill="none" xmlns="http://www.w3.org/2000/svg">
<path d="M23.5 46.9895C36.2364 46.9895 46.5982 36.6276 46.5982 23.8912C46.5982 11.1548 36.2364 0.792969 23.5 0.792969C10.7636 0.792969 0.401733 11.1548 0.401733 23.8912C0.401733 36.6276 10.7636 46.9895 23.5 46.9895ZM31.5682 16.9617C32.0287 16.95 32.487 17.0306 32.9159 17.1987C33.3448 17.3669 33.7357 17.6192 34.0655 17.9408C34.3954 18.2624 34.6575 18.6468 34.8364 19.0714C35.0153 19.4959 35.1074 19.952 35.1072 20.4127C35.107 20.8733 35.0146 21.3293 34.8355 21.7537C34.6563 22.1782 34.3939 22.5624 34.0639 22.8838C33.7338 23.2052 33.3427 23.4573 32.9137 23.6251C32.4847 23.793 32.0264 23.8733 31.5659 23.8612C30.6664 23.8376 29.8117 23.4637 29.184 22.819C28.5563 22.1744 28.2051 21.3101 28.2054 20.4103C28.2057 19.5106 28.5575 18.6465 29.1856 18.0023C29.8138 17.3581 30.6687 16.9847 31.5682 16.9617ZM21.6336 32.9434C22.8656 33.1906 24.1344 33.1906 25.3663 32.9434C25.9507 32.8233 26.5328 32.6408 27.0987 32.4052C27.6392 32.1743 28.1705 31.8878 28.6671 31.5552C29.1475 31.2272 29.6072 30.8484 30.0322 30.4257C30.4549 30.0053 30.8337 29.5457 31.1617 29.0583L34.9914 31.6384C33.9957 33.1141 32.7262 34.3851 31.2518 35.3826C29.7495 36.3963 28.0631 37.1057 26.2879 37.4707C24.4476 37.8404 22.5521 37.8396 20.712 37.4684C18.9363 37.1087 17.2498 36.3997 15.7505 35.3826C14.276 34.3826 13.0053 33.1112 12.0063 31.6361L15.836 29.056C16.1663 29.5434 16.5451 30.003 16.9632 30.4188C18.2385 31.7005 19.8628 32.5785 21.6336 32.9434ZM15.4156 16.9617C15.8707 16.9619 16.3214 17.0517 16.7419 17.226C17.1623 17.4003 17.5443 17.6558 17.866 17.9777C18.1877 18.2996 18.4429 18.6818 18.617 19.1024C18.791 19.5229 18.8805 19.9736 18.8803 20.4288C18.8802 20.8839 18.7904 21.3346 18.6161 21.755C18.4418 22.1755 18.1863 22.5575 17.8644 22.8792C17.5424 23.2009 17.1603 23.4561 16.7397 23.6301C16.3192 23.8042 15.8684 23.8937 15.4133 23.8935C14.4941 23.8932 13.6126 23.5278 12.9629 22.8776C12.3131 22.2274 11.9482 21.3457 11.9486 20.4265C11.9489 19.5073 12.3143 18.6258 12.9645 17.9761C13.6147 17.3263 14.4964 16.9614 15.4156 16.9617Z" fill="#006EC2"/>
</svg>
