<svg width="12" height="13" viewBox="0 0 12 13" fill="none" xmlns="http://www.w3.org/2000/svg">
<path d="M5.99996 12.3462C5.84525 12.3462 5.69688 12.2847 5.58748 12.1753C5.47808 12.0659 5.41663 11.9176 5.41663 11.7629V10.5962C5.41663 10.4415 5.47808 10.2931 5.58748 10.1837C5.69688 10.0743 5.84525 10.0129 5.99996 10.0129C6.15467 10.0129 6.30304 10.0743 6.41244 10.1837C6.52183 10.2931 6.58329 10.4415 6.58329 10.5962V11.7629C6.58329 11.9176 6.52183 12.0659 6.41244 12.1753C6.30304 12.2847 6.15467 12.3462 5.99996 12.3462ZM11.25 7.09619H10.0833C9.92858 7.09619 9.78021 7.03473 9.67081 6.92534C9.56142 6.81594 9.49996 6.66757 9.49996 6.51286C9.49996 6.35815 9.56142 6.20978 9.67081 6.10038C9.78021 5.99098 9.92858 5.92952 10.0833 5.92952H11.25C11.4047 5.92952 11.553 5.99098 11.6624 6.10038C11.7718 6.20978 11.8333 6.35815 11.8333 6.51286C11.8333 6.66757 11.7718 6.81594 11.6624 6.92534C11.553 7.03473 11.4047 7.09619 11.25 7.09619ZM2.49996 6.51286C2.49996 6.66757 2.4385 6.81594 2.3291 6.92534C2.21971 7.03473 2.07134 7.09619 1.91663 7.09619H0.749959C0.59525 7.09619 0.446877 7.03473 0.33748 6.92534C0.228084 6.81594 0.166626 6.66757 0.166626 6.51286C0.166626 6.35815 0.228084 6.20978 0.33748 6.10038C0.446877 5.99098 0.59525 5.92952 0.749959 5.92952H1.91663C2.07134 5.92952 2.21971 5.99098 2.3291 6.10038C2.4385 6.20978 2.49996 6.35815 2.49996 6.51286ZM2.62829 10.5962C2.51458 10.7037 2.36281 10.7617 2.20638 10.7573C2.04994 10.7529 1.90165 10.6866 1.79413 10.5729C1.6866 10.4591 1.62866 10.3074 1.63303 10.1509C1.63741 9.99451 1.70375 9.84621 1.81746 9.73869L2.65746 8.92786C2.71383 8.87343 2.78059 8.83091 2.85375 8.80285C2.92691 8.77479 3.00498 8.76175 3.08329 8.76452C3.16187 8.76482 3.23958 8.781 3.31175 8.81207C3.38392 8.84315 3.44907 8.88848 3.50329 8.94536C3.61194 9.05465 3.67292 9.2025 3.67292 9.35661C3.67292 9.51072 3.61194 9.65856 3.50329 9.76786L2.62829 10.5962ZM8.91663 8.76452C9.06682 8.76512 9.21099 8.82363 9.31913 8.92786L10.1591 9.73869C10.2616 9.84576 10.3195 9.98782 10.321 10.136C10.3225 10.2842 10.2676 10.4274 10.1673 10.5366C10.0671 10.6457 9.92906 10.7127 9.78127 10.7237C9.63348 10.7348 9.48701 10.6892 9.37163 10.5962L8.53163 9.76786C8.42298 9.65856 8.362 9.51072 8.362 9.35661C8.362 9.2025 8.42298 9.05465 8.53163 8.94536C8.63263 8.83877 8.77011 8.7742 8.91663 8.76452ZM5.99996 3.01286C5.84525 3.01286 5.69688 2.9514 5.58748 2.842C5.47808 2.73261 5.41663 2.58423 5.41663 2.42953V1.26286C5.41663 1.10815 5.47808 0.959775 5.58748 0.850379C5.69688 0.740983 5.84525 0.679525 5.99996 0.679525C6.15467 0.679525 6.30304 0.740983 6.41244 0.850379C6.52183 0.959775 6.58329 1.10815 6.58329 1.26286V2.42953C6.58329 2.58423 6.52183 2.73261 6.41244 2.842C6.30304 2.9514 6.15467 3.01286 5.99996 3.01286ZM9.34246 4.09786C9.23107 4.20538 9.08153 4.26425 8.92673 4.26152C8.77193 4.25878 8.62457 4.19466 8.51704 4.08327C8.40952 3.97188 8.35065 3.82234 8.35338 3.66755C8.35612 3.51275 8.42023 3.36538 8.53163 3.25786L9.37163 2.42953C9.47976 2.32529 9.62393 2.26679 9.77413 2.26619C9.85229 2.26573 9.92974 2.28099 10.0019 2.31105C10.074 2.34112 10.1394 2.38537 10.1941 2.44119C10.2488 2.49542 10.2922 2.55994 10.3218 2.63102C10.3514 2.70211 10.3667 2.77835 10.3667 2.85536C10.3667 2.93237 10.3514 3.00861 10.3218 3.07969C10.2922 3.15078 10.2488 3.2153 10.1941 3.26953L9.34246 4.09786ZM2.65746 4.09786L1.81746 3.28702C1.76278 3.2328 1.71939 3.16828 1.68977 3.09719C1.66016 3.02611 1.64491 2.94987 1.64491 2.87286C1.64491 2.79585 1.66016 2.71961 1.68977 2.64852C1.71939 2.57744 1.76278 2.51292 1.81746 2.45869C1.87217 2.40287 1.93754 2.35862 2.00969 2.32855C2.08184 2.29849 2.1593 2.28324 2.23746 2.28369C2.38126 2.28247 2.52044 2.3344 2.62829 2.42953L3.46829 3.24036C3.57968 3.34788 3.6438 3.49525 3.64653 3.65005C3.64927 3.80484 3.5904 3.95438 3.48288 4.06577C3.37535 4.17717 3.22798 4.24128 3.07319 4.24402C2.91839 4.24675 2.76885 4.18788 2.65746 4.08036V4.09786Z" fill="#006EC2"/>
</svg>
