<svg width="36" height="50" viewBox="0 0 36 50" fill="none" xmlns="http://www.w3.org/2000/svg">
<path d="M14.4157 15.0992C14.4157 12.9211 16.2313 12.082 19.1422 12.082C23.3813 12.082 28.761 13.3805 33 15.6664V2.55234C28.3813 0.707031 23.7719 0.00390625 19.1516 0.00390625C7.85317 0.00390625 0.323486 5.90234 0.323486 15.7648C0.323486 31.1852 21.4954 28.6852 21.4954 35.3352C21.4954 37.9133 19.2594 38.743 16.1532 38.743C11.5438 38.743 5.58599 36.8383 0.909424 34.2992V46.8477C5.72074 48.9236 10.9038 50.0001 16.1438 50.0117C27.7266 50.0117 35.7047 45.0305 35.7047 35.0117C35.7047 18.3914 14.4157 21.3695 14.4157 15.0992Z" fill="#635BFF"/>
</svg>
