<svg width="36" height="38" viewBox="0 0 36 38" fill="none" xmlns="http://www.w3.org/2000/svg">
<path d="M18.875 36.5H15.7723C10.0673 36.5 7.21125 36.5 5.23025 35.1035C4.66649 34.7081 4.16257 34.2337 3.734 33.6947C2.25 31.8292 2.25 29.1448 2.25 23.7723V19.3185C2.25 14.1333 2.25 11.5397 3.07075 9.4695C4.39025 6.13925 7.17975 3.51425 10.7183 2.27175C12.9163 1.5 15.669 1.5 21.1815 1.5C24.328 1.5 25.903 1.5 27.1595 1.941C29.1807 2.6515 30.775 4.15125 31.5293 6.0535C32 7.2365 32 8.71875 32 11.6815V16.375" stroke="#006EC2" stroke-width="2.625" stroke-linecap="round" stroke-linejoin="round"/>
<path d="M2.25 19C2.25 17.4531 2.86452 15.9695 3.95837 14.8756C5.05223 13.7818 6.53581 13.1672 8.08275 13.1672C9.24825 13.1672 10.622 13.3702 11.7542 13.0675C12.249 12.9344 12.7 12.6735 13.0622 12.3111C13.4243 11.9486 13.6848 11.4974 13.8175 11.0025C14.1202 9.87025 13.9172 8.4965 13.9172 7.331C13.9177 5.78436 14.5324 4.30123 15.6262 3.20775C16.72 2.11428 18.2034 1.5 19.75 1.5M33.75 33.861C32.9135 35.443 31.3892 36.5 29.6497 36.5C27.0072 36.5 24.8653 34.0622 24.8653 31.0557V27.9425C24.8653 24.936 27.0072 22.4982 29.6497 22.4982C31.3892 22.4982 32.9135 23.5552 33.75 25.1372M23.25 29.5H30.1153" stroke="#006EC2" stroke-width="2.625" stroke-linecap="round" stroke-linejoin="round"/>
</svg>
