<svg width="20" height="22" viewBox="0 0 20 22" fill="none" xmlns="http://www.w3.org/2000/svg">
<path d="M5.50058 2.5C3.94458 2.547 3.01758 2.72 2.37558 3.362C1.49658 4.242 1.49658 5.657 1.49658 8.488V14.994C1.49658 17.826 1.49658 19.241 2.37558 20.121C3.25358 21 4.66858 21 7.49658 21H12.4966C15.3256 21 16.7396 21 17.6176 20.12C18.4976 19.241 18.4976 17.826 18.4976 14.994V8.488C18.4976 5.658 18.4976 4.242 17.6176 3.362C16.9766 2.72 16.0486 2.547 14.4926 2.5" stroke="#5E5F60" stroke-width="1.5" stroke-linecap="round" stroke-linejoin="round"/>
<path d="M11.5006 10H15.0006M5.00061 11C5.00061 11 5.50061 11 6.00061 12C6.00061 12 7.58861 9.5 9.00061 9M11.5006 16H15.0006M6.00061 16H7.00061M5.49661 2.75C5.49661 1.784 6.28061 1 7.24661 1H12.7466C13.2107 1 13.6559 1.18437 13.984 1.51256C14.3122 1.84075 14.4966 2.28587 14.4966 2.75C14.4966 3.21413 14.3122 3.65925 13.984 3.98744C13.6559 4.31563 13.2107 4.5 12.7466 4.5H7.24661C6.78248 4.5 6.33736 4.31563 6.00917 3.98744C5.68098 3.65925 5.49661 3.21413 5.49661 2.75Z" stroke="#5E5F60" stroke-width="1.5" stroke-linecap="round" stroke-linejoin="round"/>
</svg>
