<svg width="19" height="22" viewBox="0 0 19 22" fill="none" xmlns="http://www.w3.org/2000/svg">
<path d="M4.81125 2.43359C3.25525 2.48059 2.32825 2.65359 1.68625 3.29559C0.807251 4.17559 0.807251 5.59059 0.807251 8.42159V14.9276C0.807251 17.7596 0.807251 19.1746 1.68625 20.0546C2.56425 20.9336 3.97925 20.9336 6.80725 20.9336H11.8073C14.6363 20.9336 16.0503 20.9336 16.9283 20.0536C17.8083 19.1746 17.8083 17.7596 17.8083 14.9276V8.42159C17.8083 5.59159 17.8083 4.17559 16.9283 3.29559C16.2873 2.65359 15.3593 2.48059 13.8033 2.43359" stroke="white" stroke-width="1.5" stroke-linecap="round" stroke-linejoin="round"/>
<path d="M10.8113 9.93359H14.3113M4.31128 10.9336C4.31128 10.9336 4.81128 10.9336 5.31128 11.9336C5.31128 11.9336 6.89928 9.43359 8.31128 8.93359M10.8113 15.9336H14.3113M5.31128 15.9336H6.31128M4.80728 2.68359C4.80728 1.71759 5.59128 0.933594 6.55728 0.933594H12.0573C12.5214 0.933594 12.9665 1.11797 13.2947 1.44616C13.6229 1.77435 13.8073 2.21946 13.8073 2.68359C13.8073 3.14772 13.6229 3.59284 13.2947 3.92103C12.9665 4.24922 12.5214 4.43359 12.0573 4.43359H6.55728C6.09315 4.43359 5.64803 4.24922 5.31984 3.92103C4.99165 3.59284 4.80728 3.14772 4.80728 2.68359Z" stroke="white" stroke-width="1.5" stroke-linecap="round" stroke-linejoin="round"/>
</svg>
