<svg width="36" height="36" viewBox="0 0 36 36" fill="none" xmlns="http://www.w3.org/2000/svg">
<path d="M18 16.2498C20.3206 16.2498 22.5462 17.1716 24.1872 18.8126C25.8281 20.4535 26.75 22.6791 26.75 24.9998V35.4998H23.25V24.9998C23.2501 23.6606 22.7384 22.3721 21.8198 21.3978C20.9011 20.4235 19.6448 19.8371 18.308 19.7585L18 19.7498C16.6609 19.7497 15.3723 20.2613 14.398 21.18C13.4237 22.0987 12.8373 23.3549 12.7587 24.6918L12.75 24.9998V35.4998H9.25V24.9998C9.25 22.6791 10.1719 20.4535 11.8128 18.8126C13.4538 17.1716 15.6794 16.2498 18 16.2498ZM6.625 21.4998C7.115 21.5009 7.5875 21.5558 8.0425 21.6643C7.74439 22.5553 7.56722 23.4823 7.51575 24.4205L7.5 24.9998V25.1503C7.2988 25.0784 7.08959 25.0314 6.877 25.0103L6.625 24.9998C5.97273 24.9997 5.34382 25.2426 4.86081 25.6809C4.3778 26.1193 4.0753 26.7218 4.01225 27.371L4 27.6248V35.4998H0.5V27.6248C0.5 26.0003 1.14531 24.4424 2.29397 23.2937C3.44263 22.1451 5.00055 21.4998 6.625 21.4998ZM29.375 21.4998C30.9995 21.4998 32.5574 22.1451 33.706 23.2937C34.8547 24.4424 35.5 26.0003 35.5 27.6248V35.4998H32V27.6248C32 26.9725 31.7572 26.3436 31.3188 25.8606C30.8805 25.3776 30.278 25.0751 29.6287 25.012L29.375 24.9998C29.067 25.0009 28.7753 25.0505 28.5 25.1485V24.9998C28.5 23.8343 28.311 22.7143 27.961 21.6678C28.4125 21.5575 28.8885 21.4998 29.375 21.4998ZM6.625 10.9998C7.78532 10.9998 8.89812 11.4607 9.71859 12.2812C10.5391 13.1016 11 14.2144 11 15.3748C11 16.5351 10.5391 17.6479 9.71859 18.4683C8.89812 19.2888 7.78532 19.7498 6.625 19.7498C5.46468 19.7498 4.35188 19.2888 3.53141 18.4683C2.71094 17.6479 2.25 16.5351 2.25 15.3748C2.25 14.2144 2.71094 13.1016 3.53141 12.2812C4.35188 11.4607 5.46468 10.9998 6.625 10.9998ZM29.375 10.9998C30.5353 10.9998 31.6481 11.4607 32.4686 12.2812C33.2891 13.1016 33.75 14.2144 33.75 15.3748C33.75 16.5351 33.2891 17.6479 32.4686 18.4683C31.6481 19.2888 30.5353 19.7498 29.375 19.7498C28.2147 19.7498 27.1019 19.2888 26.2814 18.4683C25.4609 17.6479 25 16.5351 25 15.3748C25 14.2144 25.4609 13.1016 26.2814 12.2812C27.1019 11.4607 28.2147 10.9998 29.375 10.9998ZM6.625 14.4998C6.39294 14.4998 6.17038 14.5919 6.00628 14.756C5.84219 14.9201 5.75 15.1427 5.75 15.3748C5.75 15.6068 5.84219 15.8294 6.00628 15.9935C6.17038 16.1576 6.39294 16.2498 6.625 16.2498C6.85706 16.2498 7.07962 16.1576 7.24372 15.9935C7.40781 15.8294 7.5 15.6068 7.5 15.3748C7.5 15.1427 7.40781 14.9201 7.24372 14.756C7.07962 14.5919 6.85706 14.4998 6.625 14.4998ZM29.375 14.4998C29.1429 14.4998 28.9204 14.5919 28.7563 14.756C28.5922 14.9201 28.5 15.1427 28.5 15.3748C28.5 15.6068 28.5922 15.8294 28.7563 15.9935C28.9204 16.1576 29.1429 16.2498 29.375 16.2498C29.6071 16.2498 29.8296 16.1576 29.9937 15.9935C30.1578 15.8294 30.25 15.6068 30.25 15.3748C30.25 15.1427 30.1578 14.9201 29.9937 14.756C29.8296 14.5919 29.6071 14.4998 29.375 14.4998ZM18 0.499756C19.8565 0.499756 21.637 1.23725 22.9497 2.55001C24.2625 3.86276 25 5.64324 25 7.49976C25 9.35627 24.2625 11.1367 22.9497 12.4495C21.637 13.7623 19.8565 14.4998 18 14.4998C16.1435 14.4998 14.363 13.7623 13.0503 12.4495C11.7375 11.1367 11 9.35627 11 7.49976C11 5.64324 11.7375 3.86276 13.0503 2.55001C14.363 1.23725 16.1435 0.499756 18 0.499756ZM18 3.99976C17.0717 3.99976 16.1815 4.3685 15.5251 5.02488C14.8687 5.68126 14.5 6.5715 14.5 7.49976C14.5 8.42801 14.8687 9.31825 15.5251 9.97463C16.1815 10.631 17.0717 10.9998 18 10.9998C18.9283 10.9998 19.8185 10.631 20.4749 9.97463C21.1313 9.31825 21.5 8.42801 21.5 7.49976C21.5 6.5715 21.1313 5.68126 20.4749 5.02488C19.8185 4.3685 18.9283 3.99976 18 3.99976Z" fill="#006EC2"/>
</svg>
