<svg width="280" height="281" viewBox="0 0 280 281" fill="none" xmlns="http://www.w3.org/2000/svg">
<g filter="url(#filter0_ddd_1_13063)">
<rect x="48.4199" y="48" width="183.16" height="183.16" rx="91.5801" fill="#D1D3D9"/>
<path d="M116.773 123.521C116.773 126.546 117.368 129.541 118.526 132.336C119.684 135.131 121.38 137.67 123.52 139.809C125.659 141.948 128.198 143.645 130.993 144.803C133.788 145.961 136.783 146.556 139.808 146.556C142.833 146.556 145.829 145.961 148.623 144.803C151.418 143.645 153.958 141.948 156.097 139.809C158.236 137.67 159.932 135.131 161.09 132.336C162.248 129.541 162.844 126.546 162.844 123.521C162.844 117.411 160.417 111.552 156.097 107.232C151.777 102.912 145.917 100.485 139.808 100.485C133.699 100.485 127.84 102.912 123.52 107.232C119.2 111.552 116.773 117.411 116.773 123.521Z" stroke="#44546F" stroke-width="3.02219" stroke-linecap="round" stroke-linejoin="round"/>
<path d="M139.808 110.725V123.522L147.487 131.201" stroke="#44546F" stroke-width="3.02219" stroke-linecap="round" stroke-linejoin="round"/>
<path d="M105.6 175.512C104.128 175.512 102.851 175.188 101.77 174.541C100.696 173.893 99.8633 172.976 99.2729 171.788C98.6896 170.593 98.3979 169.174 98.3979 167.531V167.52C98.3979 165.877 98.6896 164.461 99.2729 163.273C99.8633 162.085 100.696 161.171 101.77 160.531C102.851 159.884 104.128 159.56 105.6 159.56C106.781 159.56 107.837 159.788 108.769 160.243C109.708 160.698 110.473 161.328 111.063 162.131C111.654 162.928 112.013 163.853 112.141 164.906L112.152 165.002H109.463L109.41 164.82C109.26 164.23 109.011 163.721 108.663 163.294C108.321 162.861 107.891 162.526 107.372 162.291C106.859 162.057 106.269 161.939 105.6 161.939C104.704 161.939 103.925 162.167 103.264 162.622C102.609 163.077 102.1 163.721 101.738 164.554C101.382 165.386 101.204 166.375 101.204 167.52V167.531C101.204 168.669 101.382 169.661 101.738 170.507C102.1 171.347 102.613 171.994 103.274 172.449C103.936 172.905 104.711 173.132 105.6 173.132C106.255 173.132 106.838 173.019 107.35 172.791C107.869 172.556 108.307 172.222 108.663 171.788C109.018 171.347 109.278 170.817 109.442 170.198L109.463 170.091H112.162L112.152 170.198C112.017 171.251 111.654 172.176 111.063 172.972C110.473 173.769 109.708 174.391 108.769 174.84C107.837 175.288 106.781 175.512 105.6 175.512ZM114.398 175.234V159.741H117.055V175.234H114.398ZM124.657 175.458C123.547 175.458 122.58 175.224 121.755 174.754C120.936 174.278 120.3 173.598 119.845 172.716C119.396 171.834 119.172 170.781 119.172 169.558V169.536C119.172 168.32 119.4 167.274 119.855 166.399C120.311 165.517 120.947 164.838 121.765 164.361C122.59 163.885 123.554 163.647 124.657 163.647C125.767 163.647 126.73 163.885 127.548 164.361C128.374 164.831 129.014 165.507 129.469 166.389C129.924 167.271 130.152 168.32 130.152 169.536V169.558C130.152 170.788 129.924 171.845 129.469 172.727C129.021 173.602 128.384 174.278 127.559 174.754C126.741 175.224 125.774 175.458 124.657 175.458ZM124.667 173.314C125.237 173.314 125.727 173.168 126.14 172.876C126.56 172.577 126.88 172.151 127.1 171.596C127.328 171.034 127.442 170.355 127.442 169.558V169.536C127.442 168.747 127.328 168.075 127.1 167.52C126.873 166.958 126.549 166.531 126.129 166.239C125.71 165.948 125.219 165.802 124.657 165.802C124.095 165.802 123.604 165.951 123.184 166.25C122.772 166.542 122.448 166.965 122.213 167.52C121.986 168.075 121.872 168.747 121.872 169.536V169.558C121.872 170.355 121.986 171.034 122.213 171.596C122.448 172.151 122.772 172.577 123.184 172.876C123.604 173.168 124.098 173.314 124.667 173.314ZM137.178 175.458C136.054 175.458 135.08 175.22 134.254 174.744C133.436 174.267 132.807 173.588 132.366 172.706C131.925 171.816 131.704 170.764 131.704 169.547V169.536C131.704 168.327 131.928 167.285 132.376 166.41C132.825 165.528 133.454 164.849 134.265 164.372C135.083 163.888 136.047 163.647 137.157 163.647C138.153 163.647 139.013 163.835 139.739 164.212C140.464 164.582 141.034 165.08 141.446 165.706C141.859 166.332 142.093 167.025 142.15 167.787L142.161 167.861H139.654L139.643 167.776C139.529 167.228 139.266 166.762 138.853 166.378C138.448 165.994 137.889 165.802 137.178 165.802C136.616 165.802 136.125 165.955 135.706 166.261C135.293 166.56 134.973 166.99 134.745 167.552C134.518 168.107 134.404 168.772 134.404 169.547V169.558C134.404 170.347 134.518 171.023 134.745 171.585C134.98 172.147 135.304 172.577 135.716 172.876C136.136 173.168 136.627 173.314 137.189 173.314C137.872 173.314 138.419 173.136 138.832 172.78C139.245 172.417 139.515 171.937 139.643 171.34L139.664 171.254H142.172L142.161 171.329C142.09 172.119 141.841 172.826 141.414 173.452C140.987 174.071 140.415 174.562 139.696 174.925C138.978 175.281 138.138 175.458 137.178 175.458ZM144.215 175.234V159.741H146.872V175.234H144.215ZM151.364 175.234L147.565 170.07L149.294 168.16L154.448 175.234H151.364ZM146.498 171.671L146.488 168.587H146.936L151.182 163.881H154.245L148.995 169.558L148.408 169.675L146.498 171.671ZM155.434 170.166V167.808H162.349V170.166H155.434ZM165.384 175.234V159.837H168.126V175.234H165.384ZM170.916 175.234V163.881H173.573V165.653H173.637C173.936 165.041 174.373 164.554 174.95 164.191C175.526 163.828 176.241 163.647 177.094 163.647C178.339 163.647 179.303 164.024 179.986 164.778C180.669 165.532 181.01 166.57 181.01 167.893V175.234H178.353V168.427C178.353 167.609 178.165 166.983 177.788 166.549C177.411 166.108 176.842 165.887 176.081 165.887C175.569 165.887 175.124 166.005 174.747 166.239C174.37 166.467 174.078 166.787 173.872 167.2C173.673 167.612 173.573 168.096 173.573 168.651V175.234H170.916Z" fill="#44546F"/>
</g>
<defs>
<filter id="filter0_ddd_1_13063" x="-0.00484633" y="0.21909" width="280.01" height="280.01" filterUnits="userSpaceOnUse" color-interpolation-filters="sRGB">
<feFlood flood-opacity="0" result="BackgroundImageFix"/>
<feColorMatrix in="SourceAlpha" type="matrix" values="0 0 0 0 0 0 0 0 0 0 0 0 0 0 0 0 0 0 127 0" result="hardAlpha"/>
<feMorphology radius="47.7809" operator="dilate" in="SourceAlpha" result="effect1_dropShadow_1_13063"/>
<feOffset dy="0.643797"/>
<feGaussianBlur stdDeviation="0.321898"/>
<feComposite in2="hardAlpha" operator="out"/>
<feColorMatrix type="matrix" values="0 0 0 0 0.819608 0 0 0 0 0.827451 0 0 0 0 0.85098 0 0 0 0.25 0"/>
<feBlend mode="normal" in2="BackgroundImageFix" result="effect1_dropShadow_1_13063"/>
<feColorMatrix in="SourceAlpha" type="matrix" values="0 0 0 0 0 0 0 0 0 0 0 0 0 0 0 0 0 0 127 0" result="hardAlpha"/>
<feMorphology radius="31.8539" operator="dilate" in="SourceAlpha" result="effect2_dropShadow_1_13063"/>
<feOffset dy="0.643797"/>
<feGaussianBlur stdDeviation="0.321898"/>
<feComposite in2="hardAlpha" operator="out"/>
<feColorMatrix type="matrix" values="0 0 0 0 0.819608 0 0 0 0 0.827451 0 0 0 0 0.85098 0 0 0 0.25 0"/>
<feBlend mode="normal" in2="effect1_dropShadow_1_13063" result="effect2_dropShadow_1_13063"/>
<feColorMatrix in="SourceAlpha" type="matrix" values="0 0 0 0 0 0 0 0 0 0 0 0 0 0 0 0 0 0 127 0" result="hardAlpha"/>
<feMorphology radius="15.927" operator="dilate" in="SourceAlpha" result="effect3_dropShadow_1_13063"/>
<feOffset dy="0.643797"/>
<feGaussianBlur stdDeviation="0.321898"/>
<feComposite in2="hardAlpha" operator="out"/>
<feColorMatrix type="matrix" values="0 0 0 0 0.819608 0 0 0 0 0.827451 0 0 0 0 0.85098 0 0 0 0.25 0"/>
<feBlend mode="normal" in2="effect2_dropShadow_1_13063" result="effect3_dropShadow_1_13063"/>
<feBlend mode="normal" in="SourceGraphic" in2="effect3_dropShadow_1_13063" result="shape"/>
</filter>
</defs>
</svg>
