<svg width="24" height="22" viewBox="0 0 24 22" fill="none" xmlns="http://www.w3.org/2000/svg">
<path fill-rule="evenodd" clip-rule="evenodd" d="M6.42183 21.6543C4.87474 21.6543 3.39101 21.0397 2.29704 19.9458C1.20308 18.8518 0.588501 17.3681 0.588501 15.821V12.321C0.588501 12.0115 0.711417 11.7148 0.93021 11.496C1.149 11.2772 1.44575 11.1543 1.75517 11.1543C2.06459 11.1543 2.36133 11.2772 2.58013 11.496C2.79892 11.7148 2.92183 12.0115 2.92183 12.321V15.821C2.92183 16.7492 3.29058 17.6395 3.94696 18.2958C4.60334 18.9522 5.49358 19.321 6.42183 19.321H18.0885C19.0168 19.321 19.907 18.9522 20.5634 18.2958C21.2198 17.6395 21.5885 16.7492 21.5885 15.821V12.321C21.5885 12.0115 21.7114 11.7148 21.9302 11.496C22.149 11.2772 22.4457 11.1543 22.7552 11.1543C23.0646 11.1543 23.3613 11.2772 23.5801 11.496C23.7989 11.7148 23.9218 12.0115 23.9218 12.321V15.821C23.9218 17.3681 23.3073 18.8518 22.2133 19.9458C21.1193 21.0397 19.6356 21.6543 18.0885 21.6543H6.42183Z" fill="#006EC2"/>
<path fill-rule="evenodd" clip-rule="evenodd" d="M6.75433 7.77082C6.64707 7.66125 6.56247 7.53161 6.50535 7.38931C6.44823 7.24702 6.41973 7.09486 6.42146 6.94153C6.42319 6.78821 6.45513 6.63674 6.51545 6.49577C6.57577 6.3548 6.66329 6.22711 6.77299 6.11999L12.023 0.986655C12.241 0.77359 12.5337 0.654297 12.8385 0.654297C13.1433 0.654297 13.436 0.77359 13.654 0.986655L18.904 6.11999C19.0159 6.22653 19.1055 6.35423 19.1676 6.49569C19.2298 6.63715 19.2632 6.78954 19.266 6.94402C19.2687 7.0985 19.2408 7.25199 19.1838 7.39558C19.1267 7.53917 19.0417 7.67 18.9337 7.78048C18.8257 7.89096 18.6969 7.97889 18.5546 8.03916C18.4123 8.09943 18.2595 8.13084 18.105 8.13157C17.9505 8.1323 17.7974 8.10233 17.6546 8.04341C17.5117 7.98448 17.382 7.89778 17.273 7.78832L14.0052 4.59282V14.6542C14.0052 14.9636 13.8822 15.2603 13.6635 15.4791C13.4447 15.6979 13.1479 15.8208 12.8385 15.8208C12.5291 15.8208 12.2323 15.6979 12.0135 15.4791C11.7947 15.2603 11.6718 14.9636 11.6718 14.6542V4.59282L8.40516 7.78832C8.29559 7.89558 8.16594 7.98018 8.02365 8.0373C7.88135 8.09441 7.72919 8.12292 7.57587 8.12119C7.42255 8.11945 7.27108 8.08751 7.13011 8.02719C6.98914 7.96688 6.86145 7.87936 6.75433 7.76965V7.77082Z" fill="#006EC2"/>
</svg>
