<svg width="22" height="23" viewBox="0 0 22 23" fill="none" xmlns="http://www.w3.org/2000/svg">
<path d="M11 7.62089C8.85695 7.62089 7.12119 9.35664 7.12119 11.4997C7.12119 13.6427 8.85695 15.3785 11 15.3785C13.143 15.3785 14.8788 13.6427 14.8788 11.4997C14.8788 9.35664 13.143 7.62089 11 7.62089ZM19.6691 10.53C19.4494 8.56355 18.5676 6.73026 17.1685 5.33113C15.7694 3.93201 13.9361 3.05023 11.9697 2.83058V1.8027C11.9697 1.26937 11.5333 0.833008 11 0.833008C10.4666 0.833008 10.0303 1.26937 10.0303 1.8027V2.83058C8.06386 3.05023 6.23056 3.93201 4.83144 5.33113C3.43232 6.73026 2.55054 8.56355 2.33089 10.53H1.30301C0.769677 10.53 0.333313 10.9663 0.333313 11.4997C0.333313 12.033 0.769677 12.4694 1.30301 12.4694H2.33089C2.55054 14.4358 3.43232 16.2691 4.83144 17.6682C6.23056 19.0673 8.06386 19.9491 10.0303 20.1688V21.1966C10.0303 21.73 10.4666 22.1663 11 22.1663C11.5333 22.1663 11.9697 21.73 11.9697 21.1966V20.1688C13.9361 19.9491 15.7694 19.0673 17.1685 17.6682C18.5676 16.2691 19.4494 14.4358 19.6691 12.4694H20.6969C21.2303 12.4694 21.6666 12.033 21.6666 11.4997C21.6666 10.9663 21.2303 10.53 20.6969 10.53H19.6691ZM11 18.2876C7.24725 18.2876 4.2121 15.2524 4.2121 11.4997C4.2121 7.74695 7.24725 4.7118 11 4.7118C14.7527 4.7118 17.7879 7.74695 17.7879 11.4997C17.7879 15.2524 14.7527 18.2876 11 18.2876Z" fill="white"/>
</svg>
