<svg width="20" height="20" viewBox="0 0 20 20" fill="none" xmlns="http://www.w3.org/2000/svg">
<path d="M-0.00012207 4.16667C-0.00012207 3.0616 0.438865 2.00179 1.22027 1.22039C2.00167 0.438987 3.06148 0 4.16654 0H15.8332C16.9383 0 17.9981 0.438987 18.7795 1.22039C19.5609 2.00179 19.9999 3.0616 19.9999 4.16667V15.8333C19.9999 16.9384 19.5609 17.9982 18.7795 18.7796C17.9981 19.561 16.9383 20 15.8332 20H4.16654C3.06148 20 2.00167 19.561 1.22027 18.7796C0.438865 17.9982 -0.00012207 16.9384 -0.00012207 15.8333V4.16667ZM4.16654 1.66667C3.5035 1.66667 2.86762 1.93006 2.39878 2.3989C1.92994 2.86774 1.66654 3.50363 1.66654 4.16667V15.8333C1.66654 16.4964 1.92994 17.1323 2.39878 17.6011C2.86762 18.0699 3.5035 18.3333 4.16654 18.3333H15.8332C16.4963 18.3333 17.1321 18.0699 17.601 17.6011C18.0698 17.1323 18.3332 16.4964 18.3332 15.8333V4.16667C18.3332 3.50363 18.0698 2.86774 17.601 2.3989C17.1321 1.93006 16.4963 1.66667 15.8332 1.66667H4.16654ZM10.8332 14.1667C10.8332 13.9457 10.921 13.7337 11.0773 13.5774C11.2336 13.4211 11.4455 13.3333 11.6665 13.3333H15.4165C15.6376 13.3333 15.8495 13.4211 16.0058 13.5774C16.1621 13.7337 16.2499 13.9457 16.2499 14.1667C16.2499 14.3877 16.1621 14.5996 16.0058 14.7559C15.8495 14.9122 15.6376 15 15.4165 15H11.6665C11.4455 15 11.2336 14.9122 11.0773 14.7559C10.921 14.5996 10.8332 14.3877 10.8332 14.1667ZM11.6665 6.66667C11.4455 6.66667 11.2336 6.75446 11.0773 6.91074C10.921 7.06702 10.8332 7.27899 10.8332 7.5C10.8332 7.72101 10.921 7.93297 11.0773 8.08926C11.2336 8.24554 11.4455 8.33333 11.6665 8.33333H15.4165C15.6376 8.33333 15.8495 8.24554 16.0058 8.08926C16.1621 7.93297 16.2499 7.72101 16.2499 7.5C16.2499 7.27899 16.1621 7.06702 16.0058 6.91074C15.8495 6.75446 15.6376 6.66667 15.4165 6.66667H11.6665ZM8.92321 11.91C9.00082 11.9874 9.06239 12.0794 9.1044 12.1806C9.14641 12.2819 9.16803 12.3904 9.16803 12.5C9.16803 12.6096 9.14641 12.7181 9.1044 12.8194C9.06239 12.9206 9.00082 13.0126 8.92321 13.09L6.42321 15.59C6.3458 15.6676 6.25384 15.7292 6.1526 15.7712C6.05136 15.8132 5.94282 15.8348 5.83321 15.8348C5.7236 15.8348 5.61506 15.8132 5.51382 15.7712C5.41258 15.7292 5.32062 15.6676 5.24321 15.59L3.99654 14.3433C3.91906 14.2659 3.8576 14.1739 3.81567 14.0726C3.77374 13.9714 3.75216 13.8629 3.75216 13.7533C3.75216 13.6438 3.77374 13.5353 3.81567 13.434C3.8576 13.3328 3.91906 13.2408 3.99654 13.1633C4.15302 13.0069 4.36525 12.9189 4.58654 12.9189C4.69612 12.9189 4.80462 12.9405 4.90585 12.9825C5.00708 13.0244 5.09906 13.0859 5.17654 13.1633L5.83321 13.8217L7.74321 11.91C7.82062 11.8324 7.91258 11.7708 8.01382 11.7288C8.11506 11.6868 8.2236 11.6652 8.33321 11.6652C8.44282 11.6652 8.55136 11.6868 8.6526 11.7288C8.75384 11.7708 8.8458 11.8324 8.92321 11.91ZM8.92321 6.42333C9.00069 6.34585 9.06215 6.25387 9.10408 6.15264C9.14602 6.05141 9.1676 5.94291 9.1676 5.83333C9.1676 5.72376 9.14602 5.61526 9.10408 5.51403C9.06215 5.41279 9.00069 5.32081 8.92321 5.24333C8.84573 5.16585 8.75375 5.10439 8.65252 5.06246C8.55128 5.02053 8.44278 4.99895 8.33321 4.99895C8.22364 4.99895 8.11514 5.02053 8.0139 5.06246C7.91267 5.10439 7.82069 5.16585 7.74321 5.24333L5.83321 7.155L5.17654 6.49667C5.02007 6.34019 4.80784 6.25228 4.58654 6.25228C4.36525 6.25228 4.15302 6.34019 3.99654 6.49667C3.84007 6.65314 3.75216 6.86537 3.75216 7.08667C3.75216 7.30796 3.84007 7.52019 3.99654 7.67667L5.24321 8.92333C5.32062 9.00094 5.41258 9.06251 5.51382 9.10452C5.61506 9.14653 5.7236 9.16816 5.83321 9.16816C5.94282 9.16816 6.05136 9.14653 6.1526 9.10452C6.25384 9.06251 6.3458 9.00094 6.42321 8.92333L8.92321 6.42333Z" fill="#44546F"/>
</svg>
