<svg width="25" height="26" viewBox="0 0 25 26" fill="none" xmlns="http://www.w3.org/2000/svg">
<g clip-path="url(#clip0_1_13225)">
<path d="M12.1538 12.4397C14.6947 12.4397 16.7545 10.3799 16.7545 7.83901C16.7545 5.2981 14.6947 3.23828 12.1538 3.23828C9.61285 3.23828 7.55304 5.2981 7.55304 7.83901C7.55304 10.3799 9.61285 12.4397 12.1538 12.4397Z" fill="#579DFF"/>
<path d="M8.10701 18.8439C8.12105 18.4701 8.2456 18.1088 8.46491 17.8058C8.68422 17.5028 8.98844 17.2716 9.33913 17.1414C9.68981 17.0113 10.0712 16.988 10.4351 17.0746C10.799 17.1612 11.1291 17.3537 11.3836 17.6278L13.9913 20.4315L18.6123 15.2768C16.7037 14.0043 14.4542 13.3401 12.1605 13.3716C10.5694 13.3314 8.98884 13.6402 7.52989 14.2763C6.07094 14.9124 4.76903 15.8604 3.71572 17.0536C3.62661 17.1724 3.57912 17.3172 3.5806 17.4657V21.1071C3.58044 21.4585 3.71722 21.7962 3.96191 22.0484C4.2066 22.3007 4.53995 22.4477 4.89123 22.4582H10.681L8.60694 20.2288C8.43526 20.0431 8.30256 19.8249 8.21669 19.587C8.13082 19.3491 8.09353 19.0964 8.10701 18.8439Z" fill="#579DFF"/>
<path d="M19.4298 22.4587C19.7811 22.4482 20.1144 22.3012 20.3591 22.0489C20.6038 21.7967 20.7406 21.459 20.7404 21.1076V18.5674L17.2747 22.4587H19.4298Z" fill="#579DFF"/>
<path d="M22.8145 13.4195C22.7482 13.3595 22.6706 13.3134 22.5864 13.2836C22.5021 13.2539 22.4128 13.2412 22.3235 13.2462C22.2343 13.2512 22.147 13.2739 22.0666 13.3129C21.9862 13.3519 21.9143 13.4065 21.8551 13.4735L14.0049 22.2561L10.4918 18.4796C10.4342 18.4121 10.3638 18.3567 10.2847 18.3165C10.2056 18.2763 10.1194 18.252 10.0309 18.2451C9.94248 18.2382 9.85353 18.2488 9.76916 18.2763C9.6848 18.3038 9.60668 18.3476 9.53925 18.4053C9.47593 18.4681 9.42567 18.5428 9.39137 18.6251C9.35708 18.7074 9.33942 18.7957 9.33942 18.8849C9.33942 18.9741 9.35708 19.0624 9.39137 19.1447C9.42567 19.2271 9.47593 19.3018 9.53925 19.3646L14.0522 24.2288L22.8618 14.3518C22.9754 14.2201 23.0338 14.0498 23.025 13.8761C23.0162 13.7025 22.9408 13.5389 22.8145 13.4195Z" fill="#579DFF"/>
</g>
<defs>
<clipPath id="clip0_1_13225">
<rect width="24.321" height="24.321" fill="white" transform="translate(0 0.839844)"/>
</clipPath>
</defs>
</svg>
