<svg width="18" height="18" viewBox="0 0 18 18" fill="none" xmlns="http://www.w3.org/2000/svg">
<path d="M16.6115 17.1149C16.1302 7.65705 1.89224 7.65705 1.41089 17.1149M12.0513 3.94101C12.0513 4.7473 11.731 5.52057 11.1609 6.0907C10.5908 6.66083 9.8175 6.98113 9.01121 6.98113C8.20491 6.98113 7.43165 6.66083 6.86151 6.0907C6.29138 5.52057 5.97108 4.7473 5.97108 3.94101C5.97108 3.13471 6.29138 2.36145 6.86151 1.79131C7.43165 1.22118 8.20491 0.900879 9.01121 0.900879C9.8175 0.900879 10.5908 1.22118 11.1609 1.79131C11.731 2.36145 12.0513 3.13471 12.0513 3.94101Z" stroke="white" stroke-width="1.52006" stroke-linecap="round" stroke-linejoin="round"/>
</svg>
