<svg width="26" height="25" viewBox="0 0 26 25" fill="none" xmlns="http://www.w3.org/2000/svg">
<g clip-path="url(#clip0_1_13094)">
<path d="M13.0112 11.8258C14.0083 11.8271 14.9833 11.5327 15.813 10.9797C16.6427 10.4267 17.2897 9.64009 17.6722 8.7193C18.0547 7.79851 18.1555 6.78495 17.9618 5.80687C17.7681 4.82879 17.2886 3.93014 16.584 3.22463C15.8795 2.51911 14.9815 2.03844 14.0037 1.84343C13.0258 1.64842 12.0121 1.74783 11.0908 2.12908C10.1695 2.51034 9.38201 3.15631 8.82793 3.98525C8.27384 4.8142 7.97809 5.78887 7.97809 6.78595C7.97809 8.12143 8.50814 9.40231 9.45184 10.3473C10.3955 11.2922 11.6757 11.824 13.0112 11.8258ZM13.0112 3.0905C13.7413 3.08917 14.4554 3.30454 15.063 3.70934C15.6707 4.11415 16.1445 4.69017 16.4245 5.36447C16.7046 6.03876 16.7782 6.78099 16.6361 7.49716C16.494 8.21332 16.1425 8.8712 15.6262 9.38748C15.11 9.90376 14.4521 10.2552 13.7359 10.3973C13.0197 10.5394 12.2775 10.4658 11.6032 10.1858C10.9289 9.90577 10.3529 9.43193 9.9481 8.8243C9.54329 8.21666 9.32792 7.50256 9.32926 6.77243C9.33104 5.79647 9.71953 4.861 10.4096 4.17089C11.0998 3.48078 12.0352 3.09229 13.0112 3.0905Z" fill="white" stroke="white" stroke-width="0.5"/>
<path d="M4.9042 21.8849V17.7503C5.94722 16.6556 7.20663 15.79 8.60234 15.2085C9.99804 14.6269 11.4995 14.3422 13.0112 14.3724C15.0803 14.3442 17.1169 14.889 18.8955 15.9465L19.8076 14.9264C17.7739 13.6454 15.4145 12.977 13.0112 13.0009C11.2528 12.9561 9.50617 13.2998 7.89582 14.0075C6.28548 14.7152 4.85109 15.7694 3.69491 17.095C3.60479 17.2111 3.55498 17.3534 3.55304 17.5003V21.8849C3.54395 22.2529 3.68102 22.6095 3.93426 22.8766C4.18749 23.1438 4.53625 23.2997 4.9042 23.3104H13.2747L11.9911 21.9592L4.9042 21.8849Z" fill="white" stroke="white" stroke-width="0.5"/>
<path d="M21.1182 21.8851V21.9594H18.9902L17.7741 23.3106H21.1182C21.4815 23.3 21.8261 23.1478 22.0786 22.8865C22.3311 22.6252 22.4713 22.2755 22.4694 21.9121V18.041L21.1182 19.5476V21.8851Z" fill="white" stroke="white" stroke-width="0.5"/>
<path d="M24.334 12.92C24.2004 12.8011 24.0251 12.74 23.8466 12.7501C23.668 12.7602 23.5007 12.8408 23.3815 12.974L15.5312 21.7566L12.0181 17.9801C11.9605 17.9127 11.8901 17.8573 11.811 17.817C11.7319 17.7768 11.6457 17.7526 11.5572 17.7457C11.4688 17.7388 11.3798 17.7493 11.2955 17.7768C11.2111 17.8043 11.133 17.8481 11.0656 17.9058C10.9995 17.9659 10.946 18.0385 10.9082 18.1193C10.8704 18.2002 10.849 18.2878 10.8452 18.377C10.8414 18.4662 10.8554 18.5553 10.8863 18.6391C10.9171 18.7228 10.9643 18.7997 11.025 18.8651L15.5447 23.7293L24.3881 13.8523C24.5008 13.7198 24.5581 13.549 24.5481 13.3753C24.538 13.2016 24.4613 13.0385 24.334 12.92Z" fill="white" stroke="white" stroke-width="0.5"/>
</g>
<defs>
<clipPath id="clip0_1_13094">
<rect width="24.321" height="24.321" fill="white" transform="translate(0.850708 0.34082)"/>
</clipPath>
</defs>
</svg>
